<svg width="32" height="32" viewBox="0 0 32 32" fill="none" xmlns="http://www.w3.org/2000/svg">
<g clip-path="url(#clip0_57_1821)">
<path d="M2.55274 28.3945L9.55274 31.8945C9.69226 31.9617 9.84514 31.9966 10 31.9966C10.1549 31.9966 10.3077 31.9617 10.4473 31.8945L16 29.1182L21.5527 31.8945C21.6923 31.9617 21.8451 31.9966 22 31.9966C22.1549 31.9966 22.3077 31.9617 22.4473 31.8945L29.4473 28.3945C29.6133 28.3114 29.753 28.1837 29.8506 28.0257C29.9482 27.8677 30 27.6857 30 27.5V18.5C29.9958 18.3152 29.9423 18.1349 29.8451 17.9777C29.748 17.8204 29.6106 17.6919 29.4473 17.6055L26.2363 16L29.4473 14.3945C29.6133 14.3114 29.753 14.1837 29.8506 14.0257C29.9482 13.8677 30 13.6857 30 13.5V4.5C29.9958 4.31521 29.9423 4.13489 29.8451 3.97765C29.748 3.82041 29.6106 3.69193 29.4473 3.60547L22.4473 0.105469C22.3084 0.0361074 22.1552 0 22 0C21.8448 0 21.6916 0.0361074 21.5527 0.105469L16 2.88183L10.4473 0.105469C10.3084 0.0361074 10.1552 0 10 0C9.84475 0 9.69163 0.0361074 9.55274 0.105469L2.55274 3.60547C2.38937 3.69193 2.25202 3.82041 2.15486 3.97765C2.0577 4.13489 2.00424 4.31521 2 4.5V13.5C2.00004 13.6857 2.05177 13.8677 2.14938 14.0257C2.247 14.1837 2.38666 14.3114 2.55274 14.3945L5.76367 16L2.55274 17.6055C2.38937 17.6919 2.25202 17.8204 2.15486 17.9777C2.0577 18.1349 2.00424 18.3152 2 18.5V27.5C2.00004 27.6857 2.05177 27.8677 2.14938 28.0257C2.247 28.1837 2.38666 28.3114 2.55274 28.3945ZM4 20.1182L9 22.6182V29.3821L4 26.8821V20.1182ZM16 12.8821V6.11816L21 8.61816V15.3821L16 12.8821ZM11 8.61816L14 7.11816V13.5C14.0023 13.6189 14.0261 13.7364 14.0702 13.8468L11 15.3821V8.61816ZM16 15.1182L17.7637 16L16 16.8818L14.2363 16L16 15.1182ZM16 26.8821V20.1182L21 22.6182V29.3821L16 26.8821ZM11 22.6182L14 21.1182V27.5C14.0023 27.6189 14.0261 27.7364 14.0702 27.8468L11 29.3821V22.6182ZM23 29.3821V22.6182L28 20.1182V26.8821L23 29.3821ZM26.7638 18.4999L22 20.8818L17.2362 18.4999L20 17.1182L21.5527 17.8945C21.6923 17.9617 21.8451 17.9966 22 17.9966C22.1549 17.9966 22.3077 17.9617 22.4473 17.8945L24 17.1182L26.7638 18.4999ZM23 15.3821V8.61816L28 6.11816V12.8821L23 15.3821ZM22 2.11792L26.7638 4.49992L22 6.88183L17.2362 4.49994L22 2.11792ZM10 2.11792L14.0702 4.15304C13.9996 4.38909 13.9758 4.63665 14 4.88183L10 6.88183L5.23621 4.49994L10 2.11792ZM4 6.11816L9 8.61816V15.3821L4 12.8821V6.11816ZM9.55274 17.8945C9.69226 17.9617 9.84514 17.9966 10 17.9966C10.1549 17.9966 10.3077 17.9617 10.4473 17.8945L12 17.1182L14.0702 18.1532C13.9996 18.3892 13.9758 18.6367 14 18.8818L10 20.8818L5.23621 18.4999L7.99997 17.1182L9.55274 17.8945Z" fill="white"/>
<path d="M25.5 12C26.0523 12 26.5 11.5523 26.5 11C26.5 10.4477 26.0523 10 25.5 10C24.9477 10 24.5 10.4477 24.5 11C24.5 11.5523 24.9477 12 25.5 12Z" fill="white"/>
</g>
<defs>
<clipPath id="clip0_57_1821">
<rect width="32" height="32" fill="white"/>
</clipPath>
</defs>
</svg>
