<svg width="60" height="60" viewBox="0 0 60 60" fill="none" xmlns="http://www.w3.org/2000/svg">
<path d="M16.875 26.25C22.0406 26.25 26.25 22.0406 26.25 16.875C26.25 11.7094 22.0406 7.5 16.875 7.5C11.7094 7.5 7.5 11.7094 7.5 16.875C7.5 22.0406 11.7094 26.25 16.875 26.25ZM16.875 9.375C21.0094 9.375 24.375 12.7406 24.375 16.875C24.375 21.0094 21.0094 24.375 16.875 24.375C12.7406 24.375 9.375 21.0094 9.375 16.875C9.375 12.7406 12.7406 9.375 16.875 9.375Z" fill="#E600AD"/>
<path d="M16.875 26.25C22.0406 26.25 26.25 22.0406 26.25 16.875C26.25 11.7094 22.0406 7.5 16.875 7.5C11.7094 7.5 7.5 11.7094 7.5 16.875C7.5 22.0406 11.7094 26.25 16.875 26.25ZM16.875 9.375C21.0094 9.375 24.375 12.7406 24.375 16.875C24.375 21.0094 21.0094 24.375 16.875 24.375C12.7406 24.375 9.375 21.0094 9.375 16.875C9.375 12.7406 12.7406 9.375 16.875 9.375Z" fill="url(#paint0_radial_29_1784)" fill-opacity="0.5"/>
<path d="M17.7186 19.3121H16.0311C15.6186 19.3121 15.2811 18.9746 15.2811 18.5621C15.2811 18.0465 14.8592 17.6246 14.3436 17.6246C13.828 17.6246 13.4061 18.0465 13.4061 18.5621C13.4061 19.9777 14.5311 21.1309 15.9374 21.1777V21.9371C15.9374 22.4527 16.3592 22.8746 16.8749 22.8746C17.3905 22.8746 17.8124 22.4527 17.8124 21.9371V21.1777C18.5436 21.1496 19.2374 20.8309 19.7155 20.259C20.2124 19.6684 20.428 18.8902 20.3061 18.1215C20.0999 16.8746 18.9467 15.9277 17.6248 15.9277H16.0311C15.8061 15.9277 15.5999 15.834 15.4592 15.6652C15.3749 15.5621 15.2436 15.3559 15.2905 15.0465C15.3467 14.6996 15.7124 14.4277 16.1155 14.4277H17.7092C18.1217 14.4277 18.4592 14.7652 18.4592 15.1777C18.4592 15.6934 18.8811 16.1152 19.3967 16.1152C19.9124 16.1152 20.3342 15.6934 20.3342 15.1777C20.3342 13.7621 19.2092 12.609 17.803 12.5621V11.8027C17.803 11.2871 17.3811 10.8652 16.8655 10.8652C16.3499 10.8652 15.928 11.2871 15.928 11.8027V12.5715C14.6811 12.6559 13.6217 13.5559 13.4342 14.7465C13.3124 15.5152 13.528 16.2934 14.0249 16.884C14.5217 17.4746 15.253 17.8121 16.0217 17.8121H17.6155C18.028 17.8121 18.3842 18.084 18.4405 18.4309C18.4874 18.7402 18.3561 18.9465 18.2717 19.0496C18.1311 19.2184 17.9248 19.3121 17.6998 19.3121H17.7186Z" fill="#E600AD"/>
<path d="M17.7186 19.3121H16.0311C15.6186 19.3121 15.2811 18.9746 15.2811 18.5621C15.2811 18.0465 14.8592 17.6246 14.3436 17.6246C13.828 17.6246 13.4061 18.0465 13.4061 18.5621C13.4061 19.9777 14.5311 21.1309 15.9374 21.1777V21.9371C15.9374 22.4527 16.3592 22.8746 16.8749 22.8746C17.3905 22.8746 17.8124 22.4527 17.8124 21.9371V21.1777C18.5436 21.1496 19.2374 20.8309 19.7155 20.259C20.2124 19.6684 20.428 18.8902 20.3061 18.1215C20.0999 16.8746 18.9467 15.9277 17.6248 15.9277H16.0311C15.8061 15.9277 15.5999 15.834 15.4592 15.6652C15.3749 15.5621 15.2436 15.3559 15.2905 15.0465C15.3467 14.6996 15.7124 14.4277 16.1155 14.4277H17.7092C18.1217 14.4277 18.4592 14.7652 18.4592 15.1777C18.4592 15.6934 18.8811 16.1152 19.3967 16.1152C19.9124 16.1152 20.3342 15.6934 20.3342 15.1777C20.3342 13.7621 19.2092 12.609 17.803 12.5621V11.8027C17.803 11.2871 17.3811 10.8652 16.8655 10.8652C16.3499 10.8652 15.928 11.2871 15.928 11.8027V12.5715C14.6811 12.6559 13.6217 13.5559 13.4342 14.7465C13.3124 15.5152 13.528 16.2934 14.0249 16.884C14.5217 17.4746 15.253 17.8121 16.0217 17.8121H17.6155C18.028 17.8121 18.3842 18.084 18.4405 18.4309C18.4874 18.7402 18.3561 18.9465 18.2717 19.0496C18.1311 19.2184 17.9248 19.3121 17.6998 19.3121H17.7186Z" fill="url(#paint1_radial_29_1784)" fill-opacity="0.5"/>
<path d="M52.5 2.8125H7.5C4.9125 2.8125 2.8125 4.9125 2.8125 7.5V52.5C2.8125 55.0875 4.9125 57.1875 7.5 57.1875H52.5C55.0875 57.1875 57.1875 55.0875 57.1875 52.5V7.5C57.1875 4.9125 55.0875 2.8125 52.5 2.8125ZM29.0625 55.3125H7.5C5.95312 55.3125 4.6875 54.0469 4.6875 52.5V30.9375H29.0625V55.3125ZM29.0625 29.0625H4.6875V7.5C4.6875 5.95312 5.95312 4.6875 7.5 4.6875H29.0625V29.0625ZM55.3125 52.5C55.3125 54.0469 54.0469 55.3125 52.5 55.3125H30.9375V30.9375H55.3125V52.5ZM55.3125 29.0625H30.9375V4.6875H52.5C54.0469 4.6875 55.3125 5.95312 55.3125 7.5V29.0625Z" fill="#E600AD"/>
<path d="M52.5 2.8125H7.5C4.9125 2.8125 2.8125 4.9125 2.8125 7.5V52.5C2.8125 55.0875 4.9125 57.1875 7.5 57.1875H52.5C55.0875 57.1875 57.1875 55.0875 57.1875 52.5V7.5C57.1875 4.9125 55.0875 2.8125 52.5 2.8125ZM29.0625 55.3125H7.5C5.95312 55.3125 4.6875 54.0469 4.6875 52.5V30.9375H29.0625V55.3125ZM29.0625 29.0625H4.6875V7.5C4.6875 5.95312 5.95312 4.6875 7.5 4.6875H29.0625V29.0625ZM55.3125 52.5C55.3125 54.0469 54.0469 55.3125 52.5 55.3125H30.9375V30.9375H55.3125V52.5ZM55.3125 29.0625H30.9375V4.6875H52.5C54.0469 4.6875 55.3125 5.95312 55.3125 7.5V29.0625Z" fill="url(#paint2_radial_29_1784)" fill-opacity="0.5"/>
<path d="M43.6875 7.68789C43.35 7.43477 42.9 7.43477 42.5625 7.68789L35.0625 13.3129C34.8281 13.491 34.6875 13.7629 34.6875 14.0629V25.3129C34.6875 25.8285 35.1094 26.2504 35.625 26.2504H50.625C51.1406 26.2504 51.5625 25.8285 51.5625 25.3129V14.0629C51.5625 13.7723 51.4219 13.491 51.1875 13.3129L43.6875 7.68789ZM44.0625 24.3754H42.1875V21.5629C42.1875 21.0473 42.6094 20.6254 43.125 20.6254C43.6406 20.6254 44.0625 21.0473 44.0625 21.5629V24.3754ZM49.6875 24.3754H45.9375V21.5629C45.9375 20.016 44.6719 18.7504 43.125 18.7504C41.5781 18.7504 40.3125 20.016 40.3125 21.5629V24.3754H36.5625V14.5316L43.125 9.60977L49.6875 14.5316V24.3754Z" fill="#E600AD"/>
<path d="M43.6875 7.68789C43.35 7.43477 42.9 7.43477 42.5625 7.68789L35.0625 13.3129C34.8281 13.491 34.6875 13.7629 34.6875 14.0629V25.3129C34.6875 25.8285 35.1094 26.2504 35.625 26.2504H50.625C51.1406 26.2504 51.5625 25.8285 51.5625 25.3129V14.0629C51.5625 13.7723 51.4219 13.491 51.1875 13.3129L43.6875 7.68789ZM44.0625 24.3754H42.1875V21.5629C42.1875 21.0473 42.6094 20.6254 43.125 20.6254C43.6406 20.6254 44.0625 21.0473 44.0625 21.5629V24.3754ZM49.6875 24.3754H45.9375V21.5629C45.9375 20.016 44.6719 18.7504 43.125 18.7504C41.5781 18.7504 40.3125 20.016 40.3125 21.5629V24.3754H36.5625V14.5316L43.125 9.60977L49.6875 14.5316V24.3754Z" fill="url(#paint3_radial_29_1784)" fill-opacity="0.5"/>
<path d="M34.6875 52.5H51.5625C52.0781 52.5 52.5 52.0781 52.5 51.5625V34.6875C52.5 34.1719 52.0781 33.75 51.5625 33.75H34.6875C34.1719 33.75 33.75 34.1719 33.75 34.6875V51.5625C33.75 52.0781 34.1719 52.5 34.6875 52.5ZM35.625 35.625H50.625V50.625H35.625V35.625Z" fill="#E600AD"/>
<path d="M34.6875 52.5H51.5625C52.0781 52.5 52.5 52.0781 52.5 51.5625V34.6875C52.5 34.1719 52.0781 33.75 51.5625 33.75H34.6875C34.1719 33.75 33.75 34.1719 33.75 34.6875V51.5625C33.75 52.0781 34.1719 52.5 34.6875 52.5ZM35.625 35.625H50.625V50.625H35.625V35.625Z" fill="url(#paint4_radial_29_1784)" fill-opacity="0.5"/>
<path d="M8.17496 52.7909H15.5062C15.9468 52.7909 16.3781 52.6034 16.6781 52.2847C16.7531 52.2097 16.8187 52.1159 16.875 52.0315C16.9312 52.1253 16.9968 52.2097 17.0718 52.2847C17.3718 52.6034 17.8031 52.7909 18.2437 52.7909H25.575C26.0156 52.7909 26.4468 52.6034 26.7468 52.2847C27.0468 51.9659 27.2062 51.5253 27.1875 51.0847L26.8125 44.3065C26.7468 43.0972 25.7437 42.1503 24.5343 42.1503H22.1718L21.8062 35.5503C21.7406 34.3409 20.7375 33.394 19.5281 33.394H14.325C13.1156 33.394 12.1125 34.3409 12.0468 35.5409L11.6531 42.1503H9.27184C8.06246 42.1503 7.05934 43.0972 6.99371 44.2972L6.59059 51.0753C6.56246 51.5159 6.72184 51.9565 7.02184 52.2753C7.32184 52.594 7.75309 52.7815 8.19371 52.7815L8.17496 52.7909ZM24.525 44.0253C24.7406 44.0253 24.9187 44.194 24.9375 44.4097L25.3031 50.9065H18.525L18.9093 44.4097C18.9187 44.194 19.1062 44.0253 19.3218 44.0253H24.525ZM13.8937 35.6534C13.9031 35.4378 14.0906 35.269 14.3062 35.269H19.5093C19.725 35.269 19.9031 35.4378 19.9218 35.6534L20.2875 42.1503H13.5093L13.8937 35.6534ZM8.84059 44.419C8.84996 44.2034 9.03746 44.0347 9.25309 44.0347H14.4562C14.6718 44.0347 14.85 44.2034 14.8687 44.419L15.225 50.9159H8.44684L8.83121 44.419H8.84059Z" fill="#E600AD"/>
<path d="M8.17496 52.7909H15.5062C15.9468 52.7909 16.3781 52.6034 16.6781 52.2847C16.7531 52.2097 16.8187 52.1159 16.875 52.0315C16.9312 52.1253 16.9968 52.2097 17.0718 52.2847C17.3718 52.6034 17.8031 52.7909 18.2437 52.7909H25.575C26.0156 52.7909 26.4468 52.6034 26.7468 52.2847C27.0468 51.9659 27.2062 51.5253 27.1875 51.0847L26.8125 44.3065C26.7468 43.0972 25.7437 42.1503 24.5343 42.1503H22.1718L21.8062 35.5503C21.7406 34.3409 20.7375 33.394 19.5281 33.394H14.325C13.1156 33.394 12.1125 34.3409 12.0468 35.5409L11.6531 42.1503H9.27184C8.06246 42.1503 7.05934 43.0972 6.99371 44.2972L6.59059 51.0753C6.56246 51.5159 6.72184 51.9565 7.02184 52.2753C7.32184 52.594 7.75309 52.7815 8.19371 52.7815L8.17496 52.7909ZM24.525 44.0253C24.7406 44.0253 24.9187 44.194 24.9375 44.4097L25.3031 50.9065H18.525L18.9093 44.4097C18.9187 44.194 19.1062 44.0253 19.3218 44.0253H24.525ZM13.8937 35.6534C13.9031 35.4378 14.0906 35.269 14.3062 35.269H19.5093C19.725 35.269 19.9031 35.4378 19.9218 35.6534L20.2875 42.1503H13.5093L13.8937 35.6534ZM8.84059 44.419C8.84996 44.2034 9.03746 44.0347 9.25309 44.0347H14.4562C14.6718 44.0347 14.85 44.2034 14.8687 44.419L15.225 50.9159H8.44684L8.83121 44.419H8.84059Z" fill="url(#paint5_radial_29_1784)" fill-opacity="0.5"/>
<path d="M47.8125 38.4375H38.4375C37.9219 38.4375 37.5 38.8594 37.5 39.375C37.5 39.8906 37.9219 40.3125 38.4375 40.3125H47.8125C48.3281 40.3125 48.75 39.8906 48.75 39.375C48.75 38.8594 48.3281 38.4375 47.8125 38.4375Z" fill="#E600AD"/>
<path d="M47.8125 38.4375H38.4375C37.9219 38.4375 37.5 38.8594 37.5 39.375C37.5 39.8906 37.9219 40.3125 38.4375 40.3125H47.8125C48.3281 40.3125 48.75 39.8906 48.75 39.375C48.75 38.8594 48.3281 38.4375 47.8125 38.4375Z" fill="url(#paint6_radial_29_1784)" fill-opacity="0.5"/>
<path d="M47.8125 42.1875H38.4375C37.9219 42.1875 37.5 42.6094 37.5 43.125C37.5 43.6406 37.9219 44.0625 38.4375 44.0625H47.8125C48.3281 44.0625 48.75 43.6406 48.75 43.125C48.75 42.6094 48.3281 42.1875 47.8125 42.1875Z" fill="#E600AD"/>
<path d="M47.8125 42.1875H38.4375C37.9219 42.1875 37.5 42.6094 37.5 43.125C37.5 43.6406 37.9219 44.0625 38.4375 44.0625H47.8125C48.3281 44.0625 48.75 43.6406 48.75 43.125C48.75 42.6094 48.3281 42.1875 47.8125 42.1875Z" fill="url(#paint7_radial_29_1784)" fill-opacity="0.5"/>
<path d="M47.8125 45.9375H38.4375C37.9219 45.9375 37.5 46.3594 37.5 46.875C37.5 47.3906 37.9219 47.8125 38.4375 47.8125H47.8125C48.3281 47.8125 48.75 47.3906 48.75 46.875C48.75 46.3594 48.3281 45.9375 47.8125 45.9375Z" fill="#E600AD"/>
<path d="M47.8125 45.9375H38.4375C37.9219 45.9375 37.5 46.3594 37.5 46.875C37.5 47.3906 37.9219 47.8125 38.4375 47.8125H47.8125C48.3281 47.8125 48.75 47.3906 48.75 46.875C48.75 46.3594 48.3281 45.9375 47.8125 45.9375Z" fill="url(#paint8_radial_29_1784)" fill-opacity="0.5"/>
<defs>
<radialGradient id="paint0_radial_29_1784" cx="0" cy="0" r="1" gradientUnits="userSpaceOnUse" gradientTransform="translate(16.0531 26.25) scale(12.7269)">
<stop stop-color="white"/>
<stop offset="1" stop-color="white" stop-opacity="0"/>
</radialGradient>
<radialGradient id="paint1_radial_29_1784" cx="0" cy="0" r="1" gradientUnits="userSpaceOnUse" gradientTransform="translate(16.566 22.8746) scale(4.70967 8.15157)">
<stop stop-color="white"/>
<stop offset="1" stop-color="white" stop-opacity="0"/>
</radialGradient>
<radialGradient id="paint2_radial_29_1784" cx="0" cy="0" r="1" gradientUnits="userSpaceOnUse" gradientTransform="translate(27.6164 57.1875) scale(36.908)">
<stop stop-color="white"/>
<stop offset="1" stop-color="white" stop-opacity="0"/>
</radialGradient>
<radialGradient id="paint3_radial_29_1784" cx="0" cy="0" r="1" gradientUnits="userSpaceOnUse" gradientTransform="translate(42.3853 26.2504) scale(11.4542 12.7285)">
<stop stop-color="white"/>
<stop offset="1" stop-color="white" stop-opacity="0"/>
</radialGradient>
<radialGradient id="paint4_radial_29_1784" cx="0" cy="0" r="1" gradientUnits="userSpaceOnUse" gradientTransform="translate(42.3031 52.5) scale(12.7269)">
<stop stop-color="white"/>
<stop offset="1" stop-color="white" stop-opacity="0"/>
</radialGradient>
<radialGradient id="paint5_radial_29_1784" cx="0" cy="0" r="1" gradientUnits="userSpaceOnUse" gradientTransform="translate(15.9851 52.7909) scale(13.9837 13.166)">
<stop stop-color="white"/>
<stop offset="1" stop-color="white" stop-opacity="0"/>
</radialGradient>
<radialGradient id="paint6_radial_29_1784" cx="0" cy="0" r="1" gradientUnits="userSpaceOnUse" gradientTransform="translate(42.6318 40.3125) scale(7.63613 1.27269)">
<stop stop-color="white"/>
<stop offset="1" stop-color="white" stop-opacity="0"/>
</radialGradient>
<radialGradient id="paint7_radial_29_1784" cx="0" cy="0" r="1" gradientUnits="userSpaceOnUse" gradientTransform="translate(42.6318 44.0625) scale(7.63613 1.27269)">
<stop stop-color="white"/>
<stop offset="1" stop-color="white" stop-opacity="0"/>
</radialGradient>
<radialGradient id="paint8_radial_29_1784" cx="0" cy="0" r="1" gradientUnits="userSpaceOnUse" gradientTransform="translate(42.6318 47.8125) scale(7.63613 1.27269)">
<stop stop-color="white"/>
<stop offset="1" stop-color="white" stop-opacity="0"/>
</radialGradient>
</defs>
</svg>
