<svg width="32" height="32" viewBox="0 0 32 32" fill="none" xmlns="http://www.w3.org/2000/svg">
<path d="M4 23V4H6V6C6 6.55273 6.44775 7 7 7H12C12.5522 7 13 6.55273 13 6V4H15V21H17V3C17 2.44727 16.5522 2 16 2H3C2.44775 2 2 2.44727 2 3V24C2 24.5527 2.44775 25 3 25H10.1011C10.2526 24.2565 10.5833 23.5842 11.0256 23H4ZM11 4V5H8V4H11Z" fill="white"/>
<path d="M9.70703 8.29297C9.31641 7.90234 8.68359 7.90234 8.29297 8.29297L7 9.58594L6.70703 9.29297C6.31641 8.90234 5.68359 8.90234 5.29297 9.29297C4.90234 9.68359 4.90234 10.3164 5.29297 10.707L6.29297 11.707C6.48828 11.9023 6.74414 12 7 12C7.25586 12 7.51172 11.9023 7.70703 11.707L9.70703 9.70703C10.0977 9.31641 10.0977 8.68359 9.70703 8.29297Z" fill="white"/>
<path d="M9.70703 13.293C9.31641 12.9023 8.68359 12.9023 8.29297 13.293L7 14.5859L6.70703 14.293C6.31641 13.9023 5.68359 13.9023 5.29297 14.293C4.90234 14.6836 4.90234 15.3164 5.29297 15.707L6.29297 16.707C6.48828 16.9023 6.74414 17 7 17C7.25586 17 7.51172 16.9023 7.70703 16.707L9.70703 14.707C10.0977 14.3164 10.0977 13.6836 9.70703 13.293Z" fill="white"/>
<path d="M8.29297 18.293L7 19.5859L6.70703 19.293C6.31641 18.9023 5.68359 18.9023 5.29297 19.293C4.90234 19.6836 4.90234 20.3164 5.29297 20.707L6.29297 21.707C6.48828 21.9023 6.74414 22 7 22C7.25586 22 7.51172 21.9023 7.70703 21.707L9.70703 19.707C10.0977 19.3164 10.0977 18.6836 9.70703 18.293C9.31641 17.9023 8.68359 17.9023 8.29297 18.293Z" fill="white"/>
<path d="M26 19H21C19.1417 19 17.5892 20.2795 17.142 22H15C12.7944 22 11 23.7939 11 26C11 28.2061 12.7944 30 15 30H20C21.8583 30 23.4108 28.7205 23.858 27H26C28.2056 27 30 25.2061 30 23C30 20.7939 28.2056 19 26 19ZM20 28H15C13.897 28 13 27.1025 13 26C13 24.8975 13.897 24 15 24H17.142C17.5892 25.7205 19.1417 27 21 27H21.7217C21.3748 27.5948 20.737 28 20 28ZM19.2783 24H20C20.737 24 21.3748 24.4052 21.7217 25H21C20.263 25 19.6252 24.5948 19.2783 24ZM26 25H23.858C23.4108 23.2795 21.8583 22 20 22H19.2783C19.6252 21.4052 20.263 21 21 21H26C27.103 21 28 21.8975 28 23C28 24.1025 27.103 25 26 25Z" fill="white"/>
<path d="M29 7H19C18.4478 7 18 7.44727 18 8V16C18 16.5527 18.4478 17 19 17H29C29.5522 17 30 16.5527 30 16V8C30 7.44727 29.5522 7 29 7ZM25 9V10.5859L24.707 10.293C24.3164 9.90234 23.6836 9.90234 23.293 10.293L23 10.5859V9H25ZM28 15H20V9H21V13C21 13.4043 21.2437 13.7695 21.6172 13.9238C21.9912 14.0801 22.4209 13.9932 22.707 13.707L24 12.4141L25.293 13.707C25.4844 13.8984 25.7397 14 26 14C26.1289 14 26.2588 13.9756 26.3828 13.9238C26.7563 13.7695 27 13.4043 27 13V9H28V15Z" fill="white"/>
</svg>
