<svg width="32" height="32" viewBox="0 0 32 32" fill="none" xmlns="http://www.w3.org/2000/svg">
<g clip-path="url(#clip0_6_331)">
<path d="M14.6911 21H1.875C1.18463 21 0.625 20.4404 0.625 19.75C0.625 19.0596 1.18463 18.5 1.875 18.5H14.6764" stroke="white" stroke-width="1.25" stroke-miterlimit="10" stroke-linecap="round" stroke-linejoin="round"/>
<path d="M17.3336 18.5H30.125C30.8154 18.5 31.375 19.0596 31.375 19.75C31.375 20.4404 30.8154 21 30.125 21H17.3747" stroke="white" stroke-width="1.25" stroke-miterlimit="10" stroke-linecap="round" stroke-linejoin="round"/>
<path d="M15.0823 21.3284L9.24084 31.3751H22.7591L16.9183 21.3296" stroke="white" stroke-width="1.25" stroke-miterlimit="10" stroke-linecap="round" stroke-linejoin="round"/>
<path d="M16 21.5374C16.9872 21.5374 17.7874 20.7372 17.7874 19.75C17.7874 18.7629 16.9872 17.9626 16 17.9626C15.0129 17.9626 14.2126 18.7629 14.2126 19.75C14.2126 20.7372 15.0129 21.5374 16 21.5374Z" stroke="white" stroke-width="1.25" stroke-miterlimit="10" stroke-linecap="round" stroke-linejoin="round"/>
<path d="M2.91464 6.78354C4.28814 5.41004 6.51501 5.41004 7.88851 6.78354C9.26201 5.41004 11.4889 5.41004 12.8624 6.78354C14.2359 8.15704 14.2359 10.3839 12.8624 11.7574L9.12339 15.4964C8.44139 16.1784 7.3357 16.1784 6.6537 15.4964L2.9147 11.7574C1.54114 10.3839 1.54114 8.15704 2.91464 6.78354Z" stroke="white" stroke-width="1.25" stroke-miterlimit="10" stroke-linecap="round" stroke-linejoin="round"/>
<path d="M27.6789 0.625L25.8754 4H22.3475L20.5439 0.625H27.6789Z" stroke="white" stroke-width="1.25" stroke-miterlimit="10" stroke-linecap="round" stroke-linejoin="round"/>
<path d="M25.6492 8.57159C25.6492 7.80084 24.9608 7.17603 24.1115 7.17603C23.2623 7.17603 22.5739 7.80084 22.5739 8.57159C22.5739 9.34234 23.2623 9.96715 24.1115 9.96715" stroke="white" stroke-width="1.25" stroke-miterlimit="10" stroke-linecap="round" stroke-linejoin="round"/>
<path d="M24.1115 9.96729C24.9608 9.96729 25.6492 10.5921 25.6492 11.3628C25.6492 12.1336 24.9608 12.7584 24.1115 12.7584C23.2623 12.7584 22.5739 12.1336 22.5739 11.3628" stroke="white" stroke-width="1.25" stroke-miterlimit="10" stroke-linecap="round" stroke-linejoin="round"/>
<path d="M24.1115 7.17619V6.75" stroke="white" stroke-width="1.25" stroke-miterlimit="10" stroke-linecap="round" stroke-linejoin="round"/>
<path d="M24.1115 13.25V12.8132" stroke="white" stroke-width="1.25" stroke-miterlimit="10" stroke-linecap="round" stroke-linejoin="round"/>
<path d="M22.3476 4L21.5638 4.57494C19.3916 6.16837 18.1084 8.70119 18.1084 11.3951C18.1084 13.9383 20.1701 16 22.7133 16H24.1115" stroke="white" stroke-width="1.25" stroke-miterlimit="10" stroke-linecap="round" stroke-linejoin="round"/>
<path d="M25.8754 4L26.6591 4.57494C28.8313 6.16837 30.1146 8.70119 30.1146 11.3951C30.1146 13.9383 28.0529 16 25.5097 16H24.1115" stroke="white" stroke-width="1.25" stroke-miterlimit="10" stroke-linecap="round" stroke-linejoin="round"/>
<path d="M7.88855 0.625V2.56294" stroke="white" stroke-width="1.25" stroke-miterlimit="10" stroke-linecap="round" stroke-linejoin="round"/>
<path d="M2.1106 1.75464L3.48097 3.12501" stroke="white" stroke-width="1.25" stroke-miterlimit="10" stroke-linecap="round" stroke-linejoin="round"/>
<path d="M13.6665 1.75464L12.2961 3.12501" stroke="white" stroke-width="1.25" stroke-miterlimit="10" stroke-linecap="round" stroke-linejoin="round"/>
<path d="M6.51941 10.4297L7.45422 11.3646L7.45441 11.3644L7.4546 11.3646L9.48053 9.33862" stroke="white" stroke-width="1.25" stroke-miterlimit="10" stroke-linecap="round" stroke-linejoin="round"/>
</g>
<defs>
<clipPath id="clip0_6_331">
<rect width="32" height="32" fill="white"/>
</clipPath>
</defs>
</svg>
