<svg width="32" height="32" viewBox="0 0 32 32" fill="none" xmlns="http://www.w3.org/2000/svg">
<g clip-path="url(#clip0_0_11)">
<path d="M20.1936 20.1939C21.0828 19.8774 21.9174 19.3634 22.6291 18.6516L29.1404 12.1404C31.7032 9.57755 31.7032 5.42242 29.1404 2.85961C26.5776 0.296797 22.4224 0.296797 19.8596 2.85961L13.3484 9.37086C10.7856 11.9337 10.7856 16.0888 13.3484 18.6516C14.0601 19.3633 14.8946 19.8774 15.7837 20.1938" stroke="white" stroke-width="1.875" stroke-miterlimit="10"/>
<path d="M15.9999 15.9999C14.9033 14.9033 14.9034 13.119 15.9999 12.0224L22.5112 5.51117C23.6077 4.4146 25.3921 4.41454 26.4887 5.51117C27.5852 6.60773 27.5852 8.39204 26.4887 9.48867L20.1935 15.7839" stroke="white" stroke-width="1.875" stroke-miterlimit="10"/>
<path d="M3.52249 19.1968L2.85955 19.8597C0.296736 22.4225 0.296736 26.5777 2.85955 29.1405C5.42236 31.7033 9.57749 31.7033 12.1403 29.1405L12.8032 28.4775L10.1516 25.8259L9.48874 26.4888C8.39217 27.5854 6.60786 27.5855 5.51124 26.4888C4.41467 25.3923 4.41467 23.608 5.51124 22.5113L6.17417 21.8484L3.52249 19.1968Z" stroke="white" stroke-width="1.875" stroke-miterlimit="10"/>
<path d="M11.8064 11.8062C10.9172 12.1226 10.0826 12.6367 9.37088 13.3484L6.17419 16.5451L8.82582 19.1967L11.8064 16.2161" stroke="white" stroke-width="1.875" stroke-miterlimit="10"/>
<path d="M1.53381 14.5564L2.85963 15.8822" stroke="white" stroke-width="1.875" stroke-miterlimit="10"/>
<path d="M4.18542 11.9048L5.51124 13.2306" stroke="white" stroke-width="1.875" stroke-miterlimit="10"/>
<path d="M1.53381 9.25293L2.85963 10.5787" stroke="white" stroke-width="1.875" stroke-miterlimit="10"/>
<path d="M16.1179 29.1404L17.4437 30.4662" stroke="white" stroke-width="1.875" stroke-miterlimit="10"/>
<path d="M18.7695 26.4888L20.0953 27.8146" stroke="white" stroke-width="1.875" stroke-miterlimit="10"/>
<path d="M21.4211 29.1404L22.747 30.4662" stroke="white" stroke-width="1.875" stroke-miterlimit="10"/>
<path d="M16 16C17.0967 17.0966 17.0966 18.8808 16 19.9775L12.8033 23.1742L15.455 25.8258L18.6517 22.6291C21.2145 20.0663 21.2145 15.9112 18.6517 13.3483C17.94 12.6367 17.1054 12.1226 16.2163 11.8062" stroke="white" stroke-width="1.875" stroke-miterlimit="10"/>
</g>
<defs>
<clipPath id="clip0_0_11">
<rect width="32" height="32" fill="white"/>
</clipPath>
</defs>
</svg>
