<svg width="60" height="60" viewBox="0 0 60 60" fill="none" xmlns="http://www.w3.org/2000/svg">
<path d="M56.25 49.6875H55.3125V35.0625C56.3826 31.1665 56.539 27.0761 55.7694 23.1097C54.9998 19.1434 53.325 15.4083 50.8755 12.1952C48.4259 8.9821 45.2678 6.37782 41.6469 4.58516C38.0261 2.79251 34.0403 1.85986 30 1.85986C25.9597 1.85986 21.9739 2.79251 18.3531 4.58516C14.7322 6.37782 11.5741 8.9821 9.12453 12.1952C6.675 15.4083 5.00021 19.1434 4.23061 23.1097C3.46101 27.0761 3.61737 31.1665 4.6875 35.0625V49.6875H3.75C3.25318 49.689 2.77712 49.8871 2.42581 50.2384C2.0745 50.5897 1.87648 51.0657 1.875 51.5625V53.4375C1.875 54.6808 2.36886 55.873 3.24794 56.7521C4.12701 57.6312 5.3193 58.125 6.5625 58.125H53.4375C54.6807 58.125 55.873 57.6312 56.7521 56.7521C57.6311 55.873 58.125 54.6808 58.125 53.4375V51.5625C58.1235 51.0657 57.9255 50.5897 57.5742 50.2384C57.2229 49.8871 56.7468 49.689 56.25 49.6875ZM54.2906 26.1751C53.8558 25.617 53.3 25.165 52.665 24.8532C52.03 24.5414 51.3324 24.3779 50.625 24.375H46.875V20.625C46.8728 19.8798 46.5757 19.1657 46.0488 18.6388C45.5218 18.1118 44.8077 17.8148 44.0625 17.8125H42.0844C41.85 16.7157 41.5875 15.6657 41.2969 14.6625C43.7544 14.1019 46.1435 13.2751 48.4219 12.1969C51.8246 16.1075 53.8819 21.0074 54.2906 26.1751ZM6.5625 49.6875V29.0625C6.56473 28.3173 6.86176 27.6032 7.38872 27.0763C7.91569 26.5493 8.62976 26.2523 9.375 26.25H12.1875V28.125H9.375C9.12636 28.125 8.8879 28.2238 8.71209 28.3996C8.53627 28.5755 8.4375 28.8139 8.4375 29.0625V46.875C8.4375 47.1237 8.53627 47.3621 8.71209 47.538C8.8879 47.7138 9.12636 47.8125 9.375 47.8125H50.625C50.8736 47.8125 51.1121 47.7138 51.2879 47.538C51.4637 47.3621 51.5625 47.1237 51.5625 46.875V29.0625C51.5625 28.8139 51.4637 28.5755 51.2879 28.3996C51.1121 28.2238 50.8736 28.125 50.625 28.125H46.875V26.25H50.625C51.3702 26.2523 52.0843 26.5493 52.6113 27.0763C53.1382 27.6032 53.4353 28.3173 53.4375 29.0625V49.6875H6.5625ZM37.3406 51.5625C37.145 52.1101 36.7853 52.5839 36.3105 52.9195C35.8357 53.255 35.2689 53.4359 34.6875 53.4375H25.3125C24.7311 53.4359 24.1643 53.255 23.6895 52.9195C23.2147 52.5839 22.855 52.1101 22.6594 51.5625H37.3406ZM12.1875 30V45.9375H10.3125V30H12.1875ZM14.0625 45.9375V27.1875H45V45.9375H14.0625ZM46.875 45.9375V30H49.6875V45.9375H46.875ZM47.0813 10.7532C45.0371 11.6744 42.9041 12.3843 40.7156 12.8719C39.7225 9.70983 38.0087 6.82151 35.7094 4.43442C40.0022 5.47219 43.9327 7.65614 47.0813 10.7532ZM30.9375 3.8438C34.05 4.43442 36.9281 7.94067 38.8594 13.2563C36.2449 13.7347 33.5951 13.995 30.9375 14.0344V3.8438ZM30.9375 15.9094C33.7945 15.8663 36.6424 15.5777 39.45 15.0469C39.7125 15.9282 39.9562 16.8563 40.1625 17.8125H30.9375V15.9094ZM44.0625 19.6875C44.3111 19.6875 44.5496 19.7863 44.7254 19.9621C44.9012 20.138 45 20.3764 45 20.625V25.3125H14.0625V20.625C14.0625 20.3764 14.1613 20.138 14.3371 19.9621C14.5129 19.7863 14.7514 19.6875 15 19.6875H44.0625ZM19.8375 17.8125C20.0438 16.8563 20.2875 15.9282 20.55 15.0469C23.3576 15.5777 26.2055 15.8663 29.0625 15.9094V17.8125H19.8375ZM29.0625 3.8438V14.0344C26.4049 13.995 23.7551 13.7347 21.1406 13.2563C23.0719 7.94067 25.95 4.43442 29.0625 3.8438ZM24.2906 4.43442C21.9913 6.82151 20.2775 9.70983 19.2844 12.8719C17.0959 12.3843 14.9629 11.6744 12.9187 10.7532C16.0673 7.65614 19.9978 5.47219 24.2906 4.43442ZM11.5781 12.1969C13.8565 13.2751 16.2456 14.1019 18.7031 14.6625C18.4125 15.6657 18.15 16.7157 17.9156 17.8125H15C14.2548 17.8148 13.5407 18.1118 13.0137 18.6388C12.4868 19.1657 12.1897 19.8798 12.1875 20.625V24.375H9.375C8.66758 24.3779 7.97004 24.5414 7.33504 24.8532C6.70004 25.165 6.14416 25.617 5.70938 26.1751C6.11814 21.0074 8.17535 16.1075 11.5781 12.1969ZM56.25 53.4375C56.2478 54.1828 55.9507 54.8969 55.4238 55.4238C54.8968 55.9508 54.1827 56.2478 53.4375 56.25H6.5625C5.81726 56.2478 5.10319 55.9508 4.57622 55.4238C4.04926 54.8969 3.75223 54.1828 3.75 53.4375V51.5625H20.7188C20.9376 52.62 21.5137 53.5698 22.3502 54.2527C23.1867 54.9356 24.2327 55.3098 25.3125 55.3125H34.6875C35.7673 55.3098 36.8133 54.9356 37.6498 54.2527C38.4863 53.5698 39.0624 52.62 39.2812 51.5625H56.25V53.4375Z" fill="#E600AD"/>
<path d="M56.25 49.6875H55.3125V35.0625C56.3826 31.1665 56.539 27.0761 55.7694 23.1097C54.9998 19.1434 53.325 15.4083 50.8755 12.1952C48.4259 8.9821 45.2678 6.37782 41.6469 4.58516C38.0261 2.79251 34.0403 1.85986 30 1.85986C25.9597 1.85986 21.9739 2.79251 18.3531 4.58516C14.7322 6.37782 11.5741 8.9821 9.12453 12.1952C6.675 15.4083 5.00021 19.1434 4.23061 23.1097C3.46101 27.0761 3.61737 31.1665 4.6875 35.0625V49.6875H3.75C3.25318 49.689 2.77712 49.8871 2.42581 50.2384C2.0745 50.5897 1.87648 51.0657 1.875 51.5625V53.4375C1.875 54.6808 2.36886 55.873 3.24794 56.7521C4.12701 57.6312 5.3193 58.125 6.5625 58.125H53.4375C54.6807 58.125 55.873 57.6312 56.7521 56.7521C57.6311 55.873 58.125 54.6808 58.125 53.4375V51.5625C58.1235 51.0657 57.9255 50.5897 57.5742 50.2384C57.2229 49.8871 56.7468 49.689 56.25 49.6875ZM54.2906 26.1751C53.8558 25.617 53.3 25.165 52.665 24.8532C52.03 24.5414 51.3324 24.3779 50.625 24.375H46.875V20.625C46.8728 19.8798 46.5757 19.1657 46.0488 18.6388C45.5218 18.1118 44.8077 17.8148 44.0625 17.8125H42.0844C41.85 16.7157 41.5875 15.6657 41.2969 14.6625C43.7544 14.1019 46.1435 13.2751 48.4219 12.1969C51.8246 16.1075 53.8819 21.0074 54.2906 26.1751ZM6.5625 49.6875V29.0625C6.56473 28.3173 6.86176 27.6032 7.38872 27.0763C7.91569 26.5493 8.62976 26.2523 9.375 26.25H12.1875V28.125H9.375C9.12636 28.125 8.8879 28.2238 8.71209 28.3996C8.53627 28.5755 8.4375 28.8139 8.4375 29.0625V46.875C8.4375 47.1237 8.53627 47.3621 8.71209 47.538C8.8879 47.7138 9.12636 47.8125 9.375 47.8125H50.625C50.8736 47.8125 51.1121 47.7138 51.2879 47.538C51.4637 47.3621 51.5625 47.1237 51.5625 46.875V29.0625C51.5625 28.8139 51.4637 28.5755 51.2879 28.3996C51.1121 28.2238 50.8736 28.125 50.625 28.125H46.875V26.25H50.625C51.3702 26.2523 52.0843 26.5493 52.6113 27.0763C53.1382 27.6032 53.4353 28.3173 53.4375 29.0625V49.6875H6.5625ZM37.3406 51.5625C37.145 52.1101 36.7853 52.5839 36.3105 52.9195C35.8357 53.255 35.2689 53.4359 34.6875 53.4375H25.3125C24.7311 53.4359 24.1643 53.255 23.6895 52.9195C23.2147 52.5839 22.855 52.1101 22.6594 51.5625H37.3406ZM12.1875 30V45.9375H10.3125V30H12.1875ZM14.0625 45.9375V27.1875H45V45.9375H14.0625ZM46.875 45.9375V30H49.6875V45.9375H46.875ZM47.0813 10.7532C45.0371 11.6744 42.9041 12.3843 40.7156 12.8719C39.7225 9.70983 38.0087 6.82151 35.7094 4.43442C40.0022 5.47219 43.9327 7.65614 47.0813 10.7532ZM30.9375 3.8438C34.05 4.43442 36.9281 7.94067 38.8594 13.2563C36.2449 13.7347 33.5951 13.995 30.9375 14.0344V3.8438ZM30.9375 15.9094C33.7945 15.8663 36.6424 15.5777 39.45 15.0469C39.7125 15.9282 39.9562 16.8563 40.1625 17.8125H30.9375V15.9094ZM44.0625 19.6875C44.3111 19.6875 44.5496 19.7863 44.7254 19.9621C44.9012 20.138 45 20.3764 45 20.625V25.3125H14.0625V20.625C14.0625 20.3764 14.1613 20.138 14.3371 19.9621C14.5129 19.7863 14.7514 19.6875 15 19.6875H44.0625ZM19.8375 17.8125C20.0438 16.8563 20.2875 15.9282 20.55 15.0469C23.3576 15.5777 26.2055 15.8663 29.0625 15.9094V17.8125H19.8375ZM29.0625 3.8438V14.0344C26.4049 13.995 23.7551 13.7347 21.1406 13.2563C23.0719 7.94067 25.95 4.43442 29.0625 3.8438ZM24.2906 4.43442C21.9913 6.82151 20.2775 9.70983 19.2844 12.8719C17.0959 12.3843 14.9629 11.6744 12.9187 10.7532C16.0673 7.65614 19.9978 5.47219 24.2906 4.43442ZM11.5781 12.1969C13.8565 13.2751 16.2456 14.1019 18.7031 14.6625C18.4125 15.6657 18.15 16.7157 17.9156 17.8125H15C14.2548 17.8148 13.5407 18.1118 13.0137 18.6388C12.4868 19.1657 12.1897 19.8798 12.1875 20.625V24.375H9.375C8.66758 24.3779 7.97004 24.5414 7.33504 24.8532C6.70004 25.165 6.14416 25.617 5.70938 26.1751C6.11814 21.0074 8.17535 16.1075 11.5781 12.1969ZM56.25 53.4375C56.2478 54.1828 55.9507 54.8969 55.4238 55.4238C54.8968 55.9508 54.1827 56.2478 53.4375 56.25H6.5625C5.81726 56.2478 5.10319 55.9508 4.57622 55.4238C4.04926 54.8969 3.75223 54.1828 3.75 53.4375V51.5625H20.7188C20.9376 52.62 21.5137 53.5698 22.3502 54.2527C23.1867 54.9356 24.2327 55.3098 25.3125 55.3125H34.6875C35.7673 55.3098 36.8133 54.9356 37.6498 54.2527C38.4863 53.5698 39.0624 52.62 39.2812 51.5625H56.25V53.4375Z" fill="url(#paint0_radial_29_2147)" fill-opacity="0.5"/>
<path d="M15.9375 21.5625H17.8125V23.4375H15.9375V21.5625Z" fill="#E600AD"/>
<path d="M15.9375 21.5625H17.8125V23.4375H15.9375V21.5625Z" fill="url(#paint1_radial_29_2147)" fill-opacity="0.5"/>
<path d="M18.75 21.5625H20.625V23.4375H18.75V21.5625Z" fill="#E600AD"/>
<path d="M18.75 21.5625H20.625V23.4375H18.75V21.5625Z" fill="url(#paint2_radial_29_2147)" fill-opacity="0.5"/>
<path d="M21.5625 21.5625H23.4375V23.4375H21.5625V21.5625Z" fill="#E600AD"/>
<path d="M21.5625 21.5625H23.4375V23.4375H21.5625V21.5625Z" fill="url(#paint3_radial_29_2147)" fill-opacity="0.5"/>
<path d="M31.875 33.75H30.9375V31.875H29.0625V33.75H28.125C27.8764 33.75 27.6379 33.8488 27.4621 34.0246C27.2863 34.2004 27.1875 34.4389 27.1875 34.6875V42.1875C27.1875 42.4361 27.2863 42.6746 27.4621 42.8504C27.6379 43.0262 27.8764 43.125 28.125 43.125H29.0625V45H30.9375V43.125H31.875C32.1236 43.125 32.3621 43.0262 32.5379 42.8504C32.7137 42.6746 32.8125 42.4361 32.8125 42.1875V34.6875C32.8125 34.4389 32.7137 34.2004 32.5379 34.0246C32.3621 33.8488 32.1236 33.75 31.875 33.75ZM30.9375 41.25H29.0625V35.625H30.9375V41.25Z" fill="#E600AD"/>
<path d="M31.875 33.75H30.9375V31.875H29.0625V33.75H28.125C27.8764 33.75 27.6379 33.8488 27.4621 34.0246C27.2863 34.2004 27.1875 34.4389 27.1875 34.6875V42.1875C27.1875 42.4361 27.2863 42.6746 27.4621 42.8504C27.6379 43.0262 27.8764 43.125 28.125 43.125H29.0625V45H30.9375V43.125H31.875C32.1236 43.125 32.3621 43.0262 32.5379 42.8504C32.7137 42.6746 32.8125 42.4361 32.8125 42.1875V34.6875C32.8125 34.4389 32.7137 34.2004 32.5379 34.0246C32.3621 33.8488 32.1236 33.75 31.875 33.75ZM30.9375 41.25H29.0625V35.625H30.9375V41.25Z" fill="url(#paint4_radial_29_2147)" fill-opacity="0.5"/>
<path d="M22.5 30H21.5625V28.125H19.6875V30H18.75C18.5014 30 18.2629 30.0988 18.0871 30.2746C17.9113 30.4504 17.8125 30.6889 17.8125 30.9375V38.4375C17.8125 38.6861 17.9113 38.9246 18.0871 39.1004C18.2629 39.2762 18.5014 39.375 18.75 39.375H19.6875V41.25H21.5625V39.375H22.5C22.7486 39.375 22.9871 39.2762 23.1629 39.1004C23.3387 38.9246 23.4375 38.6861 23.4375 38.4375V30.9375C23.4375 30.6889 23.3387 30.4504 23.1629 30.2746C22.9871 30.0988 22.7486 30 22.5 30ZM21.5625 37.5H19.6875V31.875H21.5625V37.5Z" fill="#E600AD"/>
<path d="M22.5 30H21.5625V28.125H19.6875V30H18.75C18.5014 30 18.2629 30.0988 18.0871 30.2746C17.9113 30.4504 17.8125 30.6889 17.8125 30.9375V38.4375C17.8125 38.6861 17.9113 38.9246 18.0871 39.1004C18.2629 39.2762 18.5014 39.375 18.75 39.375H19.6875V41.25H21.5625V39.375H22.5C22.7486 39.375 22.9871 39.2762 23.1629 39.1004C23.3387 38.9246 23.4375 38.6861 23.4375 38.4375V30.9375C23.4375 30.6889 23.3387 30.4504 23.1629 30.2746C22.9871 30.0988 22.7486 30 22.5 30ZM21.5625 37.5H19.6875V31.875H21.5625V37.5Z" fill="url(#paint5_radial_29_2147)" fill-opacity="0.5"/>
<path d="M40.3125 30H39.375V28.125H37.5V30H36.5625C36.3139 30 36.0754 30.0988 35.8996 30.2746C35.7238 30.4504 35.625 30.6889 35.625 30.9375V38.4375C35.625 38.6861 35.7238 38.9246 35.8996 39.1004C36.0754 39.2762 36.3139 39.375 36.5625 39.375H37.5V41.25H39.375V39.375H40.3125C40.5611 39.375 40.7996 39.2762 40.9754 39.1004C41.1512 38.9246 41.25 38.6861 41.25 38.4375V30.9375C41.25 30.6889 41.1512 30.4504 40.9754 30.2746C40.7996 30.0988 40.5611 30 40.3125 30ZM39.375 37.5H37.5V31.875H39.375V37.5Z" fill="#E600AD"/>
<path d="M40.3125 30H39.375V28.125H37.5V30H36.5625C36.3139 30 36.0754 30.0988 35.8996 30.2746C35.7238 30.4504 35.625 30.6889 35.625 30.9375V38.4375C35.625 38.6861 35.7238 38.9246 35.8996 39.1004C36.0754 39.2762 36.3139 39.375 36.5625 39.375H37.5V41.25H39.375V39.375H40.3125C40.5611 39.375 40.7996 39.2762 40.9754 39.1004C41.1512 38.9246 41.25 38.6861 41.25 38.4375V30.9375C41.25 30.6889 41.1512 30.4504 40.9754 30.2746C40.7996 30.0988 40.5611 30 40.3125 30ZM39.375 37.5H37.5V31.875H39.375V37.5Z" fill="url(#paint6_radial_29_2147)" fill-opacity="0.5"/>
<defs>
<radialGradient id="paint0_radial_29_2147" cx="0" cy="0" r="1" gradientUnits="userSpaceOnUse" gradientTransform="translate(27.5342 58.1251) scale(38.1807 38.191)">
<stop stop-color="white"/>
<stop offset="1" stop-color="white" stop-opacity="0"/>
</radialGradient>
<radialGradient id="paint1_radial_29_2147" cx="0" cy="0" r="1" gradientUnits="userSpaceOnUse" gradientTransform="translate(16.7928 23.4375) scale(1.27269)">
<stop stop-color="white"/>
<stop offset="1" stop-color="white" stop-opacity="0"/>
</radialGradient>
<radialGradient id="paint2_radial_29_2147" cx="0" cy="0" r="1" gradientUnits="userSpaceOnUse" gradientTransform="translate(19.6053 23.4375) scale(1.27269)">
<stop stop-color="white"/>
<stop offset="1" stop-color="white" stop-opacity="0"/>
</radialGradient>
<radialGradient id="paint3_radial_29_2147" cx="0" cy="0" r="1" gradientUnits="userSpaceOnUse" gradientTransform="translate(22.4178 23.4375) scale(1.27269)">
<stop stop-color="white"/>
<stop offset="1" stop-color="white" stop-opacity="0"/>
</radialGradient>
<radialGradient id="paint4_radial_29_2147" cx="0" cy="0" r="1" gradientUnits="userSpaceOnUse" gradientTransform="translate(29.7534 45) scale(3.81807 8.90882)">
<stop stop-color="white"/>
<stop offset="1" stop-color="white" stop-opacity="0"/>
</radialGradient>
<radialGradient id="paint5_radial_29_2147" cx="0" cy="0" r="1" gradientUnits="userSpaceOnUse" gradientTransform="translate(20.3784 41.25) scale(3.81807 8.90882)">
<stop stop-color="white"/>
<stop offset="1" stop-color="white" stop-opacity="0"/>
</radialGradient>
<radialGradient id="paint6_radial_29_2147" cx="0" cy="0" r="1" gradientUnits="userSpaceOnUse" gradientTransform="translate(38.1909 41.25) scale(3.81807 8.90882)">
<stop stop-color="white"/>
<stop offset="1" stop-color="white" stop-opacity="0"/>
</radialGradient>
</defs>
</svg>
