<svg width="60" height="60" viewBox="0 0 60 60" fill="none" xmlns="http://www.w3.org/2000/svg">
<path d="M58.7281 38.4424C58.3189 37.2371 57.3432 36.3623 55.9807 35.9793C54.5167 35.5678 52.6145 35.7002 50.3263 36.3735L39.9347 39.4305C39.3981 38.3439 38.4143 37.4845 37.1541 37.1479L29.7612 35.1728C24.3576 31.3929 21.4636 32.4824 17.2093 34.5668C14.8533 35.7209 12.4711 36.8521 10.0446 37.9983L9.85363 37.564C9.29371 36.291 7.80168 35.7098 6.5282 36.2684L2.56785 38.0055C1.94711 38.2779 1.47074 38.7731 1.22652 39.4C0.982306 40.0268 0.998126 40.7139 1.27106 41.3344L8.35434 57.4371C8.76965 58.3818 9.69777 58.9453 10.6694 58.9453C11.0075 58.9453 11.3509 58.877 11.6796 58.7329L15.6399 56.9957C16.2606 56.7233 16.7371 56.2281 16.9813 55.6012C17.2255 54.9744 17.2097 54.2873 16.9368 53.6668L16.2456 52.0955L19.7798 50.374C20.7268 49.9125 21.6794 49.8307 22.6913 50.1237L31.0005 52.5295C31.6118 52.7066 32.2431 52.7823 32.8838 52.7823C35.0959 52.7822 37.4144 51.8781 39.363 51.1181C39.5344 51.0513 39.7026 50.9857 39.8671 50.9222L55.4536 44.9026C57.9836 43.9255 59.5443 40.8463 58.7281 38.4424ZM15.4526 55.0056C15.3675 55.2238 15.2001 55.397 14.9808 55.4932L11.0207 57.2304C10.5742 57.4257 10.0521 57.2225 9.85598 56.7766L2.7727 40.6739C2.67637 40.4549 2.67016 40.2139 2.75524 39.9956C2.84031 39.7774 3.00777 39.6041 3.22692 39.508L7.18715 37.7708C7.30234 37.7203 7.42258 37.6964 7.54106 37.6964C7.88125 37.6964 8.20645 37.8939 8.35199 38.2246L15.4353 54.3273C15.5315 54.5463 15.5377 54.7873 15.4526 55.0056ZM54.8627 43.372L39.2761 49.3916C39.1098 49.4558 38.94 49.522 38.7668 49.5895C36.4847 50.4796 33.6448 51.5871 31.4568 50.9536L23.1476 48.5477C21.7468 48.1421 20.3719 48.2603 19.0612 48.8989L15.5846 50.5925L10.7055 39.5006C13.1514 38.3453 15.5527 37.2052 17.931 36.0401C21.8989 34.0961 24.1904 33.2384 28.9345 36.5971C29.0139 36.6533 29.1027 36.695 29.1967 36.7201L36.7306 38.7329C38.1768 39.1193 39.0389 40.6102 38.6527 42.0563C38.2662 43.5025 36.775 44.3646 35.3291 43.9782L25.3169 41.3034C24.8798 41.1865 24.4297 41.4465 24.3127 41.8842C24.1957 42.3219 24.4558 42.7714 24.8935 42.8884L34.9057 45.5632C37.2264 46.1836 39.6179 44.7996 40.2378 42.4796C40.3691 41.9878 40.4105 41.4927 40.3721 41.0121L50.7893 37.9477C54.2268 36.9364 56.6139 37.3185 57.1747 38.9701C57.7062 40.5356 56.5609 42.7161 54.8627 43.372ZM29.9977 9.37898C32.2929 9.37898 34.1602 7.51172 34.1602 5.21648C34.1602 2.9216 32.2929 1.05469 29.9977 1.05469C27.7025 1.05469 25.8352 2.92172 25.8352 5.2166C25.8353 7.51172 27.7026 9.37898 29.9977 9.37898ZM29.9977 2.69531C31.3882 2.69531 32.5196 3.82629 32.5196 5.2166C32.5196 6.60715 31.3884 7.73848 29.9977 7.73848C28.607 7.73848 27.4758 6.60727 27.4758 5.2166C27.4759 3.82629 28.6071 2.69531 29.9977 2.69531ZM28.1275 21.4431L27.667 22.6126L23.401 22.8731C23.0645 22.8938 22.775 23.1179 22.6709 23.4384C22.5668 23.7589 22.6691 24.1105 22.9293 24.3248L26.2274 27.0431L25.1569 31.1809C25.0725 31.5071 25.1963 31.8519 25.469 32.05C25.6124 32.1541 25.7816 32.2066 25.9511 32.2066C26.104 32.2066 26.2572 32.164 26.392 32.0781L29.9963 29.7813L33.6007 32.0781C33.8849 32.259 34.2509 32.2479 34.5237 32.05C34.7964 31.8519 34.9202 31.5071 34.8358 31.1809L33.7653 27.0431L37.0634 24.3248C37.3236 24.1105 37.426 23.7589 37.3218 23.4384C37.2176 23.1179 36.9282 22.8938 36.5917 22.8731L32.3257 22.6126L31.8652 21.4433C35.0329 21.1447 38.0492 20.0467 38.0492 17.7154C38.0492 13.2759 34.4375 9.66422 29.998 9.66422C25.5584 9.66422 21.9464 13.2759 21.9464 17.7154C21.9461 20.046 24.9611 21.1441 28.1275 21.4431ZM34.4123 24.3838L32.3182 26.1097C32.0722 26.3125 31.966 26.6395 32.0458 26.9481L32.7256 29.5753L30.437 28.117C30.3026 28.0314 30.1495 27.9885 29.9962 27.9885C29.8429 27.9885 29.6898 28.0312 29.5553 28.117L27.267 29.5752L27.9467 26.9481C28.0265 26.6394 27.9202 26.3125 27.6742 26.1097L25.5802 24.3838L28.2888 24.2184C28.607 24.199 28.8852 23.9968 29.0021 23.7001L29.9962 21.1754L30.9905 23.7002C31.1072 23.9968 31.3854 24.199 31.7037 24.2184L34.4123 24.3838ZM29.9977 11.3048C33.5324 11.3048 36.4082 14.1806 36.4082 17.7154C36.4082 18.7475 34.1794 19.6486 31.2368 19.8485L30.7593 18.6359C30.6358 18.3223 30.3331 18.1161 29.9961 18.1161C29.659 18.1161 29.3563 18.3223 29.2327 18.636L28.7553 19.8483C25.8142 19.648 23.5866 18.7471 23.5866 17.7154C23.5867 14.1806 26.4626 11.3048 29.9977 11.3048ZM7.97055 19.8713C9.14805 20.3047 10.7147 20.5434 12.3822 20.5434C15.5304 20.5434 19.207 19.6772 19.207 17.2361C19.207 13.6218 16.3824 10.6548 12.825 10.4257C14.5995 10.2068 15.9777 8.68992 15.9777 6.85734C15.9777 4.875 14.3648 3.26215 12.3822 3.26215C10.3996 3.26215 8.78664 4.875 8.78664 6.85734C8.78664 8.69004 10.165 10.2068 11.9393 10.4257C8.38141 10.6545 5.55707 13.6215 5.55707 17.2361C5.55719 18.0328 5.9759 19.1368 7.97055 19.8713ZM10.4273 6.85734C10.4273 5.77969 11.3042 4.90277 12.3822 4.90277C13.4602 4.90277 14.3371 5.77957 14.3371 6.85734C14.3371 7.93523 13.4602 8.81227 12.3822 8.81227C11.3042 8.81227 10.4273 7.93523 10.4273 6.85734ZM12.3822 12.0521C15.2407 12.0521 17.5662 14.3777 17.5662 17.2361C17.5662 18.0245 15.4372 18.9028 12.3821 18.9028C9.32688 18.9028 7.19781 18.0245 7.19781 17.2361C7.19781 14.3777 9.52352 12.0521 12.3822 12.0521ZM53.5445 25.074C53.4404 24.7535 53.1509 24.5293 52.8145 24.5087L49.566 24.3104L48.3735 21.2824C48.25 20.9687 47.9473 20.7626 47.6103 20.7626C47.2732 20.7626 46.9705 20.9687 46.847 21.2824L45.6545 24.3104L42.4062 24.5087C42.0698 24.5293 41.7802 24.7535 41.6761 25.074C41.5721 25.3945 41.6745 25.7462 41.9345 25.9605L44.446 28.0302L43.6308 31.1809C43.5464 31.5071 43.6702 31.8519 43.9429 32.05C44.0863 32.1543 44.2555 32.2066 44.425 32.2066C44.5779 32.2066 44.7311 32.164 44.8659 32.0781L47.6103 30.3293L50.3548 32.0781C50.6391 32.259 51.005 32.2479 51.2778 32.05C51.5505 31.8519 51.6742 31.5071 51.5898 31.1809L50.7747 28.0302L53.2861 25.9605C53.5462 25.7463 53.6487 25.3946 53.5445 25.074ZM49.328 27.0966C49.0819 27.2993 48.9757 27.6264 49.0555 27.935L49.4799 29.5752L48.0513 28.6648C47.9168 28.5791 47.7637 28.5362 47.6104 28.5362C47.4571 28.5362 47.3041 28.579 47.1695 28.6648L45.741 29.5751L46.1654 27.935C46.2452 27.6264 46.1389 27.2993 45.8929 27.0966L44.5858 26.0194L46.2766 25.9161C46.5948 25.8967 46.8731 25.6945 46.9898 25.3978L47.6105 23.8218L48.2313 25.3978C48.348 25.6945 48.6262 25.8967 48.9445 25.9161L50.6354 26.0194L49.328 27.0966ZM18.3161 25.074C18.2119 24.7535 17.9225 24.5293 17.586 24.5087L14.3377 24.3104L13.1453 21.2824C13.0217 20.9687 12.719 20.7626 12.382 20.7626C12.0449 20.7626 11.7422 20.9687 11.6186 21.2824L10.4262 24.3104L7.17789 24.5087C6.84145 24.5293 6.55188 24.7535 6.44781 25.074C6.34375 25.3945 6.44617 25.7462 6.70621 25.9605L9.21766 28.0302L8.4025 31.1809C8.31813 31.5071 8.44188 31.8519 8.71457 32.05C8.85801 32.1543 9.02723 32.2066 9.19668 32.2066C9.34961 32.2066 9.50277 32.164 9.63754 32.0781L12.382 30.3293L15.1265 32.0781C15.4108 32.259 15.7766 32.2479 16.0495 32.05C16.3221 31.8519 16.4459 31.5071 16.3615 31.1809L15.5464 28.0302L18.0577 25.9604C18.3179 25.7462 18.4203 25.3946 18.3161 25.074ZM14.0996 27.0967C13.8535 27.2994 13.7473 27.6265 13.8271 27.935L14.2514 29.5752L12.8228 28.6648C12.6884 28.5791 12.5352 28.5362 12.382 28.5362C12.2287 28.5362 12.0756 28.579 11.9411 28.6648L10.5126 29.5751L10.9369 27.935C11.0167 27.6264 10.9104 27.2993 10.6645 27.0966L9.35734 26.0194L11.0481 25.9161C11.3664 25.8967 11.6446 25.6945 11.7614 25.3978L12.3821 23.8218L13.0027 25.3978C13.1195 25.6945 13.3977 25.8967 13.716 25.9161L15.4069 26.0194L14.0996 27.0967ZM43.1989 19.8713C44.3764 20.3047 45.9431 20.5434 47.6105 20.5434C50.7588 20.5434 54.4353 19.6772 54.4353 17.2361C54.4353 13.6218 51.6107 10.6548 48.0534 10.4257C49.8278 10.2068 51.2061 8.68992 51.2061 6.85734C51.2061 4.875 49.5931 3.26215 47.6105 3.26215C45.6279 3.26215 44.0151 4.875 44.0151 6.85734C44.0151 8.69004 45.3934 10.2068 47.1678 10.4257C43.6098 10.6545 40.7855 13.6215 40.7855 17.2361C40.7855 18.0328 41.2042 19.1368 43.1989 19.8713ZM45.6557 6.85734C45.6557 5.77969 46.5326 4.90277 47.6106 4.90277C48.6886 4.90277 49.5656 5.77957 49.5656 6.85734C49.5656 7.93523 48.6886 8.81227 47.6106 8.81227C46.5326 8.81227 45.6557 7.93523 45.6557 6.85734ZM47.6105 12.0521C50.4691 12.0521 52.7945 14.3777 52.7945 17.2361C52.7945 18.0245 50.6655 18.9028 47.6104 18.9028C44.5552 18.9028 42.4261 18.0245 42.4261 17.2361C42.4261 14.3777 44.7518 12.0521 47.6105 12.0521Z" fill="#E600AD"/>
<path d="M58.7281 38.4424C58.3189 37.2371 57.3432 36.3623 55.9807 35.9793C54.5167 35.5678 52.6145 35.7002 50.3263 36.3735L39.9347 39.4305C39.3981 38.3439 38.4143 37.4845 37.1541 37.1479L29.7612 35.1728C24.3576 31.3929 21.4636 32.4824 17.2093 34.5668C14.8533 35.7209 12.4711 36.8521 10.0446 37.9983L9.85363 37.564C9.29371 36.291 7.80168 35.7098 6.5282 36.2684L2.56785 38.0055C1.94711 38.2779 1.47074 38.7731 1.22652 39.4C0.982306 40.0268 0.998126 40.7139 1.27106 41.3344L8.35434 57.4371C8.76965 58.3818 9.69777 58.9453 10.6694 58.9453C11.0075 58.9453 11.3509 58.877 11.6796 58.7329L15.6399 56.9957C16.2606 56.7233 16.7371 56.2281 16.9813 55.6012C17.2255 54.9744 17.2097 54.2873 16.9368 53.6668L16.2456 52.0955L19.7798 50.374C20.7268 49.9125 21.6794 49.8307 22.6913 50.1237L31.0005 52.5295C31.6118 52.7066 32.2431 52.7823 32.8838 52.7823C35.0959 52.7822 37.4144 51.8781 39.363 51.1181C39.5344 51.0513 39.7026 50.9857 39.8671 50.9222L55.4536 44.9026C57.9836 43.9255 59.5443 40.8463 58.7281 38.4424ZM15.4526 55.0056C15.3675 55.2238 15.2001 55.397 14.9808 55.4932L11.0207 57.2304C10.5742 57.4257 10.0521 57.2225 9.85598 56.7766L2.7727 40.6739C2.67637 40.4549 2.67016 40.2139 2.75524 39.9956C2.84031 39.7774 3.00777 39.6041 3.22692 39.508L7.18715 37.7708C7.30234 37.7203 7.42258 37.6964 7.54106 37.6964C7.88125 37.6964 8.20645 37.8939 8.35199 38.2246L15.4353 54.3273C15.5315 54.5463 15.5377 54.7873 15.4526 55.0056ZM54.8627 43.372L39.2761 49.3916C39.1098 49.4558 38.94 49.522 38.7668 49.5895C36.4847 50.4796 33.6448 51.5871 31.4568 50.9536L23.1476 48.5477C21.7468 48.1421 20.3719 48.2603 19.0612 48.8989L15.5846 50.5925L10.7055 39.5006C13.1514 38.3453 15.5527 37.2052 17.931 36.0401C21.8989 34.0961 24.1904 33.2384 28.9345 36.5971C29.0139 36.6533 29.1027 36.695 29.1967 36.7201L36.7306 38.7329C38.1768 39.1193 39.0389 40.6102 38.6527 42.0563C38.2662 43.5025 36.775 44.3646 35.3291 43.9782L25.3169 41.3034C24.8798 41.1865 24.4297 41.4465 24.3127 41.8842C24.1957 42.3219 24.4558 42.7714 24.8935 42.8884L34.9057 45.5632C37.2264 46.1836 39.6179 44.7996 40.2378 42.4796C40.3691 41.9878 40.4105 41.4927 40.3721 41.0121L50.7893 37.9477C54.2268 36.9364 56.6139 37.3185 57.1747 38.9701C57.7062 40.5356 56.5609 42.7161 54.8627 43.372ZM29.9977 9.37898C32.2929 9.37898 34.1602 7.51172 34.1602 5.21648C34.1602 2.9216 32.2929 1.05469 29.9977 1.05469C27.7025 1.05469 25.8352 2.92172 25.8352 5.2166C25.8353 7.51172 27.7026 9.37898 29.9977 9.37898ZM29.9977 2.69531C31.3882 2.69531 32.5196 3.82629 32.5196 5.2166C32.5196 6.60715 31.3884 7.73848 29.9977 7.73848C28.607 7.73848 27.4758 6.60727 27.4758 5.2166C27.4759 3.82629 28.6071 2.69531 29.9977 2.69531ZM28.1275 21.4431L27.667 22.6126L23.401 22.8731C23.0645 22.8938 22.775 23.1179 22.6709 23.4384C22.5668 23.7589 22.6691 24.1105 22.9293 24.3248L26.2274 27.0431L25.1569 31.1809C25.0725 31.5071 25.1963 31.8519 25.469 32.05C25.6124 32.1541 25.7816 32.2066 25.9511 32.2066C26.104 32.2066 26.2572 32.164 26.392 32.0781L29.9963 29.7813L33.6007 32.0781C33.8849 32.259 34.2509 32.2479 34.5237 32.05C34.7964 31.8519 34.9202 31.5071 34.8358 31.1809L33.7653 27.0431L37.0634 24.3248C37.3236 24.1105 37.426 23.7589 37.3218 23.4384C37.2176 23.1179 36.9282 22.8938 36.5917 22.8731L32.3257 22.6126L31.8652 21.4433C35.0329 21.1447 38.0492 20.0467 38.0492 17.7154C38.0492 13.2759 34.4375 9.66422 29.998 9.66422C25.5584 9.66422 21.9464 13.2759 21.9464 17.7154C21.9461 20.046 24.9611 21.1441 28.1275 21.4431ZM34.4123 24.3838L32.3182 26.1097C32.0722 26.3125 31.966 26.6395 32.0458 26.9481L32.7256 29.5753L30.437 28.117C30.3026 28.0314 30.1495 27.9885 29.9962 27.9885C29.8429 27.9885 29.6898 28.0312 29.5553 28.117L27.267 29.5752L27.9467 26.9481C28.0265 26.6394 27.9202 26.3125 27.6742 26.1097L25.5802 24.3838L28.2888 24.2184C28.607 24.199 28.8852 23.9968 29.0021 23.7001L29.9962 21.1754L30.9905 23.7002C31.1072 23.9968 31.3854 24.199 31.7037 24.2184L34.4123 24.3838ZM29.9977 11.3048C33.5324 11.3048 36.4082 14.1806 36.4082 17.7154C36.4082 18.7475 34.1794 19.6486 31.2368 19.8485L30.7593 18.6359C30.6358 18.3223 30.3331 18.1161 29.9961 18.1161C29.659 18.1161 29.3563 18.3223 29.2327 18.636L28.7553 19.8483C25.8142 19.648 23.5866 18.7471 23.5866 17.7154C23.5867 14.1806 26.4626 11.3048 29.9977 11.3048ZM7.97055 19.8713C9.14805 20.3047 10.7147 20.5434 12.3822 20.5434C15.5304 20.5434 19.207 19.6772 19.207 17.2361C19.207 13.6218 16.3824 10.6548 12.825 10.4257C14.5995 10.2068 15.9777 8.68992 15.9777 6.85734C15.9777 4.875 14.3648 3.26215 12.3822 3.26215C10.3996 3.26215 8.78664 4.875 8.78664 6.85734C8.78664 8.69004 10.165 10.2068 11.9393 10.4257C8.38141 10.6545 5.55707 13.6215 5.55707 17.2361C5.55719 18.0328 5.9759 19.1368 7.97055 19.8713ZM10.4273 6.85734C10.4273 5.77969 11.3042 4.90277 12.3822 4.90277C13.4602 4.90277 14.3371 5.77957 14.3371 6.85734C14.3371 7.93523 13.4602 8.81227 12.3822 8.81227C11.3042 8.81227 10.4273 7.93523 10.4273 6.85734ZM12.3822 12.0521C15.2407 12.0521 17.5662 14.3777 17.5662 17.2361C17.5662 18.0245 15.4372 18.9028 12.3821 18.9028C9.32688 18.9028 7.19781 18.0245 7.19781 17.2361C7.19781 14.3777 9.52352 12.0521 12.3822 12.0521ZM53.5445 25.074C53.4404 24.7535 53.1509 24.5293 52.8145 24.5087L49.566 24.3104L48.3735 21.2824C48.25 20.9687 47.9473 20.7626 47.6103 20.7626C47.2732 20.7626 46.9705 20.9687 46.847 21.2824L45.6545 24.3104L42.4062 24.5087C42.0698 24.5293 41.7802 24.7535 41.6761 25.074C41.5721 25.3945 41.6745 25.7462 41.9345 25.9605L44.446 28.0302L43.6308 31.1809C43.5464 31.5071 43.6702 31.8519 43.9429 32.05C44.0863 32.1543 44.2555 32.2066 44.425 32.2066C44.5779 32.2066 44.7311 32.164 44.8659 32.0781L47.6103 30.3293L50.3548 32.0781C50.6391 32.259 51.005 32.2479 51.2778 32.05C51.5505 31.8519 51.6742 31.5071 51.5898 31.1809L50.7747 28.0302L53.2861 25.9605C53.5462 25.7463 53.6487 25.3946 53.5445 25.074ZM49.328 27.0966C49.0819 27.2993 48.9757 27.6264 49.0555 27.935L49.4799 29.5752L48.0513 28.6648C47.9168 28.5791 47.7637 28.5362 47.6104 28.5362C47.4571 28.5362 47.3041 28.579 47.1695 28.6648L45.741 29.5751L46.1654 27.935C46.2452 27.6264 46.1389 27.2993 45.8929 27.0966L44.5858 26.0194L46.2766 25.9161C46.5948 25.8967 46.8731 25.6945 46.9898 25.3978L47.6105 23.8218L48.2313 25.3978C48.348 25.6945 48.6262 25.8967 48.9445 25.9161L50.6354 26.0194L49.328 27.0966ZM18.3161 25.074C18.2119 24.7535 17.9225 24.5293 17.586 24.5087L14.3377 24.3104L13.1453 21.2824C13.0217 20.9687 12.719 20.7626 12.382 20.7626C12.0449 20.7626 11.7422 20.9687 11.6186 21.2824L10.4262 24.3104L7.17789 24.5087C6.84145 24.5293 6.55188 24.7535 6.44781 25.074C6.34375 25.3945 6.44617 25.7462 6.70621 25.9605L9.21766 28.0302L8.4025 31.1809C8.31813 31.5071 8.44188 31.8519 8.71457 32.05C8.85801 32.1543 9.02723 32.2066 9.19668 32.2066C9.34961 32.2066 9.50277 32.164 9.63754 32.0781L12.382 30.3293L15.1265 32.0781C15.4108 32.259 15.7766 32.2479 16.0495 32.05C16.3221 31.8519 16.4459 31.5071 16.3615 31.1809L15.5464 28.0302L18.0577 25.9604C18.3179 25.7462 18.4203 25.3946 18.3161 25.074ZM14.0996 27.0967C13.8535 27.2994 13.7473 27.6265 13.8271 27.935L14.2514 29.5752L12.8228 28.6648C12.6884 28.5791 12.5352 28.5362 12.382 28.5362C12.2287 28.5362 12.0756 28.579 11.9411 28.6648L10.5126 29.5751L10.9369 27.935C11.0167 27.6264 10.9104 27.2993 10.6645 27.0966L9.35734 26.0194L11.0481 25.9161C11.3664 25.8967 11.6446 25.6945 11.7614 25.3978L12.3821 23.8218L13.0027 25.3978C13.1195 25.6945 13.3977 25.8967 13.716 25.9161L15.4069 26.0194L14.0996 27.0967ZM43.1989 19.8713C44.3764 20.3047 45.9431 20.5434 47.6105 20.5434C50.7588 20.5434 54.4353 19.6772 54.4353 17.2361C54.4353 13.6218 51.6107 10.6548 48.0534 10.4257C49.8278 10.2068 51.2061 8.68992 51.2061 6.85734C51.2061 4.875 49.5931 3.26215 47.6105 3.26215C45.6279 3.26215 44.0151 4.875 44.0151 6.85734C44.0151 8.69004 45.3934 10.2068 47.1678 10.4257C43.6098 10.6545 40.7855 13.6215 40.7855 17.2361C40.7855 18.0328 41.2042 19.1368 43.1989 19.8713ZM45.6557 6.85734C45.6557 5.77969 46.5326 4.90277 47.6106 4.90277C48.6886 4.90277 49.5656 5.77957 49.5656 6.85734C49.5656 7.93523 48.6886 8.81227 47.6106 8.81227C46.5326 8.81227 45.6557 7.93523 45.6557 6.85734ZM47.6105 12.0521C50.4691 12.0521 52.7945 14.3777 52.7945 17.2361C52.7945 18.0245 50.6655 18.9028 47.6104 18.9028C44.5552 18.9028 42.4261 18.0245 42.4261 17.2361C42.4261 14.3777 44.7518 12.0521 47.6105 12.0521Z" fill="url(#paint0_radial_29_2145)" fill-opacity="0.5"/>
<defs>
<radialGradient id="paint0_radial_29_2145" cx="0" cy="0" r="1" gradientUnits="userSpaceOnUse" gradientTransform="translate(27.4624 58.9453) scale(39.2951 39.2943)">
<stop stop-color="white"/>
<stop offset="1" stop-color="white" stop-opacity="0"/>
</radialGradient>
</defs>
</svg>
