<svg width="32" height="32" viewBox="0 0 32 32" fill="none" xmlns="http://www.w3.org/2000/svg">
<g clip-path="url(#clip0_57_1826)">
<path d="M29.6957 13.0847C29.3372 11.4093 28.6744 9.81391 27.7402 8.37771C28.096 7.8045 28.2474 7.12785 28.17 6.45767C28.0927 5.78749 27.7909 5.16317 27.3139 4.68613C26.8369 4.20909 26.2125 3.90737 25.5424 3.82998C24.8722 3.75258 24.1955 3.90407 23.6223 4.25982C22.1861 3.32558 20.5907 2.66276 18.9153 2.30429C18.7595 1.64818 18.387 1.06379 17.858 0.645631C17.329 0.227474 16.6743 0 16 0C15.3257 0 14.671 0.227474 14.142 0.645631C13.613 1.06379 13.2405 1.64818 13.0847 2.30429C11.4093 2.66276 9.81391 3.32556 8.37771 4.25979C7.80451 3.90406 7.12786 3.75259 6.4577 3.83C5.78754 3.9074 5.16324 4.20912 4.68621 4.68614C4.20918 5.16317 3.90746 5.78747 3.83006 6.45763C3.75266 7.1278 3.90413 7.80444 4.25985 8.37765C3.3256 9.81386 2.66277 11.4093 2.30429 13.0847C1.64818 13.2404 1.06379 13.613 0.645631 14.142C0.227474 14.671 0 15.3257 0 16C0 16.6743 0.227474 17.329 0.645631 17.858C1.06379 18.387 1.64818 18.7595 2.30429 18.9153C2.66276 20.5907 3.32556 22.1861 4.25979 23.6223C3.90406 24.1955 3.75259 24.8721 3.83 25.5423C3.9074 26.2125 4.20912 26.8368 4.68614 27.3138C5.16317 27.7908 5.78747 28.0925 6.45764 28.1699C7.1278 28.2473 7.80444 28.0959 8.37765 27.7401C9.81386 28.6744 11.4093 29.3372 13.0847 29.6957C13.2404 30.3518 13.613 30.9362 14.142 31.3544C14.671 31.7725 15.3257 32 16 32C16.6743 32 17.329 31.7725 17.858 31.3544C18.387 30.9362 18.7595 30.3518 18.9153 29.6957C20.5907 29.3372 22.1861 28.6744 23.6222 27.7402C24.1955 28.096 24.8721 28.2475 25.5423 28.1701C26.2125 28.0927 26.8368 27.791 27.3138 27.3139C27.7909 26.8369 28.0926 26.2126 28.17 25.5424C28.2474 24.8722 28.0959 24.1955 27.7401 23.6223C28.6744 22.1861 29.3372 20.5907 29.6957 18.9153C30.3518 18.7595 30.9362 18.387 31.3544 17.858C31.7725 17.329 32 16.6743 32 16C32 15.3257 31.7725 14.671 31.3544 14.142C30.9362 13.613 30.3518 13.2405 29.6957 13.0847ZM23.0708 23.071C22.6753 23.4693 22.3996 23.9706 22.2752 24.518C22.1508 25.0653 22.1827 25.6365 22.3672 26.1666C21.2371 26.8762 19.9965 27.3923 18.6964 27.6936C18.4518 27.1862 18.0691 26.7581 17.5921 26.4585C17.1151 26.1589 16.5633 26 16 26C15.4367 26 14.8849 26.1589 14.4079 26.4585C13.9309 26.7581 13.5481 27.1862 13.3036 27.6936C12.0035 27.3923 10.7629 26.8762 9.63274 26.1666C9.81919 25.6367 9.85206 25.0649 9.72755 24.5172C9.60303 23.9695 9.32622 23.4681 8.92903 23.0709C8.53184 22.6737 8.03046 22.3969 7.48273 22.2723C6.93499 22.1478 6.36321 22.1807 5.83334 22.3671C5.12374 21.237 4.60768 19.9964 4.30642 18.6964C4.81381 18.4519 5.2419 18.0691 5.54148 17.5921C5.84106 17.1151 5.99999 16.5633 5.99999 16C5.99999 15.4367 5.84106 14.8849 5.54148 14.4079C5.2419 13.9309 4.81381 13.5481 4.30642 13.3036C4.60767 12.0036 5.12374 10.7629 5.83337 9.63281C6.363 9.82134 6.93534 9.85527 7.48353 9.73063C8.03173 9.606 8.53314 9.32794 8.92919 8.92895C9.3247 8.53071 9.60037 8.02936 9.72477 7.48204C9.84916 6.93473 9.81729 6.36348 9.63277 5.8334C10.7629 5.12376 12.0035 4.60768 13.3036 4.3064C13.5481 4.81379 13.9309 5.24188 14.4079 5.54147C14.8849 5.84105 15.4367 5.99997 16 5.99997C16.5633 5.99997 17.1151 5.84105 17.5921 5.54147C18.0691 5.24188 18.4518 4.81379 18.6964 4.3064C19.9965 4.60767 21.2371 5.12376 22.3672 5.8334C22.1827 6.36353 22.1509 6.93484 22.2753 7.4822C22.3997 8.02956 22.6755 8.53094 23.071 8.9292C23.4671 9.32813 23.9685 9.60614 24.5166 9.73073C25.0648 9.85532 25.637 9.82136 26.1666 9.63281C26.8762 10.7629 27.3923 12.0036 27.6936 13.3036C27.1862 13.5481 26.7581 13.9309 26.4585 14.4079C26.1589 14.8849 26 15.4367 26 16C26 16.5633 26.1589 17.1151 26.4585 17.5921C26.7581 18.0691 27.1862 18.4519 27.6936 18.6964C27.3923 19.9964 26.8762 21.2371 26.1666 22.3672C25.6365 22.1826 25.0652 22.1508 24.5178 22.2752C23.9704 22.3997 23.469 22.6754 23.0708 23.071ZM25.8994 6.10034C26.0393 6.24018 26.1346 6.41835 26.1732 6.61234C26.2118 6.80633 26.192 7.00741 26.1164 7.19017C26.0407 7.37292 25.9126 7.52913 25.7481 7.63905C25.5837 7.74897 25.3903 7.80765 25.1925 7.80769C24.9948 7.80772 24.8014 7.7491 24.6369 7.63924C24.4724 7.52938 24.3442 7.37321 24.2685 7.19049C24.1928 7.00776 24.1729 6.80668 24.2115 6.61268C24.25 6.41868 24.3453 6.24047 24.4851 6.10058C24.6728 5.91342 24.9271 5.8083 25.1922 5.80826C25.4573 5.80821 25.7116 5.91324 25.8994 6.10034ZM16 2C16.1978 2 16.3911 2.05865 16.5556 2.16853C16.72 2.27841 16.8482 2.43459 16.9239 2.61731C16.9996 2.80004 17.0194 3.00111 16.9808 3.19509C16.9422 3.38907 16.847 3.56725 16.7071 3.7071C16.5672 3.84696 16.3891 3.9422 16.1951 3.98078C16.0011 4.01937 15.8 3.99957 15.6173 3.92388C15.4346 3.84819 15.2784 3.72002 15.1685 3.55557C15.0586 3.39112 15 3.19778 15 3C15.0003 2.73486 15.1057 2.48066 15.2932 2.29318C15.4807 2.1057 15.7349 2.00026 16 2ZM6.10033 6.10058C6.24017 5.9607 6.41835 5.86542 6.61234 5.8268C6.80633 5.78817 7.00741 5.80794 7.19016 5.8836C7.37291 5.95927 7.52913 6.08742 7.63904 6.25186C7.74896 6.4163 7.80765 6.60965 7.80768 6.80744C7.80772 7.00524 7.7491 7.1986 7.63924 7.36308C7.52938 7.52756 7.37321 7.65577 7.19048 7.73149C7.00776 7.80722 6.80668 7.82706 6.61268 7.7885C6.41868 7.74995 6.24046 7.65473 6.10058 7.51489C5.91339 7.32717 5.80825 7.07289 5.80821 6.80779C5.80816 6.54268 5.91321 6.28837 6.10033 6.10058ZM2.99999 15C3.19777 15 3.39111 15.0586 3.55556 15.1685C3.72001 15.2784 3.84818 15.4346 3.92387 15.6173C3.99956 15.8 4.01936 16.0011 3.98078 16.1951C3.94219 16.3891 3.84695 16.5673 3.7071 16.7071C3.56725 16.847 3.38906 16.9422 3.19508 16.9808C3.0011 17.0194 2.80004 16.9996 2.61731 16.9239C2.43458 16.8482 2.2784 16.72 2.16852 16.5556C2.05864 16.3911 1.99999 16.1978 1.99999 16C2.00026 15.7349 2.1057 15.4807 2.29318 15.2932C2.48066 15.1057 2.73486 15.0003 2.99999 15ZM6.10058 25.8997C5.96069 25.7598 5.86541 25.5816 5.82679 25.3877C5.78817 25.1937 5.80794 24.9926 5.8836 24.8098C5.95926 24.6271 6.08742 24.4709 6.25186 24.3609C6.4163 24.251 6.60964 24.1923 6.80744 24.1923C7.00523 24.1923 7.1986 24.2509 7.36308 24.3608C7.52756 24.4706 7.65576 24.6268 7.73149 24.8095C7.80721 24.9922 7.82705 25.1933 7.7885 25.3873C7.74994 25.5813 7.65473 25.7595 7.51489 25.8994C7.32715 26.0866 7.07288 26.1917 6.80778 26.1917C6.54269 26.1918 6.28838 26.0868 6.10058 25.8997ZM16 30C15.8022 30 15.6089 29.9414 15.4444 29.8315C15.28 29.7216 15.1518 29.5654 15.0761 29.3827C15.0004 29.2 14.9806 28.9989 15.0192 28.8049C15.0578 28.6109 15.153 28.4327 15.2929 28.2929C15.4327 28.153 15.6109 28.0578 15.8049 28.0192C15.9989 27.9806 16.1999 28.0004 16.3827 28.0761C16.5654 28.1518 16.7216 28.28 16.8315 28.4444C16.9413 28.6089 17 28.8022 17 29C16.9997 29.2651 16.8943 29.5193 16.7068 29.7068C16.5193 29.8943 16.2651 29.9997 16 30ZM25.8997 25.8994C25.7598 26.0393 25.5816 26.1346 25.3876 26.1732C25.1937 26.2118 24.9926 26.1921 24.8098 26.1164C24.6271 26.0407 24.4709 25.9126 24.3609 25.7481C24.251 25.5837 24.1923 25.3904 24.1923 25.1926C24.1923 24.9948 24.2509 24.8014 24.3607 24.6369C24.4706 24.4724 24.6268 24.3442 24.8095 24.2685C24.9922 24.1928 25.1933 24.1729 25.3873 24.2115C25.5813 24.25 25.7595 24.3453 25.8994 24.4851C26.0866 24.6728 26.1918 24.9271 26.1918 25.1922C26.1919 25.4573 26.0868 25.7116 25.8997 25.8994ZM29 17C28.8022 17 28.6089 16.9414 28.4444 16.8315C28.28 16.7216 28.1518 16.5654 28.0761 16.3827C28.0004 16.2 27.9806 15.9989 28.0192 15.8049C28.0578 15.6109 28.153 15.4327 28.2929 15.2929C28.4327 15.153 28.6109 15.0578 28.8049 15.0192C28.9989 14.9806 29.1999 15.0004 29.3827 15.0761C29.5654 15.1518 29.7216 15.28 29.8315 15.4444C29.9413 15.6089 30 15.8022 30 16C29.9997 16.2651 29.8943 16.5193 29.7068 16.7068C29.5193 16.8943 29.2651 16.9997 29 17Z" fill="white"/>
<path d="M30 4C30.5523 4 31 3.55228 31 3C31 2.44772 30.5523 2 30 2C29.4477 2 29 2.44772 29 3C29 3.55228 29.4477 4 30 4Z" fill="white"/>
<path d="M23 16C22.9918 15.6247 22.9096 15.2547 22.7583 14.9112C22.6069 14.5677 22.3893 14.2575 22.1179 13.9981C22.6649 13.4752 22.9821 12.7566 23 12C23 9.71972 19.9907 8 16 8C12.0093 8 9 9.71972 9 12C9.01789 12.7566 9.33512 13.4752 9.88211 13.9981C9.60434 14.2522 9.38247 14.5612 9.23061 14.9056C9.07874 15.25 9.00021 15.6223 9 15.9987C8.99979 16.3751 9.07791 16.7474 9.22939 17.092C9.38087 17.4366 9.6024 17.7459 9.87988 18.0002C9.6091 18.2595 9.39203 18.5695 9.24105 18.9126C9.09008 19.2557 9.00817 19.6252 9 20C9 22.2803 12.0093 24 16 24C19.9907 24 23 22.2803 23 20C22.9918 19.6252 22.9099 19.2556 22.7589 18.9125C22.6078 18.5693 22.3907 18.2592 22.1198 18C22.3907 17.7408 22.6078 17.4307 22.7589 17.0875C22.9099 16.7444 22.9918 16.3748 23 16ZM16 10C19.0522 10 21 11.1846 21 12C21 12.8154 19.0522 14 16 14C12.9478 14 11 12.8154 11 12C11 11.1846 12.9478 10 16 10ZM16 16C17.5138 16.0271 19.0166 15.7371 20.4116 15.1487C20.566 15.239 20.6987 15.362 20.8003 15.5091C20.902 15.6561 20.9701 15.8237 21 16C21 16.3535 20.6211 16.7739 19.9819 17.1272C18.7453 17.7375 17.3785 18.037 16 18C14.6198 18.037 13.2514 17.7365 12.0137 17.1248C11.3789 16.7739 11 16.3535 11 16C11.0299 15.8237 11.098 15.6561 11.1997 15.5091C11.3013 15.362 11.434 15.239 11.5884 15.1487C12.9834 15.7371 14.4862 16.0271 16 16ZM16 22C12.9478 22 11 20.8154 11 20C11.0301 19.8232 11.0987 19.6551 11.2008 19.5077C11.303 19.3602 11.4362 19.237 11.5912 19.1467C12.9858 19.7336 14.4871 20.0242 16 20C17.513 20.0243 19.0144 19.7338 20.4091 19.1469C20.564 19.2373 20.6972 19.3605 20.7993 19.5078C20.9014 19.6552 20.9699 19.8232 21 20C21 20.8154 19.0522 22 16 22Z" fill="white"/>
</g>
<defs>
<clipPath id="clip0_57_1826">
<rect width="32" height="32" fill="white"/>
</clipPath>
</defs>
</svg>
