<svg width="60" height="60" viewBox="0 0 60 60" fill="none" xmlns="http://www.w3.org/2000/svg">
<path d="M19.9779 31.0966L23.1373 33.5904C23.385 33.7813 23.6642 33.9273 23.9623 34.0216C23.8748 34.3267 23.8275 34.6418 23.8217 34.9591V38.8123C23.8201 39.3644 23.9442 39.9096 24.1846 40.4067C24.425 40.9037 24.7754 41.3395 25.2092 41.681L28.3686 44.1748C28.8289 44.539 29.3987 44.7372 29.9858 44.7372C30.5728 44.7372 31.1426 44.539 31.6029 44.1748L34.7623 41.681C35.1962 41.3395 35.5465 40.9037 35.7869 40.4067C36.0273 39.9096 36.1514 39.3644 36.1498 38.8123V34.9873C36.144 34.67 36.0968 34.3548 36.0092 34.0498C36.3052 33.9572 36.5817 33.811 36.8248 33.6185L39.9936 31.1248C40.4269 30.7828 40.7769 30.3469 41.0172 29.85C41.2576 29.353 41.382 28.808 41.3811 28.256V24.3748C41.377 23.9146 41.2847 23.4595 41.1092 23.0341C41.1127 23.0061 41.1127 22.9778 41.1092 22.9498C40.8563 22.403 40.4733 21.9266 39.9936 21.5623L36.8248 19.031C36.366 18.6675 35.7977 18.4697 35.2123 18.4697C34.6269 18.4697 34.0587 18.6675 33.5998 19.031L30.4405 21.5623C30.276 21.7002 30.1224 21.8507 29.9811 22.0123C29.843 21.8508 29.6926 21.7003 29.5311 21.5623L26.3717 19.031C25.9128 18.6675 25.3446 18.4697 24.7592 18.4697C24.1738 18.4697 23.6056 18.6675 23.1467 19.031L19.9779 21.5623C19.5505 21.897 19.2039 22.3235 18.9637 22.8104C18.7235 23.2973 18.5959 23.8319 18.5904 24.3748V28.2091C18.586 28.7644 18.7087 29.3134 18.9492 29.8139C19.1897 30.3144 19.5416 30.7532 19.9779 31.0966ZM21.1404 29.6248C20.9294 29.4584 20.7589 29.2461 20.6419 29.0041C20.525 28.7621 20.4646 28.4967 20.4654 28.2279V25.0123L23.8217 27.656V31.7341L21.1404 29.6248ZM29.9998 36.5623L26.2498 33.6748C26.5123 33.4404 26.878 33.1685 27.2998 32.831L27.7967 32.4373C28.3915 32.9793 29.167 33.2801 29.9717 33.281C30.7699 33.2786 31.5398 32.9853 32.1373 32.456C33.0748 33.206 33.3842 33.3935 33.6655 33.6748L29.9998 36.5623ZM29.9998 28.556C30.2763 28.5561 30.5467 28.6377 30.7771 28.7907C31.0074 28.9436 31.1876 29.161 31.2951 29.4158C31.4025 29.6706 31.4325 29.9514 31.3812 30.2231C31.3299 30.4948 31.1996 30.7454 31.0067 30.9435C30.8138 31.1415 30.5667 31.2784 30.2964 31.3368C30.0262 31.3952 29.7447 31.3726 29.4872 31.2719C29.2296 31.1712 29.0075 30.9968 28.8486 30.7706C28.6896 30.5443 28.6009 30.2762 28.5936 29.9998C28.5936 29.6268 28.7417 29.2691 29.0055 29.0054C29.2692 28.7417 29.6269 28.5935 29.9998 28.5935V28.556ZM34.2936 31.6966L33.1779 30.8154C33.2475 30.5491 33.2822 30.275 33.2811 29.9998C33.2828 29.2943 33.0551 28.6074 32.6323 28.0426C32.2096 27.4778 31.6147 27.0657 30.9373 26.8685V24.9935L34.2936 27.6373V31.6966ZM29.0623 25.0123V26.8873C28.3888 27.0849 27.797 27.4945 27.3748 28.0552C26.9526 28.6159 26.7224 29.2979 26.7186 29.9998C26.7209 30.2822 26.7619 30.5629 26.8404 30.8341L26.3717 31.1998L25.6967 31.7341V27.656L29.0623 25.0123ZM26.3717 40.2091C26.1596 40.0437 25.9883 39.8317 25.8713 39.5894C25.7542 39.3472 25.6945 39.0813 25.6967 38.8123V35.6248L29.0623 38.2498V42.3185L26.3717 40.2091ZM33.5998 40.2091L30.9373 42.3185V38.2498L34.2748 35.6248V38.8123C34.277 39.0813 34.2173 39.3472 34.1003 39.5894C33.9832 39.8317 33.812 40.0437 33.5998 40.2091ZM38.8311 29.6248L36.1498 31.7341V27.656L39.5061 25.0123V28.2279C39.5062 28.4966 39.4455 28.7618 39.3286 29.0037C39.2117 29.2456 39.0416 29.4579 38.8311 29.6248ZM34.7623 20.5029C34.8953 20.3964 35.0607 20.3384 35.2311 20.3384C35.4015 20.3384 35.5668 20.3964 35.6998 20.5029C37.228 21.7216 38.6811 22.8466 38.9436 23.0904L35.2404 26.006L31.4904 23.0904C31.7717 22.856 33.3561 21.6185 34.7623 20.5029ZM24.2998 20.5029C24.4328 20.3964 24.5982 20.3384 24.7686 20.3384C24.939 20.3384 25.1043 20.3964 25.2373 20.5029C26.7561 21.7123 28.2186 22.8466 28.4904 23.0904L24.7873 26.006L21.0842 23.0904C21.3092 22.856 22.9123 21.6091 24.2998 20.5029Z" fill="#E600AD"/>
<path d="M19.9779 31.0966L23.1373 33.5904C23.385 33.7813 23.6642 33.9273 23.9623 34.0216C23.8748 34.3267 23.8275 34.6418 23.8217 34.9591V38.8123C23.8201 39.3644 23.9442 39.9096 24.1846 40.4067C24.425 40.9037 24.7754 41.3395 25.2092 41.681L28.3686 44.1748C28.8289 44.539 29.3987 44.7372 29.9858 44.7372C30.5728 44.7372 31.1426 44.539 31.6029 44.1748L34.7623 41.681C35.1962 41.3395 35.5465 40.9037 35.7869 40.4067C36.0273 39.9096 36.1514 39.3644 36.1498 38.8123V34.9873C36.144 34.67 36.0968 34.3548 36.0092 34.0498C36.3052 33.9572 36.5817 33.811 36.8248 33.6185L39.9936 31.1248C40.4269 30.7828 40.7769 30.3469 41.0172 29.85C41.2576 29.353 41.382 28.808 41.3811 28.256V24.3748C41.377 23.9146 41.2847 23.4595 41.1092 23.0341C41.1127 23.0061 41.1127 22.9778 41.1092 22.9498C40.8563 22.403 40.4733 21.9266 39.9936 21.5623L36.8248 19.031C36.366 18.6675 35.7977 18.4697 35.2123 18.4697C34.6269 18.4697 34.0587 18.6675 33.5998 19.031L30.4405 21.5623C30.276 21.7002 30.1224 21.8507 29.9811 22.0123C29.843 21.8508 29.6926 21.7003 29.5311 21.5623L26.3717 19.031C25.9128 18.6675 25.3446 18.4697 24.7592 18.4697C24.1738 18.4697 23.6056 18.6675 23.1467 19.031L19.9779 21.5623C19.5505 21.897 19.2039 22.3235 18.9637 22.8104C18.7235 23.2973 18.5959 23.8319 18.5904 24.3748V28.2091C18.586 28.7644 18.7087 29.3134 18.9492 29.8139C19.1897 30.3144 19.5416 30.7532 19.9779 31.0966ZM21.1404 29.6248C20.9294 29.4584 20.7589 29.2461 20.6419 29.0041C20.525 28.7621 20.4646 28.4967 20.4654 28.2279V25.0123L23.8217 27.656V31.7341L21.1404 29.6248ZM29.9998 36.5623L26.2498 33.6748C26.5123 33.4404 26.878 33.1685 27.2998 32.831L27.7967 32.4373C28.3915 32.9793 29.167 33.2801 29.9717 33.281C30.7699 33.2786 31.5398 32.9853 32.1373 32.456C33.0748 33.206 33.3842 33.3935 33.6655 33.6748L29.9998 36.5623ZM29.9998 28.556C30.2763 28.5561 30.5467 28.6377 30.7771 28.7907C31.0074 28.9436 31.1876 29.161 31.2951 29.4158C31.4025 29.6706 31.4325 29.9514 31.3812 30.2231C31.3299 30.4948 31.1996 30.7454 31.0067 30.9435C30.8138 31.1415 30.5667 31.2784 30.2964 31.3368C30.0262 31.3952 29.7447 31.3726 29.4872 31.2719C29.2296 31.1712 29.0075 30.9968 28.8486 30.7706C28.6896 30.5443 28.6009 30.2762 28.5936 29.9998C28.5936 29.6268 28.7417 29.2691 29.0055 29.0054C29.2692 28.7417 29.6269 28.5935 29.9998 28.5935V28.556ZM34.2936 31.6966L33.1779 30.8154C33.2475 30.5491 33.2822 30.275 33.2811 29.9998C33.2828 29.2943 33.0551 28.6074 32.6323 28.0426C32.2096 27.4778 31.6147 27.0657 30.9373 26.8685V24.9935L34.2936 27.6373V31.6966ZM29.0623 25.0123V26.8873C28.3888 27.0849 27.797 27.4945 27.3748 28.0552C26.9526 28.6159 26.7224 29.2979 26.7186 29.9998C26.7209 30.2822 26.7619 30.5629 26.8404 30.8341L26.3717 31.1998L25.6967 31.7341V27.656L29.0623 25.0123ZM26.3717 40.2091C26.1596 40.0437 25.9883 39.8317 25.8713 39.5894C25.7542 39.3472 25.6945 39.0813 25.6967 38.8123V35.6248L29.0623 38.2498V42.3185L26.3717 40.2091ZM33.5998 40.2091L30.9373 42.3185V38.2498L34.2748 35.6248V38.8123C34.277 39.0813 34.2173 39.3472 34.1003 39.5894C33.9832 39.8317 33.812 40.0437 33.5998 40.2091ZM38.8311 29.6248L36.1498 31.7341V27.656L39.5061 25.0123V28.2279C39.5062 28.4966 39.4455 28.7618 39.3286 29.0037C39.2117 29.2456 39.0416 29.4579 38.8311 29.6248ZM34.7623 20.5029C34.8953 20.3964 35.0607 20.3384 35.2311 20.3384C35.4015 20.3384 35.5668 20.3964 35.6998 20.5029C37.228 21.7216 38.6811 22.8466 38.9436 23.0904L35.2404 26.006L31.4904 23.0904C31.7717 22.856 33.3561 21.6185 34.7623 20.5029ZM24.2998 20.5029C24.4328 20.3964 24.5982 20.3384 24.7686 20.3384C24.939 20.3384 25.1043 20.3964 25.2373 20.5029C26.7561 21.7123 28.2186 22.8466 28.4904 23.0904L24.7873 26.006L21.0842 23.0904C21.3092 22.856 22.9123 21.6091 24.2998 20.5029Z" fill="url(#paint0_radial_29_1825)" fill-opacity="0.5"/>
<path d="M5.81228 32.9998C6.43826 32.9949 7.04679 32.793 7.5516 32.4228C8.05641 32.0526 8.43188 31.5329 8.62478 30.9374H12.731C12.8717 33.3334 13.5103 35.6738 14.606 37.8092L11.0529 39.8624C10.6733 39.5187 10.2116 39.2786 9.71223 39.1652C9.21289 39.0518 8.69276 39.069 8.20196 39.215C7.71116 39.361 7.26625 39.631 6.91009 39.9989C6.55394 40.3668 6.29854 40.8202 6.16853 41.3155C6.0627 41.6959 6.03472 42.0937 6.08627 42.4851C6.13781 42.8766 6.26783 43.2536 6.46853 43.5936C6.86655 44.2821 7.52167 44.7844 8.28991 44.9901C9.05814 45.1958 9.8766 45.088 10.5654 44.6905C11.1124 44.3764 11.5454 43.8965 11.8016 43.3201C12.0577 42.7437 12.1239 42.1007 11.9904 41.4842L15.5435 39.4311C16.8569 41.4381 18.5709 43.1521 20.5779 44.4655L18.5248 48.0186C18.0695 47.9027 17.5925 47.9027 17.1373 48.0186C16.5648 48.1728 16.0509 48.4931 15.6604 48.9391C15.2698 49.3851 15.0202 49.9368 14.9429 50.5246C14.8657 51.1123 14.9643 51.7098 15.2264 52.2416C15.4885 52.7734 15.9022 53.2155 16.4154 53.5124C16.8692 53.7823 17.3874 53.9248 17.9154 53.9249C18.178 53.9229 18.4394 53.8882 18.6935 53.8217C19.4645 53.6125 20.1216 53.107 20.5217 52.4155C20.7204 52.0747 20.8492 51.6977 20.9007 51.3066C20.9522 50.9154 20.9254 50.518 20.8216 50.1373C20.6974 49.6857 20.4658 49.2708 20.1467 48.928L22.1998 45.3749C24.3357 46.4693 26.6758 47.1078 29.0717 47.2499V51.3561C28.394 51.579 27.818 52.0361 27.4469 52.6454C27.0759 53.2547 26.9341 53.9762 27.0469 54.6806C27.1598 55.385 27.52 56.0261 28.0629 56.4889C28.6058 56.9517 29.2958 57.2059 30.0091 57.2059C30.7225 57.2059 31.4125 56.9517 31.9554 56.4889C32.4983 56.0261 32.8585 55.385 32.9714 54.6806C33.0842 53.9762 32.9424 53.2547 32.5714 52.6454C32.2003 52.0361 31.6243 51.579 30.9466 51.3561V47.2405C33.3427 47.0998 35.6831 46.4612 37.8185 45.3655L39.8717 48.9092C39.5575 49.2593 39.3267 49.6759 39.1967 50.128C39.0822 50.5714 39.0707 51.0352 39.1632 51.4837C39.2557 51.9323 39.4496 52.3537 39.7301 52.7157C40.0107 53.0777 40.3704 53.3706 40.7817 53.5721C41.193 53.7736 41.6449 53.8782 42.1029 53.878C42.6294 53.8778 43.1466 53.739 43.6025 53.4756C44.0584 53.2122 44.4369 52.8335 44.7001 52.3775C44.9632 51.9214 45.1018 51.4042 45.1017 50.8777C45.1017 50.3512 44.963 49.8339 44.6998 49.378C44.3893 48.8271 43.9103 48.3905 43.3331 48.1323C42.7559 47.8741 42.1111 47.8079 41.4935 47.9436L39.4404 44.3998C41.4474 43.0864 43.1614 41.3725 44.4748 39.3655L48.0279 41.4186C47.8974 42.035 47.9649 42.6769 48.2208 43.2527C48.4767 43.8284 48.9079 44.3087 49.4529 44.6248C49.9045 44.8908 50.4195 45.03 50.9435 45.028C51.2096 45.031 51.4747 44.9963 51.731 44.9248C52.5006 44.7185 53.1566 44.2149 53.5548 43.5248C53.9531 42.8347 54.0608 42.0147 53.8545 41.2452C53.6481 40.4756 53.1445 39.8196 52.4544 39.4214C51.7643 39.0231 50.9443 38.9154 50.1748 39.1217C49.7231 39.246 49.3082 39.4776 48.9654 39.7967L45.4123 37.7436C46.5068 35.6077 47.1453 33.2675 47.2873 30.8717H51.3935C51.6165 31.5494 52.0736 32.1254 52.6828 32.4964C53.2921 32.8675 54.0136 33.0093 54.718 32.8964C55.4224 32.7835 56.0635 32.4234 56.5263 31.8805C56.9891 31.3376 57.2433 30.6476 57.2433 29.9342C57.2433 29.2209 56.9891 28.5308 56.5263 27.988C56.0635 27.4451 55.4224 27.0849 54.718 26.972C54.0136 26.8591 53.2921 27.0009 52.6828 27.372C52.0736 27.7431 51.6165 28.3191 51.3935 28.9967H47.2404C47.0984 26.6009 46.4599 24.2608 45.3654 22.1249L48.9185 20.0717C49.2614 20.3909 49.6763 20.6225 50.1279 20.7467C50.3852 20.8132 50.6497 20.8479 50.9154 20.8499C51.4422 20.8477 51.9592 20.7074 52.4147 20.4429C52.8702 20.1783 53.2484 19.7988 53.5112 19.3423C53.7741 18.8858 53.9126 18.3683 53.9128 17.8415C53.9129 17.3148 53.7749 16.7972 53.5123 16.3405C53.112 15.6781 52.4699 15.1974 51.7216 14.9999C51.3413 14.894 50.9435 14.866 50.552 14.9176C50.1606 14.9691 49.7835 15.0992 49.4435 15.2999C49.1025 15.4962 48.8035 15.7579 48.5638 16.07C48.3241 16.3821 48.1484 16.7384 48.0467 17.1186C47.9308 17.5738 47.9308 18.0509 48.0467 18.5061L44.4935 20.5592C43.1801 18.5522 41.4662 16.8383 39.4592 15.5249L41.5123 11.9811C41.7091 12.0261 41.9104 12.0481 42.1123 12.0467C42.6405 12.0491 43.1599 11.9116 43.6176 11.6481C44.0754 11.3846 44.4553 11.0046 44.7185 10.5467C45.0032 10.0657 45.1488 9.51512 45.139 8.95627C45.1292 8.39741 44.9644 7.85225 44.663 7.38153C44.3616 6.9108 43.9355 6.53298 43.432 6.29017C42.9286 6.04736 42.3676 5.94909 41.8116 6.00631C41.2556 6.06353 40.7264 6.27399 40.283 6.61425C39.8396 6.95451 39.4993 7.41119 39.3001 7.93344C39.1009 8.45568 39.0506 9.02297 39.1549 9.5721C39.2591 10.1212 39.5137 10.6307 39.8904 11.0436L37.8373 14.5874C35.7018 13.4916 33.3614 12.853 30.9654 12.7124V8.65298C31.643 8.43005 32.2191 7.97295 32.5901 7.36368C32.9612 6.75442 33.103 6.03287 32.9901 5.32849C32.8772 4.62412 32.517 3.98302 31.9742 3.52022C31.4313 3.05742 30.7413 2.80322 30.0279 2.80322C29.3145 2.80322 28.6245 3.05742 28.0816 3.52022C27.5388 3.98302 27.1786 4.62412 27.0657 5.32849C26.9528 6.03287 27.0946 6.75442 27.4657 7.36368C27.8367 7.97295 28.4128 8.43005 29.0904 8.65298V12.7592C26.6946 12.9012 24.3545 13.5397 22.2185 14.6342L20.1654 11.0811C20.5305 10.669 20.7748 10.1642 20.8713 9.62216C20.9678 9.08015 20.9128 8.52201 20.7124 8.00923C20.512 7.49646 20.174 7.04896 19.7355 6.71602C19.297 6.38309 18.7752 6.17766 18.2274 6.12235C17.6797 6.06704 17.1273 6.16401 16.6311 6.40257C16.1349 6.64113 15.7142 7.01202 15.4154 7.47438C15.1165 7.93674 14.9511 8.47263 14.9373 9.023C14.9235 9.57337 15.0619 10.1169 15.3373 10.5936C15.7359 11.2825 16.3889 11.7875 17.156 11.9999C17.4133 12.0664 17.6778 12.101 17.9435 12.103C18.1462 12.0986 18.3476 12.0703 18.5435 12.0186L20.5967 15.5717C18.5896 16.8851 16.8757 18.5991 15.5623 20.6061L12.0092 18.553C12.1269 18.0461 12.1103 17.5174 11.9611 17.0189C11.8119 16.5204 11.5352 16.0695 11.1584 15.7106C10.7816 15.3518 10.3177 15.0975 9.81252 14.9728C9.30734 14.8482 8.77838 14.8575 8.2779 14.9999C7.50967 15.2063 6.85489 15.7095 6.45757 16.3986C6.06024 17.0878 5.9529 17.9066 6.15915 18.6749C6.25928 19.0569 6.43433 19.4153 6.67413 19.7291C6.91393 20.0429 7.2137 20.306 7.55603 20.503C8.01231 20.7659 8.52942 20.9049 9.05603 20.9061C9.31863 20.9035 9.57994 20.8689 9.83415 20.803C10.2862 20.673 10.7029 20.4422 11.0529 20.128L14.5967 22.1811C13.5009 24.3165 12.8623 26.6569 12.7217 29.053H8.6529C8.47962 28.5264 8.16381 28.0581 7.74054 27.7001C7.31726 27.3421 6.80306 27.1084 6.25502 27.0249C5.70697 26.9414 5.14651 27.0114 4.63583 27.2272C4.12516 27.4429 3.68424 27.7959 3.36202 28.247C3.0398 28.6981 2.84888 29.2297 2.81044 29.7827C2.77201 30.3357 2.88756 30.8886 3.14428 31.38C3.401 31.8713 3.78884 32.2819 4.26476 32.5662C4.74069 32.8505 5.28608 32.9973 5.8404 32.9905L5.81228 32.9998ZM9.61853 43.0686C9.35941 43.2154 9.05293 43.2545 8.76527 43.1773C8.47761 43.1001 8.23184 42.9129 8.08103 42.6561C8.00522 42.529 7.95615 42.3878 7.93681 42.2411C7.91746 42.0944 7.92826 41.9454 7.96853 41.803C8.035 41.5641 8.17668 41.353 8.37258 41.201C8.56847 41.0491 8.80814 40.9643 9.05603 40.9592C9.24703 40.9664 9.43312 41.0217 9.59701 41.1201C9.76091 41.2184 9.8973 41.3566 9.99353 41.5217C10.1466 41.7772 10.193 42.0826 10.1229 42.372C10.0527 42.6614 9.87156 42.9116 9.61853 43.0686ZM18.8904 51.5061C18.7373 51.7657 18.488 51.9543 18.1967 52.0311C18.0543 52.0714 17.9052 52.0822 17.7585 52.0628C17.6118 52.0435 17.4706 51.9944 17.3435 51.9186C17.0867 51.7678 16.8995 51.522 16.8223 51.2344C16.7451 50.9467 16.7842 50.6402 16.931 50.3811C17.0041 50.2522 17.1024 50.1393 17.2199 50.0492C17.3375 49.959 17.472 49.8933 17.6154 49.8561C17.7149 49.8417 17.8159 49.8417 17.9154 49.8561C18.11 49.8548 18.3012 49.9067 18.4685 50.0061C18.7242 50.1592 18.9119 50.4039 18.9935 50.6905C19.0623 50.9657 19.0256 51.2567 18.8904 51.5061ZM42.3842 49.8561C42.5276 49.8933 42.6621 49.959 42.7796 50.0492C42.8972 50.1393 42.9954 50.2522 43.0685 50.3811C43.2166 50.6397 43.257 50.9461 43.181 51.2342C43.1438 51.3776 43.0782 51.5121 42.988 51.6297C42.8978 51.7472 42.7849 51.8455 42.656 51.9186C42.528 51.9925 42.3867 52.0405 42.2401 52.0598C42.0935 52.0791 41.9446 52.0693 41.8018 52.031C41.659 51.9927 41.5251 51.9266 41.4079 51.8366C41.2907 51.7465 41.1923 51.6342 41.1185 51.5061C41.0406 51.3799 40.9903 51.2386 40.9709 51.0916C40.9515 50.9445 40.9635 50.7951 41.006 50.653C41.0432 50.5096 41.1089 50.3751 41.1991 50.2575C41.2893 50.1399 41.4021 50.0417 41.531 49.9686C41.7012 49.868 41.8958 49.8161 42.0935 49.8186C42.1917 49.8172 42.2896 49.8298 42.3842 49.8561ZM50.6248 40.9967C50.7214 40.9876 50.8187 40.9876 50.9154 40.9967C51.1139 40.9975 51.3085 41.0526 51.4779 41.1561C51.6068 41.2292 51.7197 41.3274 51.8099 41.445C51.9 41.5626 51.9657 41.6971 52.0029 41.8405C52.0432 41.9828 52.054 42.1319 52.0346 42.2786C52.0153 42.4253 51.9662 42.5665 51.8904 42.6936C51.8173 42.8225 51.7191 42.9354 51.6015 43.0255C51.4839 43.1157 51.3494 43.1814 51.206 43.2186C51.0637 43.2589 50.9146 43.2697 50.7679 43.2503C50.6212 43.231 50.48 43.1819 50.3529 43.1061C50.2248 43.0323 50.1125 42.934 50.0224 42.8167C49.9324 42.6995 49.8663 42.5656 49.828 42.4228C49.7897 42.2801 49.7799 42.1311 49.7992 41.9845C49.8185 41.838 49.8665 41.6966 49.9404 41.5686C50.0842 41.2952 50.3302 41.0897 50.6248 40.9967ZM49.8279 17.6155C49.8651 17.4721 49.9308 17.3376 50.021 17.22C50.1111 17.1024 50.224 17.0042 50.3529 16.9311C50.5231 16.8305 50.7177 16.7786 50.9154 16.7811C51.0118 16.7674 51.1096 16.7674 51.206 16.7811C51.3494 16.8183 51.4839 16.884 51.6015 16.9742C51.7191 17.0643 51.8173 17.1772 51.8904 17.3061C51.9662 17.4332 52.0153 17.5744 52.0346 17.7211C52.054 17.8678 52.0432 18.0169 52.0029 18.1592C51.9657 18.3026 51.9 18.4371 51.8099 18.5547C51.7197 18.6723 51.6068 18.7705 51.4779 18.8436C51.2197 18.9927 50.9128 19.0331 50.6248 18.9561C50.3357 18.8739 50.0902 18.6822 49.9404 18.4217C49.8094 18.1739 49.7792 17.8851 49.856 17.6155H49.8279ZM41.1091 8.4936C41.2192 8.29743 41.3852 8.13843 41.5859 8.03679C41.7866 7.93516 42.0129 7.89549 42.2362 7.92283C42.4595 7.95016 42.6696 8.04327 42.8399 8.19031C43.0101 8.33736 43.1328 8.53169 43.1923 8.74863C43.2518 8.96557 43.2455 9.1953 43.1742 9.40864C43.1028 9.62197 42.9696 9.80928 42.7916 9.94674C42.6135 10.0842 42.3986 10.1656 42.1741 10.1806C41.9497 10.1957 41.7258 10.1436 41.531 10.0311C41.2754 9.87802 41.0877 9.6333 41.006 9.34673C40.9272 9.05983 40.9642 8.75345 41.1091 8.4936ZM17.6154 10.1436C17.472 10.1064 17.3375 10.0407 17.2199 9.95055C17.1024 9.86036 17.0041 9.74748 16.931 9.6186C16.8181 9.4245 16.7654 9.20125 16.7794 8.97713C16.7935 8.75301 16.8738 8.53811 17.0101 8.35966C17.1464 8.1812 17.3326 8.04721 17.5451 7.97466C17.7576 7.90212 17.9869 7.89428 18.2039 7.95214C18.4208 8.01 18.6158 8.13095 18.7639 8.29969C18.9121 8.46842 19.0069 8.67733 19.0362 8.89996C19.0656 9.12259 19.0282 9.34893 18.9288 9.55029C18.8294 9.75166 18.6725 9.91899 18.4779 10.0311C18.3488 10.1062 18.206 10.1548 18.058 10.1741C17.9099 10.1934 17.7594 10.183 17.6154 10.1436ZM9.37478 18.9936C9.23303 19.0353 9.08427 19.0476 8.9376 19.0299C8.79092 19.0121 8.64939 18.9647 8.52165 18.8905C8.39277 18.8174 8.27989 18.7191 8.1897 18.6016C8.09952 18.484 8.03387 18.3495 7.99665 18.2061C7.95638 18.0637 7.94559 17.9146 7.96493 17.7679C7.98427 17.6212 8.03335 17.48 8.10915 17.353C8.18225 17.2241 8.2805 17.1112 8.39806 17.021C8.51562 16.9308 8.65011 16.8652 8.79353 16.828C8.88992 16.8143 8.98776 16.8143 9.08415 16.828C9.28186 16.8255 9.47645 16.8773 9.64665 16.978C9.77568 17.0509 9.88889 17.1487 9.97967 17.2659C10.0705 17.383 10.137 17.5171 10.1754 17.6602C10.2138 17.8033 10.2233 17.9527 10.2033 18.0995C10.1834 18.2464 10.1344 18.3878 10.0592 18.5155C9.90223 18.7581 9.65659 18.9297 9.37478 18.9936ZM29.9998 55.3123C29.7746 55.3142 29.554 55.249 29.366 55.1251C29.1781 55.0012 29.0312 54.8241 28.9442 54.6164C28.8572 54.4088 28.8339 54.1799 28.8774 53.959C28.9209 53.7381 29.0291 53.5351 29.1883 53.3759C29.3475 53.2167 29.5505 53.1085 29.7714 53.065C29.9923 53.0215 30.2212 53.0448 30.4289 53.1318C30.6365 53.2188 30.8136 53.3656 30.9375 53.5536C31.0614 53.7416 31.1266 53.9622 31.1248 54.1873C31.1248 54.3351 31.0957 54.4814 31.0391 54.6179C30.9826 54.7544 30.8997 54.8784 30.7953 54.9828C30.6908 55.0873 30.5668 55.1702 30.4303 55.2267C30.2938 55.2833 30.1475 55.3123 29.9998 55.3123ZM54.1873 28.8749C54.4094 28.8767 54.6259 28.9443 54.8097 29.069C54.9935 29.1937 55.1362 29.3701 55.2199 29.5758C55.3036 29.7815 55.3246 30.0074 55.2801 30.225C55.2357 30.4426 55.1278 30.6422 54.9701 30.7986C54.8124 30.955 54.6119 31.0612 54.394 31.1039C54.176 31.1465 53.9503 31.1237 53.7452 31.0383C53.5402 30.9529 53.3651 30.8087 53.2419 30.6239C53.1187 30.4391 53.0529 30.222 53.0529 29.9999C53.0529 29.8513 53.0823 29.7043 53.1394 29.5672C53.1965 29.43 53.2803 29.3056 53.3857 29.201C53.4912 29.0964 53.6163 29.0138 53.7539 28.9578C53.8915 28.9018 54.0388 28.8736 54.1873 28.8749ZM29.9998 4.68735C30.2249 4.6855 30.4455 4.75069 30.6335 4.87462C30.8215 4.99855 30.9683 5.17561 31.0553 5.38327C31.1424 5.59093 31.1656 5.81979 31.1221 6.0407C31.0787 6.26162 30.9704 6.4646 30.8112 6.62381C30.652 6.78302 30.449 6.89125 30.2281 6.93472C30.0072 6.97819 29.7784 6.95494 29.5707 6.86792C29.363 6.7809 29.186 6.63405 29.062 6.44608C28.9381 6.2581 28.8729 6.0375 28.8748 5.81235C28.8748 5.51398 28.9933 5.22783 29.2043 5.01686C29.4153 4.80588 29.7014 4.68735 29.9998 4.68735ZM29.9998 14.5874C34.0844 14.5973 37.9989 16.2242 40.8871 19.1125C43.7754 22.0008 45.4024 25.9152 45.4123 29.9999C45.4024 34.0845 43.7754 37.9989 40.8871 40.8872C37.9989 43.7755 34.0844 45.4024 29.9998 45.4123C25.9144 45.4049 21.9985 43.7787 19.1097 40.8899C16.2209 38.0011 14.5947 34.0852 14.5873 29.9999C14.5947 25.9145 16.2209 21.9986 19.1097 19.1098C21.9985 16.221 25.9144 14.5948 29.9998 14.5874ZM5.81228 28.8749C6.03478 28.8749 6.25229 28.9408 6.43729 29.0644C6.6223 29.1881 6.76649 29.3638 6.85164 29.5693C6.93679 29.7749 6.95907 30.0011 6.91566 30.2193C6.87225 30.4376 6.76511 30.638 6.60777 30.7953C6.45044 30.9527 6.24998 31.0598 6.03175 31.1032C5.81352 31.1466 5.58732 31.1244 5.38176 31.0392C5.17619 30.9541 5.00049 30.8099 4.87687 30.6249C4.75326 30.4399 4.68728 30.2224 4.68728 29.9999C4.68973 29.7022 4.80904 29.4175 5.01949 29.2071C5.22994 28.9966 5.51467 28.8773 5.81228 28.8749Z" fill="#E600AD"/>
<path d="M5.81228 32.9998C6.43826 32.9949 7.04679 32.793 7.5516 32.4228C8.05641 32.0526 8.43188 31.5329 8.62478 30.9374H12.731C12.8717 33.3334 13.5103 35.6738 14.606 37.8092L11.0529 39.8624C10.6733 39.5187 10.2116 39.2786 9.71223 39.1652C9.21289 39.0518 8.69276 39.069 8.20196 39.215C7.71116 39.361 7.26625 39.631 6.91009 39.9989C6.55394 40.3668 6.29854 40.8202 6.16853 41.3155C6.0627 41.6959 6.03472 42.0937 6.08627 42.4851C6.13781 42.8766 6.26783 43.2536 6.46853 43.5936C6.86655 44.2821 7.52167 44.7844 8.28991 44.9901C9.05814 45.1958 9.8766 45.088 10.5654 44.6905C11.1124 44.3764 11.5454 43.8965 11.8016 43.3201C12.0577 42.7437 12.1239 42.1007 11.9904 41.4842L15.5435 39.4311C16.8569 41.4381 18.5709 43.1521 20.5779 44.4655L18.5248 48.0186C18.0695 47.9027 17.5925 47.9027 17.1373 48.0186C16.5648 48.1728 16.0509 48.4931 15.6604 48.9391C15.2698 49.3851 15.0202 49.9368 14.9429 50.5246C14.8657 51.1123 14.9643 51.7098 15.2264 52.2416C15.4885 52.7734 15.9022 53.2155 16.4154 53.5124C16.8692 53.7823 17.3874 53.9248 17.9154 53.9249C18.178 53.9229 18.4394 53.8882 18.6935 53.8217C19.4645 53.6125 20.1216 53.107 20.5217 52.4155C20.7204 52.0747 20.8492 51.6977 20.9007 51.3066C20.9522 50.9154 20.9254 50.518 20.8216 50.1373C20.6974 49.6857 20.4658 49.2708 20.1467 48.928L22.1998 45.3749C24.3357 46.4693 26.6758 47.1078 29.0717 47.2499V51.3561C28.394 51.579 27.818 52.0361 27.4469 52.6454C27.0759 53.2547 26.9341 53.9762 27.0469 54.6806C27.1598 55.385 27.52 56.0261 28.0629 56.4889C28.6058 56.9517 29.2958 57.2059 30.0091 57.2059C30.7225 57.2059 31.4125 56.9517 31.9554 56.4889C32.4983 56.0261 32.8585 55.385 32.9714 54.6806C33.0842 53.9762 32.9424 53.2547 32.5714 52.6454C32.2003 52.0361 31.6243 51.579 30.9466 51.3561V47.2405C33.3427 47.0998 35.6831 46.4612 37.8185 45.3655L39.8717 48.9092C39.5575 49.2593 39.3267 49.6759 39.1967 50.128C39.0822 50.5714 39.0707 51.0352 39.1632 51.4837C39.2557 51.9323 39.4496 52.3537 39.7301 52.7157C40.0107 53.0777 40.3704 53.3706 40.7817 53.5721C41.193 53.7736 41.6449 53.8782 42.1029 53.878C42.6294 53.8778 43.1466 53.739 43.6025 53.4756C44.0584 53.2122 44.4369 52.8335 44.7001 52.3775C44.9632 51.9214 45.1018 51.4042 45.1017 50.8777C45.1017 50.3512 44.963 49.8339 44.6998 49.378C44.3893 48.8271 43.9103 48.3905 43.3331 48.1323C42.7559 47.8741 42.1111 47.8079 41.4935 47.9436L39.4404 44.3998C41.4474 43.0864 43.1614 41.3725 44.4748 39.3655L48.0279 41.4186C47.8974 42.035 47.9649 42.6769 48.2208 43.2527C48.4767 43.8284 48.9079 44.3087 49.4529 44.6248C49.9045 44.8908 50.4195 45.03 50.9435 45.028C51.2096 45.031 51.4747 44.9963 51.731 44.9248C52.5006 44.7185 53.1566 44.2149 53.5548 43.5248C53.9531 42.8347 54.0608 42.0147 53.8545 41.2452C53.6481 40.4756 53.1445 39.8196 52.4544 39.4214C51.7643 39.0231 50.9443 38.9154 50.1748 39.1217C49.7231 39.246 49.3082 39.4776 48.9654 39.7967L45.4123 37.7436C46.5068 35.6077 47.1453 33.2675 47.2873 30.8717H51.3935C51.6165 31.5494 52.0736 32.1254 52.6828 32.4964C53.2921 32.8675 54.0136 33.0093 54.718 32.8964C55.4224 32.7835 56.0635 32.4234 56.5263 31.8805C56.9891 31.3376 57.2433 30.6476 57.2433 29.9342C57.2433 29.2209 56.9891 28.5308 56.5263 27.988C56.0635 27.4451 55.4224 27.0849 54.718 26.972C54.0136 26.8591 53.2921 27.0009 52.6828 27.372C52.0736 27.7431 51.6165 28.3191 51.3935 28.9967H47.2404C47.0984 26.6009 46.4599 24.2608 45.3654 22.1249L48.9185 20.0717C49.2614 20.3909 49.6763 20.6225 50.1279 20.7467C50.3852 20.8132 50.6497 20.8479 50.9154 20.8499C51.4422 20.8477 51.9592 20.7074 52.4147 20.4429C52.8702 20.1783 53.2484 19.7988 53.5112 19.3423C53.7741 18.8858 53.9126 18.3683 53.9128 17.8415C53.9129 17.3148 53.7749 16.7972 53.5123 16.3405C53.112 15.6781 52.4699 15.1974 51.7216 14.9999C51.3413 14.894 50.9435 14.866 50.552 14.9176C50.1606 14.9691 49.7835 15.0992 49.4435 15.2999C49.1025 15.4962 48.8035 15.7579 48.5638 16.07C48.3241 16.3821 48.1484 16.7384 48.0467 17.1186C47.9308 17.5738 47.9308 18.0509 48.0467 18.5061L44.4935 20.5592C43.1801 18.5522 41.4662 16.8383 39.4592 15.5249L41.5123 11.9811C41.7091 12.0261 41.9104 12.0481 42.1123 12.0467C42.6405 12.0491 43.1599 11.9116 43.6176 11.6481C44.0754 11.3846 44.4553 11.0046 44.7185 10.5467C45.0032 10.0657 45.1488 9.51512 45.139 8.95627C45.1292 8.39741 44.9644 7.85225 44.663 7.38153C44.3616 6.9108 43.9355 6.53298 43.432 6.29017C42.9286 6.04736 42.3676 5.94909 41.8116 6.00631C41.2556 6.06353 40.7264 6.27399 40.283 6.61425C39.8396 6.95451 39.4993 7.41119 39.3001 7.93344C39.1009 8.45568 39.0506 9.02297 39.1549 9.5721C39.2591 10.1212 39.5137 10.6307 39.8904 11.0436L37.8373 14.5874C35.7018 13.4916 33.3614 12.853 30.9654 12.7124V8.65298C31.643 8.43005 32.2191 7.97295 32.5901 7.36368C32.9612 6.75442 33.103 6.03287 32.9901 5.32849C32.8772 4.62412 32.517 3.98302 31.9742 3.52022C31.4313 3.05742 30.7413 2.80322 30.0279 2.80322C29.3145 2.80322 28.6245 3.05742 28.0816 3.52022C27.5388 3.98302 27.1786 4.62412 27.0657 5.32849C26.9528 6.03287 27.0946 6.75442 27.4657 7.36368C27.8367 7.97295 28.4128 8.43005 29.0904 8.65298V12.7592C26.6946 12.9012 24.3545 13.5397 22.2185 14.6342L20.1654 11.0811C20.5305 10.669 20.7748 10.1642 20.8713 9.62216C20.9678 9.08015 20.9128 8.52201 20.7124 8.00923C20.512 7.49646 20.174 7.04896 19.7355 6.71602C19.297 6.38309 18.7752 6.17766 18.2274 6.12235C17.6797 6.06704 17.1273 6.16401 16.6311 6.40257C16.1349 6.64113 15.7142 7.01202 15.4154 7.47438C15.1165 7.93674 14.9511 8.47263 14.9373 9.023C14.9235 9.57337 15.0619 10.1169 15.3373 10.5936C15.7359 11.2825 16.3889 11.7875 17.156 11.9999C17.4133 12.0664 17.6778 12.101 17.9435 12.103C18.1462 12.0986 18.3476 12.0703 18.5435 12.0186L20.5967 15.5717C18.5896 16.8851 16.8757 18.5991 15.5623 20.6061L12.0092 18.553C12.1269 18.0461 12.1103 17.5174 11.9611 17.0189C11.8119 16.5204 11.5352 16.0695 11.1584 15.7106C10.7816 15.3518 10.3177 15.0975 9.81252 14.9728C9.30734 14.8482 8.77838 14.8575 8.2779 14.9999C7.50967 15.2063 6.85489 15.7095 6.45757 16.3986C6.06024 17.0878 5.9529 17.9066 6.15915 18.6749C6.25928 19.0569 6.43433 19.4153 6.67413 19.7291C6.91393 20.0429 7.2137 20.306 7.55603 20.503C8.01231 20.7659 8.52942 20.9049 9.05603 20.9061C9.31863 20.9035 9.57994 20.8689 9.83415 20.803C10.2862 20.673 10.7029 20.4422 11.0529 20.128L14.5967 22.1811C13.5009 24.3165 12.8623 26.6569 12.7217 29.053H8.6529C8.47962 28.5264 8.16381 28.0581 7.74054 27.7001C7.31726 27.3421 6.80306 27.1084 6.25502 27.0249C5.70697 26.9414 5.14651 27.0114 4.63583 27.2272C4.12516 27.4429 3.68424 27.7959 3.36202 28.247C3.0398 28.6981 2.84888 29.2297 2.81044 29.7827C2.77201 30.3357 2.88756 30.8886 3.14428 31.38C3.401 31.8713 3.78884 32.2819 4.26476 32.5662C4.74069 32.8505 5.28608 32.9973 5.8404 32.9905L5.81228 32.9998ZM9.61853 43.0686C9.35941 43.2154 9.05293 43.2545 8.76527 43.1773C8.47761 43.1001 8.23184 42.9129 8.08103 42.6561C8.00522 42.529 7.95615 42.3878 7.93681 42.2411C7.91746 42.0944 7.92826 41.9454 7.96853 41.803C8.035 41.5641 8.17668 41.353 8.37258 41.201C8.56847 41.0491 8.80814 40.9643 9.05603 40.9592C9.24703 40.9664 9.43312 41.0217 9.59701 41.1201C9.76091 41.2184 9.8973 41.3566 9.99353 41.5217C10.1466 41.7772 10.193 42.0826 10.1229 42.372C10.0527 42.6614 9.87156 42.9116 9.61853 43.0686ZM18.8904 51.5061C18.7373 51.7657 18.488 51.9543 18.1967 52.0311C18.0543 52.0714 17.9052 52.0822 17.7585 52.0628C17.6118 52.0435 17.4706 51.9944 17.3435 51.9186C17.0867 51.7678 16.8995 51.522 16.8223 51.2344C16.7451 50.9467 16.7842 50.6402 16.931 50.3811C17.0041 50.2522 17.1024 50.1393 17.2199 50.0492C17.3375 49.959 17.472 49.8933 17.6154 49.8561C17.7149 49.8417 17.8159 49.8417 17.9154 49.8561C18.11 49.8548 18.3012 49.9067 18.4685 50.0061C18.7242 50.1592 18.9119 50.4039 18.9935 50.6905C19.0623 50.9657 19.0256 51.2567 18.8904 51.5061ZM42.3842 49.8561C42.5276 49.8933 42.6621 49.959 42.7796 50.0492C42.8972 50.1393 42.9954 50.2522 43.0685 50.3811C43.2166 50.6397 43.257 50.9461 43.181 51.2342C43.1438 51.3776 43.0782 51.5121 42.988 51.6297C42.8978 51.7472 42.7849 51.8455 42.656 51.9186C42.528 51.9925 42.3867 52.0405 42.2401 52.0598C42.0935 52.0791 41.9446 52.0693 41.8018 52.031C41.659 51.9927 41.5251 51.9266 41.4079 51.8366C41.2907 51.7465 41.1923 51.6342 41.1185 51.5061C41.0406 51.3799 40.9903 51.2386 40.9709 51.0916C40.9515 50.9445 40.9635 50.7951 41.006 50.653C41.0432 50.5096 41.1089 50.3751 41.1991 50.2575C41.2893 50.1399 41.4021 50.0417 41.531 49.9686C41.7012 49.868 41.8958 49.8161 42.0935 49.8186C42.1917 49.8172 42.2896 49.8298 42.3842 49.8561ZM50.6248 40.9967C50.7214 40.9876 50.8187 40.9876 50.9154 40.9967C51.1139 40.9975 51.3085 41.0526 51.4779 41.1561C51.6068 41.2292 51.7197 41.3274 51.8099 41.445C51.9 41.5626 51.9657 41.6971 52.0029 41.8405C52.0432 41.9828 52.054 42.1319 52.0346 42.2786C52.0153 42.4253 51.9662 42.5665 51.8904 42.6936C51.8173 42.8225 51.7191 42.9354 51.6015 43.0255C51.4839 43.1157 51.3494 43.1814 51.206 43.2186C51.0637 43.2589 50.9146 43.2697 50.7679 43.2503C50.6212 43.231 50.48 43.1819 50.3529 43.1061C50.2248 43.0323 50.1125 42.934 50.0224 42.8167C49.9324 42.6995 49.8663 42.5656 49.828 42.4228C49.7897 42.2801 49.7799 42.1311 49.7992 41.9845C49.8185 41.838 49.8665 41.6966 49.9404 41.5686C50.0842 41.2952 50.3302 41.0897 50.6248 40.9967ZM49.8279 17.6155C49.8651 17.4721 49.9308 17.3376 50.021 17.22C50.1111 17.1024 50.224 17.0042 50.3529 16.9311C50.5231 16.8305 50.7177 16.7786 50.9154 16.7811C51.0118 16.7674 51.1096 16.7674 51.206 16.7811C51.3494 16.8183 51.4839 16.884 51.6015 16.9742C51.7191 17.0643 51.8173 17.1772 51.8904 17.3061C51.9662 17.4332 52.0153 17.5744 52.0346 17.7211C52.054 17.8678 52.0432 18.0169 52.0029 18.1592C51.9657 18.3026 51.9 18.4371 51.8099 18.5547C51.7197 18.6723 51.6068 18.7705 51.4779 18.8436C51.2197 18.9927 50.9128 19.0331 50.6248 18.9561C50.3357 18.8739 50.0902 18.6822 49.9404 18.4217C49.8094 18.1739 49.7792 17.8851 49.856 17.6155H49.8279ZM41.1091 8.4936C41.2192 8.29743 41.3852 8.13843 41.5859 8.03679C41.7866 7.93516 42.0129 7.89549 42.2362 7.92283C42.4595 7.95016 42.6696 8.04327 42.8399 8.19031C43.0101 8.33736 43.1328 8.53169 43.1923 8.74863C43.2518 8.96557 43.2455 9.1953 43.1742 9.40864C43.1028 9.62197 42.9696 9.80928 42.7916 9.94674C42.6135 10.0842 42.3986 10.1656 42.1741 10.1806C41.9497 10.1957 41.7258 10.1436 41.531 10.0311C41.2754 9.87802 41.0877 9.6333 41.006 9.34673C40.9272 9.05983 40.9642 8.75345 41.1091 8.4936ZM17.6154 10.1436C17.472 10.1064 17.3375 10.0407 17.2199 9.95055C17.1024 9.86036 17.0041 9.74748 16.931 9.6186C16.8181 9.4245 16.7654 9.20125 16.7794 8.97713C16.7935 8.75301 16.8738 8.53811 17.0101 8.35966C17.1464 8.1812 17.3326 8.04721 17.5451 7.97466C17.7576 7.90212 17.9869 7.89428 18.2039 7.95214C18.4208 8.01 18.6158 8.13095 18.7639 8.29969C18.9121 8.46842 19.0069 8.67733 19.0362 8.89996C19.0656 9.12259 19.0282 9.34893 18.9288 9.55029C18.8294 9.75166 18.6725 9.91899 18.4779 10.0311C18.3488 10.1062 18.206 10.1548 18.058 10.1741C17.9099 10.1934 17.7594 10.183 17.6154 10.1436ZM9.37478 18.9936C9.23303 19.0353 9.08427 19.0476 8.9376 19.0299C8.79092 19.0121 8.64939 18.9647 8.52165 18.8905C8.39277 18.8174 8.27989 18.7191 8.1897 18.6016C8.09952 18.484 8.03387 18.3495 7.99665 18.2061C7.95638 18.0637 7.94559 17.9146 7.96493 17.7679C7.98427 17.6212 8.03335 17.48 8.10915 17.353C8.18225 17.2241 8.2805 17.1112 8.39806 17.021C8.51562 16.9308 8.65011 16.8652 8.79353 16.828C8.88992 16.8143 8.98776 16.8143 9.08415 16.828C9.28186 16.8255 9.47645 16.8773 9.64665 16.978C9.77568 17.0509 9.88889 17.1487 9.97967 17.2659C10.0705 17.383 10.137 17.5171 10.1754 17.6602C10.2138 17.8033 10.2233 17.9527 10.2033 18.0995C10.1834 18.2464 10.1344 18.3878 10.0592 18.5155C9.90223 18.7581 9.65659 18.9297 9.37478 18.9936ZM29.9998 55.3123C29.7746 55.3142 29.554 55.249 29.366 55.1251C29.1781 55.0012 29.0312 54.8241 28.9442 54.6164C28.8572 54.4088 28.8339 54.1799 28.8774 53.959C28.9209 53.7381 29.0291 53.5351 29.1883 53.3759C29.3475 53.2167 29.5505 53.1085 29.7714 53.065C29.9923 53.0215 30.2212 53.0448 30.4289 53.1318C30.6365 53.2188 30.8136 53.3656 30.9375 53.5536C31.0614 53.7416 31.1266 53.9622 31.1248 54.1873C31.1248 54.3351 31.0957 54.4814 31.0391 54.6179C30.9826 54.7544 30.8997 54.8784 30.7953 54.9828C30.6908 55.0873 30.5668 55.1702 30.4303 55.2267C30.2938 55.2833 30.1475 55.3123 29.9998 55.3123ZM54.1873 28.8749C54.4094 28.8767 54.6259 28.9443 54.8097 29.069C54.9935 29.1937 55.1362 29.3701 55.2199 29.5758C55.3036 29.7815 55.3246 30.0074 55.2801 30.225C55.2357 30.4426 55.1278 30.6422 54.9701 30.7986C54.8124 30.955 54.6119 31.0612 54.394 31.1039C54.176 31.1465 53.9503 31.1237 53.7452 31.0383C53.5402 30.9529 53.3651 30.8087 53.2419 30.6239C53.1187 30.4391 53.0529 30.222 53.0529 29.9999C53.0529 29.8513 53.0823 29.7043 53.1394 29.5672C53.1965 29.43 53.2803 29.3056 53.3857 29.201C53.4912 29.0964 53.6163 29.0138 53.7539 28.9578C53.8915 28.9018 54.0388 28.8736 54.1873 28.8749ZM29.9998 4.68735C30.2249 4.6855 30.4455 4.75069 30.6335 4.87462C30.8215 4.99855 30.9683 5.17561 31.0553 5.38327C31.1424 5.59093 31.1656 5.81979 31.1221 6.0407C31.0787 6.26162 30.9704 6.4646 30.8112 6.62381C30.652 6.78302 30.449 6.89125 30.2281 6.93472C30.0072 6.97819 29.7784 6.95494 29.5707 6.86792C29.363 6.7809 29.186 6.63405 29.062 6.44608C28.9381 6.2581 28.8729 6.0375 28.8748 5.81235C28.8748 5.51398 28.9933 5.22783 29.2043 5.01686C29.4153 4.80588 29.7014 4.68735 29.9998 4.68735ZM29.9998 14.5874C34.0844 14.5973 37.9989 16.2242 40.8871 19.1125C43.7754 22.0008 45.4024 25.9152 45.4123 29.9999C45.4024 34.0845 43.7754 37.9989 40.8871 40.8872C37.9989 43.7755 34.0844 45.4024 29.9998 45.4123C25.9144 45.4049 21.9985 43.7787 19.1097 40.8899C16.2209 38.0011 14.5947 34.0852 14.5873 29.9999C14.5947 25.9145 16.2209 21.9986 19.1097 19.1098C21.9985 16.221 25.9144 14.5948 29.9998 14.5874ZM5.81228 28.8749C6.03478 28.8749 6.25229 28.9408 6.43729 29.0644C6.6223 29.1881 6.76649 29.3638 6.85164 29.5693C6.93679 29.7749 6.95907 30.0011 6.91566 30.2193C6.87225 30.4376 6.76511 30.638 6.60777 30.7953C6.45044 30.9527 6.24998 31.0598 6.03175 31.1032C5.81352 31.1466 5.58732 31.1244 5.38176 31.0392C5.17619 30.9541 5.00049 30.8099 4.87687 30.6249C4.75326 30.4399 4.68728 30.2224 4.68728 29.9999C4.68973 29.7022 4.80904 29.4175 5.01949 29.2071C5.22994 28.9966 5.51467 28.8773 5.81228 28.8749Z" fill="url(#paint1_radial_29_1825)" fill-opacity="0.5"/>
<defs>
<radialGradient id="paint0_radial_29_1825" cx="0" cy="0" r="1" gradientUnits="userSpaceOnUse" gradientTransform="translate(28.9867 44.7372) scale(15.4696 17.8295)">
<stop stop-color="white"/>
<stop offset="1" stop-color="white" stop-opacity="0"/>
</radialGradient>
<radialGradient id="paint1_radial_29_1825" cx="0" cy="0" r="1" gradientUnits="userSpaceOnUse" gradientTransform="translate(27.6368 57.2059) scale(36.9521 36.9267)">
<stop stop-color="white"/>
<stop offset="1" stop-color="white" stop-opacity="0"/>
</radialGradient>
</defs>
</svg>
