<svg width="32" height="32" viewBox="0 0 32 32" fill="none" xmlns="http://www.w3.org/2000/svg">
<path d="M31.447 15.8429C31.2374 15.0606 30.4305 14.5948 29.6479 14.8042L19.2113 17.6007C18.5603 16.8118 17.5755 16.3081 16.4752 16.3081C14.7185 16.3081 13.2568 17.5923 12.9776 19.271L2.54206 22.0672C2.16406 22.1685 1.84768 22.4118 1.65106 22.7522C1.4545 23.0926 1.40206 23.4883 1.50331 23.8663C1.67906 24.5218 2.27406 24.9553 2.92256 24.9553C3.04806 24.9553 3.17556 24.939 3.30237 24.905L13.7391 22.1085C13.8509 22.244 13.9728 22.3708 14.1032 22.4884L11.5204 25.0712H10.4055C9.44918 25.0712 8.67118 25.8492 8.67118 26.8056V28.04C8.67118 28.3161 8.89506 28.54 9.17118 28.54H23.7792C24.0554 28.54 24.2792 28.3161 24.2792 28.04V26.8056C24.2792 25.8492 23.5012 25.0712 22.5449 25.0712H21.4301L18.8472 22.4884C19.4306 21.9625 19.8384 21.246 19.9727 20.4381L30.4084 17.642C31.1907 17.4323 31.6566 16.6251 31.447 15.8428V15.8429ZM3.04356 23.9391C2.794 24.0059 2.53625 23.8573 2.46925 23.6075C2.43706 23.4875 2.45412 23.3613 2.51712 23.2521C2.58012 23.143 2.68093 23.0653 2.80087 23.0331L12.9592 20.3112C13.0001 20.6281 13.0823 20.9321 13.2014 21.2173L3.04356 23.9391ZM23.2792 26.8056V27.54H9.67112V26.8056C9.67112 26.4007 10.0006 26.0712 10.4054 26.0712H22.5449C22.9498 26.0712 23.2792 26.4007 23.2792 26.8056ZM20.0157 25.0712H12.9346L14.9501 23.0558C15.4123 23.2769 15.9295 23.401 16.4752 23.401C17.021 23.401 17.5381 23.2769 18.0004 23.0558L20.0157 25.0712ZM16.4752 22.401C15.0711 22.401 13.9288 21.2587 13.9288 19.8546C13.9288 18.4505 15.0711 17.3081 16.4752 17.3081C17.8794 17.3081 19.0216 18.4505 19.0216 19.8546C19.0216 21.2587 17.8794 22.401 16.4752 22.401ZM30.1496 16.676L19.9912 19.3979C19.9503 19.081 19.8681 18.777 19.749 18.4919L29.9067 15.7701C30.1568 15.7035 30.4142 15.8519 30.4811 16.1016C30.548 16.3514 30.3992 16.6091 30.1495 16.676H30.1496ZM16.4752 18.2229C15.5755 18.2229 14.8436 18.9548 14.8436 19.8545C14.8436 20.7542 15.5756 21.4862 16.4752 21.4862C17.3749 21.4862 18.1069 20.7542 18.1069 19.8545C18.1069 18.9548 17.3749 18.2229 16.4752 18.2229ZM16.4752 20.4863C16.1269 20.4863 15.8436 20.2029 15.8436 19.8546C15.8436 19.5063 16.1269 19.223 16.4752 19.223C16.8236 19.223 17.1069 19.5063 17.1069 19.8546C17.1069 20.2028 16.8235 20.4863 16.4752 20.4863ZM0.502808 14.6384C0.502808 17.3662 2.72206 19.5854 5.44981 19.5854C8.17756 19.5854 10.3969 17.3661 10.3969 14.6384C10.3969 12.1744 8.58593 10.1259 6.22524 9.75259V8.2654L7.58256 8.50627C7.78349 8.54177 7.98568 8.4519 8.09387 8.27902C8.202 8.10609 8.19424 7.88477 8.07431 7.7199L5.126 3.6659C5.03193 3.53652 4.88162 3.45996 4.72162 3.45996C4.56162 3.45996 4.41131 3.53652 4.31725 3.6659L1.36893 7.71984C1.24893 7.88477 1.24118 8.10609 1.34937 8.27896C1.45743 8.4519 1.65981 8.54177 1.86068 8.50621L3.21806 8.2654V10.2256C1.60887 11.0428 0.502933 12.7133 0.502933 14.6383L0.502808 14.6384ZM9.39693 14.6384C9.39693 16.8148 7.62631 18.5854 5.44987 18.5854C3.27343 18.5854 1.50287 16.8148 1.50287 14.6384C1.50287 12.462 3.2735 10.6914 5.44987 10.6914C7.62625 10.6914 9.39693 12.462 9.39693 14.6384ZM4.03912 7.28577C3.92581 7.19077 3.77618 7.15077 3.63062 7.17665L2.90712 7.30502L4.72162 4.81009L6.53606 7.30502L5.81262 7.17665C5.66718 7.15096 5.51737 7.19077 5.40412 7.28577C5.29081 7.38077 5.22531 7.52109 5.22531 7.66896V9.69715C4.87925 9.71271 4.54218 9.7634 4.218 9.84677V7.66902C4.218 7.52115 4.1525 7.38084 4.03918 7.28584L4.03912 7.28577ZM5.44981 11.3167C5.72593 11.3167 5.94981 11.5406 5.94981 11.8167V11.9395C6.64006 12.1461 7.14293 12.7686 7.14293 13.5025C7.14293 13.7786 6.91906 14.0025 6.64293 14.0025C6.36681 14.0025 6.14293 13.7786 6.14293 13.5025C6.14293 13.1519 5.832 12.8666 5.44981 12.8666C5.06762 12.8666 4.75668 13.1518 4.75668 13.5025C4.75668 13.9284 4.89862 14.0008 5.56031 14.1508C6.15225 14.2849 7.14287 14.5095 7.14287 15.7743C7.14287 16.5082 6.64006 17.1307 5.94975 17.3373V17.4601C5.94975 17.7363 5.72587 17.9601 5.44975 17.9601C5.17362 17.9601 4.94975 17.7363 4.94975 17.4601V17.3373C4.2595 17.1307 3.75662 16.5082 3.75662 15.7743C3.75662 15.4981 3.9805 15.2743 4.25662 15.2743C4.53275 15.2743 4.75662 15.4981 4.75662 15.7743C4.75662 16.1249 5.06756 16.4101 5.44975 16.4101C5.83193 16.4101 6.14287 16.125 6.14287 15.7743C6.14287 15.3484 6.00093 15.276 5.33925 15.126C4.74731 14.9919 3.75668 14.7673 3.75668 13.5025C3.75668 12.7686 4.2595 12.1461 4.94981 11.9395V11.8167C4.94981 11.5406 5.17368 11.3167 5.44981 11.3167ZM20.6526 10.5069L21.2946 10.653C21.3483 10.8061 21.4105 10.9563 21.4806 11.1024L21.13 11.6595C20.8642 12.0818 20.8916 12.5538 21.1996 12.8618L21.7972 13.4595C22.1053 13.7676 22.5772 13.7946 22.9995 13.529L23.5566 13.1784C23.7027 13.2485 23.8528 13.3106 24.0061 13.3644L24.1521 14.0065C24.2628 14.493 24.6159 14.8074 25.0516 14.8074H25.8966C26.3323 14.8074 26.6854 14.493 26.7961 14.0065L26.9421 13.3646C27.0953 13.3109 27.2455 13.2488 27.3918 13.1785L27.9487 13.529C28.3709 13.7947 28.8428 13.7673 29.151 13.4594L29.7486 12.8618C30.0567 12.5536 30.084 12.0818 29.8182 11.6595L29.4676 11.1023C29.5377 10.9561 29.5998 10.8061 29.6536 10.6529L30.2957 10.5068C30.7822 10.3961 31.0966 10.0431 31.0966 9.6074V8.76234C31.0966 8.32659 30.7822 7.97359 30.2957 7.8629L29.6536 7.71684C29.5999 7.56365 29.5377 7.41352 29.4676 7.2674L29.8182 6.71027C30.0839 6.28802 30.0566 5.81609 29.7486 5.5079L29.151 4.91034C28.8427 4.60215 28.3708 4.57502 27.9487 4.84077L27.3918 5.19127C27.2456 5.12102 27.0953 5.0589 26.9421 5.00509L26.7961 4.36321C26.6854 3.87671 26.3324 3.56234 25.8966 3.56234H25.0516C24.6158 3.56234 24.2628 3.87671 24.1521 4.36321L24.0061 5.00534C23.8528 5.05909 23.7027 5.12121 23.5566 5.19134L22.9995 4.84071C22.5771 4.57484 22.1052 4.60221 21.7972 4.91027L21.1996 5.5079C20.8916 5.81602 20.8643 6.2879 21.1301 6.71015L21.4807 7.26727C21.4106 7.4134 21.3484 7.56352 21.2947 7.71671L20.6527 7.86277C20.1661 7.9734 19.8517 8.3264 19.8517 8.76215V9.60721C19.8517 10.043 20.1661 10.396 20.6526 10.5066L20.6526 10.5069ZM20.8516 8.84415C20.8584 8.84215 20.866 8.84009 20.8744 8.83815L21.7967 8.6284C21.9765 8.58752 22.1191 8.45102 22.1679 8.27327C22.2431 7.9999 22.3519 7.73684 22.4914 7.4914C22.5826 7.33127 22.5781 7.1339 22.4799 6.9779L21.9762 6.17765C21.9717 6.1704 21.9677 6.16359 21.9644 6.15734L22.4465 5.67534C22.4527 5.67871 22.4595 5.68259 22.4667 5.68715L23.267 6.19084C23.4231 6.28902 23.6203 6.2934 23.7805 6.20234C24.0258 6.0629 24.2889 5.95402 24.5624 5.87884C24.7402 5.83002 24.8766 5.68734 24.9175 5.50765L25.1272 4.58521C25.1291 4.57684 25.1311 4.56927 25.1332 4.56252H25.8149C25.817 4.56927 25.819 4.57684 25.8209 4.58521L26.0306 5.50734C26.0715 5.68709 26.208 5.82977 26.3858 5.87852C26.6591 5.95359 26.9222 6.06246 27.1679 6.20221C27.3281 6.29327 27.5254 6.28896 27.6814 6.19071L28.4814 5.68715C28.4887 5.68259 28.4955 5.67865 28.5017 5.67534L28.9837 6.15734C28.9804 6.16365 28.9765 6.1704 28.9719 6.17765L28.4682 6.9779C28.3701 7.1339 28.3656 7.33121 28.4567 7.4914C28.5963 7.7369 28.7052 7.99996 28.7802 8.27321C28.829 8.45102 28.9717 8.58746 29.1514 8.6284L30.0739 8.83815C30.0822 8.84002 30.0898 8.84202 30.0966 8.84415V9.52584C30.0898 9.5279 30.0822 9.5299 30.0739 9.53184L29.1514 9.74159C28.9717 9.78246 28.829 9.91896 28.7802 10.0968C28.7052 10.37 28.5964 10.6331 28.4567 10.8786C28.3656 11.0387 28.3701 11.2361 28.4682 11.3921L28.9719 12.1923C28.9765 12.1996 28.9804 12.2064 28.9837 12.2126L28.5017 12.6946C28.4954 12.6913 28.4887 12.6874 28.4814 12.6828L27.6814 12.1793C27.5254 12.0811 27.3281 12.0767 27.1679 12.1678C26.9222 12.3075 26.6591 12.4164 26.3858 12.4915C26.208 12.5402 26.0716 12.6829 26.0306 12.8626L25.8209 13.7848C25.8191 13.7931 25.8171 13.8007 25.8149 13.8075H25.1332C25.1312 13.8007 25.1292 13.7931 25.1272 13.7848L24.9175 12.8623C24.8766 12.6826 24.7402 12.54 24.5624 12.4911C24.2889 12.416 24.0258 12.3071 23.7805 12.1676C23.6204 12.0766 23.4231 12.0809 23.267 12.1791L22.4667 12.6828C22.4595 12.6874 22.4527 12.6913 22.4465 12.6946L21.9644 12.2126C21.9678 12.2063 21.9717 12.1995 21.9762 12.1923L22.4799 11.3921C22.5781 11.2361 22.5826 11.0388 22.4914 10.8786C22.3519 10.6331 22.2431 10.3701 22.1679 10.0967C22.1191 9.91896 21.9765 9.78252 21.7967 9.74159L20.8743 9.53184C20.8659 9.52996 20.8584 9.5279 20.8516 9.52584V8.84415ZM25.4741 11.6483C26.1052 11.6483 26.7362 11.408 27.2167 10.9276C28.1776 9.96671 28.1776 8.40327 27.2167 7.44234C26.2558 6.48152 24.6924 6.48152 23.7315 7.44234C22.7706 8.40327 22.7706 9.96671 23.7315 10.9276C24.212 11.4081 24.843 11.6483 25.4741 11.6483ZM24.4387 8.14952C24.7241 7.86402 25.0991 7.72127 25.4741 7.72127C25.8491 7.72127 26.2241 7.86396 26.5096 8.14952C27.0806 8.72052 27.0806 9.64952 26.5096 10.2205C25.9386 10.7916 25.0096 10.7916 24.4386 10.2205C23.8676 9.64952 23.8676 8.72052 24.4386 8.14952H24.4387ZM10.5677 11.5973L11.925 11.3565V13.3318C11.925 13.6079 12.1489 13.8318 12.425 13.8318H14.4324C14.7085 13.8318 14.9324 13.6079 14.9324 13.3318V11.3565L16.2897 11.5973C16.4904 11.6329 16.6928 11.5431 16.801 11.3701C16.9091 11.1971 16.9014 10.9758 16.7814 10.811L13.8331 6.75696C13.7391 6.62759 13.5887 6.55102 13.4287 6.55102C13.2687 6.55102 13.1184 6.62759 13.0244 6.75696L10.076 10.811C9.956 10.9759 9.94825 11.1972 10.0564 11.3701C10.1646 11.5431 10.3667 11.6329 10.5677 11.5973H10.5677ZM13.4287 7.90109L15.2432 10.3961L14.5197 10.2677C14.3741 10.2421 14.2245 10.2818 14.1112 10.3768C13.9979 10.4718 13.9324 10.6121 13.9324 10.76V12.8318H12.925V10.76C12.925 10.6121 12.8595 10.4718 12.7462 10.3768C12.6329 10.2818 12.4831 10.242 12.3377 10.2677L11.6142 10.3961L13.4287 7.90109H13.4287Z" fill="white"/>
</svg>
