<svg width="60" height="60" viewBox="0 0 60 60" fill="none" xmlns="http://www.w3.org/2000/svg">
<path d="M56.9531 7.73438H49.9219V5.39062C49.9219 4.7434 49.3971 4.21875 48.75 4.21875H27.6562C27.009 4.21875 26.4844 4.7434 26.4844 5.39062V7.73438H15.9375V3.04688C15.9375 2.39965 15.4129 1.875 14.7656 1.875H3.04688C2.39965 1.875 1.875 2.39965 1.875 3.04688V51.0938C1.875 51.7409 2.39965 52.2656 3.04688 52.2656H28.8281V55.7812H10.6641C10.0168 55.7812 9.49219 56.306 9.49219 56.9531C9.49219 57.6002 10.0168 58.125 10.6641 58.125H49.3359C49.983 58.125 50.5078 57.6002 50.5078 56.9531C50.5078 56.306 49.983 55.7812 49.3359 55.7812H31.1719V52.2656H56.9531C57.6002 52.2656 58.125 51.7409 58.125 51.0938V8.90625C58.125 8.25902 57.6002 7.73438 56.9531 7.73438ZM28.8281 6.5625H47.5781V7.73438H28.8281V6.5625ZM13.5938 4.21875V7.73438H7.73438C7.08715 7.73438 6.5625 8.25902 6.5625 8.90625C6.5625 9.55348 7.08715 10.0781 7.73438 10.0781H55.7812V14.7656H4.21875V4.21875H13.5938ZM4.21875 49.9219V17.1094H55.7812V49.9219H4.21875Z" fill="#E600AD"/>
<path d="M56.9531 7.73438H49.9219V5.39062C49.9219 4.7434 49.3971 4.21875 48.75 4.21875H27.6562C27.009 4.21875 26.4844 4.7434 26.4844 5.39062V7.73438H15.9375V3.04688C15.9375 2.39965 15.4129 1.875 14.7656 1.875H3.04688C2.39965 1.875 1.875 2.39965 1.875 3.04688V51.0938C1.875 51.7409 2.39965 52.2656 3.04688 52.2656H28.8281V55.7812H10.6641C10.0168 55.7812 9.49219 56.306 9.49219 56.9531C9.49219 57.6002 10.0168 58.125 10.6641 58.125H49.3359C49.983 58.125 50.5078 57.6002 50.5078 56.9531C50.5078 56.306 49.983 55.7812 49.3359 55.7812H31.1719V52.2656H56.9531C57.6002 52.2656 58.125 51.7409 58.125 51.0938V8.90625C58.125 8.25902 57.6002 7.73438 56.9531 7.73438ZM28.8281 6.5625H47.5781V7.73438H28.8281V6.5625ZM13.5938 4.21875V7.73438H7.73438C7.08715 7.73438 6.5625 8.25902 6.5625 8.90625C6.5625 9.55348 7.08715 10.0781 7.73438 10.0781H55.7812V14.7656H4.21875V4.21875H13.5938ZM4.21875 49.9219V17.1094H55.7812V49.9219H4.21875Z" fill="url(#paint0_radial_29_2124)" fill-opacity="0.5"/>
<path d="M39.5176 38.0613C39.6789 37.725 39.8218 37.3812 39.9458 37.0312H42.8906C43.5377 37.0312 44.0625 36.5065 44.0625 35.8594V31.1719C44.0625 30.5248 43.5377 30 42.8906 30H39.9458C39.8217 29.65 39.6789 29.3062 39.5176 28.9698L41.601 26.8864C42.0582 26.4291 42.0585 25.6867 41.601 25.2292L38.2864 21.9145C37.8288 21.457 37.087 21.4569 36.6291 21.9145L34.5457 23.9979C34.2094 23.8366 33.8655 23.6937 33.5156 23.5697V20.625C33.5156 19.9778 32.9909 19.4531 32.3438 19.4531H27.6562C27.009 19.4531 26.4844 19.9778 26.4844 20.625V23.5698C26.1345 23.6939 25.7906 23.8368 25.4542 23.998L23.3708 21.9146C22.9134 21.4574 22.1711 21.4571 21.7136 21.9146L18.3989 25.2293C17.9415 25.6867 17.9414 26.4289 18.3989 26.8866L20.4823 28.9699C20.321 29.3063 20.178 29.6501 20.0541 30.0001H17.1094C16.4621 30.0001 15.9375 30.5249 15.9375 31.172V35.8595C15.9375 36.5066 16.4621 37.0314 17.1094 37.0314H20.0542C20.1783 37.3813 20.3211 37.7251 20.4824 38.0614L18.399 40.1448C17.9414 40.6024 17.9414 41.3445 18.399 41.8022L21.7137 45.1167C22.1711 45.5741 22.9133 45.5742 23.3709 45.1167L25.4542 43.0334C25.7905 43.1946 26.1345 43.3377 26.4844 43.4617V46.4062C26.4844 47.0534 27.009 47.5781 27.6562 47.5781H32.3438C32.9909 47.5781 33.5156 47.0534 33.5156 46.4062V43.4614C33.8655 43.3373 34.2094 43.1945 34.5457 43.0332L36.6291 45.1166C37.0867 45.574 37.8286 45.5741 38.2864 45.1166L41.601 41.8021C42.0584 41.3445 42.0585 40.6025 41.601 40.1447L39.5176 38.0613ZM37.4578 42.6306L35.5896 40.7624C35.2112 40.3842 34.6253 40.3103 34.1647 40.5821C33.4996 40.9752 32.7887 41.2707 32.0518 41.4604C31.534 41.5937 31.172 42.0606 31.172 42.5953V45.2344H28.8282V42.5952C28.8282 42.0605 28.4662 41.5936 27.9484 41.4602C27.2114 41.2706 26.5005 40.9751 25.8354 40.582C25.3748 40.3102 24.7887 40.3842 24.4105 40.7623L22.5423 42.6305L20.885 40.9732L22.7532 39.105C23.1314 38.7267 23.2055 38.1407 22.9335 37.6802C22.5404 37.015 22.245 36.3041 22.0553 35.5671C21.922 35.0494 21.455 34.6874 20.9204 34.6874H18.2812V32.3436H20.9204C21.4552 32.3436 21.922 31.9816 22.0553 31.4639C22.245 30.727 22.5405 30.0161 22.9336 29.3507C23.2056 28.8902 23.1314 28.3041 22.7532 27.9259L20.885 26.0577L22.5423 24.4004L24.4105 26.2686C24.7888 26.6468 25.375 26.721 25.8353 26.449C26.5007 26.0559 27.2116 25.7605 27.9485 25.5707C28.4664 25.4374 28.8282 24.9704 28.8282 24.4358V21.7969H31.172V24.4361C31.172 24.9708 31.534 25.4377 32.0517 25.5709C32.7887 25.7606 33.4996 26.0562 34.1648 26.4491C34.6253 26.721 35.2113 26.647 35.5896 26.2689L37.4578 24.4007L39.1151 26.0579L37.2469 27.9261C36.8687 28.3043 36.7946 28.8905 37.0666 29.351C37.4597 30.0162 37.7552 30.7271 37.9448 31.464C38.0782 31.9819 38.5451 32.3439 39.0798 32.3439H41.7188V34.6876H39.0796C38.5448 34.6876 38.078 35.0496 37.9446 35.5675C37.755 36.3043 37.4595 37.0152 37.0664 37.6804C36.7944 38.1409 36.8686 38.7271 37.2466 39.1052L39.1148 40.9734L37.4578 42.6306Z" fill="#E600AD"/>
<path d="M39.5176 38.0613C39.6789 37.725 39.8218 37.3812 39.9458 37.0312H42.8906C43.5377 37.0312 44.0625 36.5065 44.0625 35.8594V31.1719C44.0625 30.5248 43.5377 30 42.8906 30H39.9458C39.8217 29.65 39.6789 29.3062 39.5176 28.9698L41.601 26.8864C42.0582 26.4291 42.0585 25.6867 41.601 25.2292L38.2864 21.9145C37.8288 21.457 37.087 21.4569 36.6291 21.9145L34.5457 23.9979C34.2094 23.8366 33.8655 23.6937 33.5156 23.5697V20.625C33.5156 19.9778 32.9909 19.4531 32.3438 19.4531H27.6562C27.009 19.4531 26.4844 19.9778 26.4844 20.625V23.5698C26.1345 23.6939 25.7906 23.8368 25.4542 23.998L23.3708 21.9146C22.9134 21.4574 22.1711 21.4571 21.7136 21.9146L18.3989 25.2293C17.9415 25.6867 17.9414 26.4289 18.3989 26.8866L20.4823 28.9699C20.321 29.3063 20.178 29.6501 20.0541 30.0001H17.1094C16.4621 30.0001 15.9375 30.5249 15.9375 31.172V35.8595C15.9375 36.5066 16.4621 37.0314 17.1094 37.0314H20.0542C20.1783 37.3813 20.3211 37.7251 20.4824 38.0614L18.399 40.1448C17.9414 40.6024 17.9414 41.3445 18.399 41.8022L21.7137 45.1167C22.1711 45.5741 22.9133 45.5742 23.3709 45.1167L25.4542 43.0334C25.7905 43.1946 26.1345 43.3377 26.4844 43.4617V46.4062C26.4844 47.0534 27.009 47.5781 27.6562 47.5781H32.3438C32.9909 47.5781 33.5156 47.0534 33.5156 46.4062V43.4614C33.8655 43.3373 34.2094 43.1945 34.5457 43.0332L36.6291 45.1166C37.0867 45.574 37.8286 45.5741 38.2864 45.1166L41.601 41.8021C42.0584 41.3445 42.0585 40.6025 41.601 40.1447L39.5176 38.0613ZM37.4578 42.6306L35.5896 40.7624C35.2112 40.3842 34.6253 40.3103 34.1647 40.5821C33.4996 40.9752 32.7887 41.2707 32.0518 41.4604C31.534 41.5937 31.172 42.0606 31.172 42.5953V45.2344H28.8282V42.5952C28.8282 42.0605 28.4662 41.5936 27.9484 41.4602C27.2114 41.2706 26.5005 40.9751 25.8354 40.582C25.3748 40.3102 24.7887 40.3842 24.4105 40.7623L22.5423 42.6305L20.885 40.9732L22.7532 39.105C23.1314 38.7267 23.2055 38.1407 22.9335 37.6802C22.5404 37.015 22.245 36.3041 22.0553 35.5671C21.922 35.0494 21.455 34.6874 20.9204 34.6874H18.2812V32.3436H20.9204C21.4552 32.3436 21.922 31.9816 22.0553 31.4639C22.245 30.727 22.5405 30.0161 22.9336 29.3507C23.2056 28.8902 23.1314 28.3041 22.7532 27.9259L20.885 26.0577L22.5423 24.4004L24.4105 26.2686C24.7888 26.6468 25.375 26.721 25.8353 26.449C26.5007 26.0559 27.2116 25.7605 27.9485 25.5707C28.4664 25.4374 28.8282 24.9704 28.8282 24.4358V21.7969H31.172V24.4361C31.172 24.9708 31.534 25.4377 32.0517 25.5709C32.7887 25.7606 33.4996 26.0562 34.1648 26.4491C34.6253 26.721 35.2113 26.647 35.5896 26.2689L37.4578 24.4007L39.1151 26.0579L37.2469 27.9261C36.8687 28.3043 36.7946 28.8905 37.0666 29.351C37.4597 30.0162 37.7552 30.7271 37.9448 31.464C38.0782 31.9819 38.5451 32.3439 39.0798 32.3439H41.7188V34.6876H39.0796C38.5448 34.6876 38.078 35.0496 37.9446 35.5675C37.755 36.3043 37.4595 37.0152 37.0664 37.6804C36.7944 38.1409 36.8686 38.7271 37.2466 39.1052L39.1148 40.9734L37.4578 42.6306Z" fill="url(#paint1_radial_29_2124)" fill-opacity="0.5"/>
<path d="M30 27.6562C26.7691 27.6562 24.1406 30.2848 24.1406 33.5156C24.1406 36.7465 26.7691 39.375 30 39.375C33.2309 39.375 35.8594 36.7465 35.8594 33.5156C35.8594 30.2848 33.2309 27.6562 30 27.6562ZM30 37.0312C28.0615 37.0312 26.4844 35.4541 26.4844 33.5156C26.4844 31.5771 28.0615 30 30 30C31.9385 30 33.5156 31.5771 33.5156 33.5156C33.5156 35.4541 31.9385 37.0312 30 37.0312Z" fill="#E600AD"/>
<path d="M30 27.6562C26.7691 27.6562 24.1406 30.2848 24.1406 33.5156C24.1406 36.7465 26.7691 39.375 30 39.375C33.2309 39.375 35.8594 36.7465 35.8594 33.5156C35.8594 30.2848 33.2309 27.6562 30 27.6562ZM30 37.0312C28.0615 37.0312 26.4844 35.4541 26.4844 33.5156C26.4844 31.5771 28.0615 30 30 30C31.9385 30 33.5156 31.5771 33.5156 33.5156C33.5156 35.4541 31.9385 37.0312 30 37.0312Z" fill="url(#paint2_radial_29_2124)" fill-opacity="0.5"/>
<path d="M7.73438 26.4844C8.3816 26.4844 8.90625 25.9597 8.90625 25.3125V20.625C8.90625 19.9778 8.3816 19.4531 7.73438 19.4531C7.08715 19.4531 6.5625 19.9778 6.5625 20.625V25.3125C6.5625 25.9597 7.08715 26.4844 7.73438 26.4844Z" fill="#E600AD"/>
<path d="M7.73438 26.4844C8.3816 26.4844 8.90625 25.9597 8.90625 25.3125V20.625C8.90625 19.9778 8.3816 19.4531 7.73438 19.4531C7.08715 19.4531 6.5625 19.9778 6.5625 20.625V25.3125C6.5625 25.9597 7.08715 26.4844 7.73438 26.4844Z" fill="url(#paint3_radial_29_2124)" fill-opacity="0.5"/>
<path d="M17.1094 22.9688C17.1094 21.0302 15.5323 19.4531 13.5938 19.4531C11.6552 19.4531 10.0781 21.0302 10.0781 22.9688C10.0781 24.9073 11.6552 26.4844 13.5938 26.4844C15.5323 26.4844 17.1094 24.9073 17.1094 22.9688ZM13.5938 24.1406C12.9476 24.1406 12.4219 23.6149 12.4219 22.9688C12.4219 22.3226 12.9476 21.7969 13.5938 21.7969C14.2399 21.7969 14.7656 22.3226 14.7656 22.9688C14.7656 23.6149 14.2399 24.1406 13.5938 24.1406Z" fill="#E600AD"/>
<path d="M17.1094 22.9688C17.1094 21.0302 15.5323 19.4531 13.5938 19.4531C11.6552 19.4531 10.0781 21.0302 10.0781 22.9688C10.0781 24.9073 11.6552 26.4844 13.5938 26.4844C15.5323 26.4844 17.1094 24.9073 17.1094 22.9688ZM13.5938 24.1406C12.9476 24.1406 12.4219 23.6149 12.4219 22.9688C12.4219 22.3226 12.9476 21.7969 13.5938 21.7969C14.2399 21.7969 14.7656 22.3226 14.7656 22.9688C14.7656 23.6149 14.2399 24.1406 13.5938 24.1406Z" fill="url(#paint4_radial_29_2124)" fill-opacity="0.5"/>
<path d="M44.0625 40.5469C43.4154 40.5469 42.8906 41.0716 42.8906 41.7188V46.4062C42.8906 47.0534 43.4154 47.5781 44.0625 47.5781C44.7096 47.5781 45.2344 47.0534 45.2344 46.4062V41.7188C45.2344 41.0716 44.7096 40.5469 44.0625 40.5469Z" fill="#E600AD"/>
<path d="M44.0625 40.5469C43.4154 40.5469 42.8906 41.0716 42.8906 41.7188V46.4062C42.8906 47.0534 43.4154 47.5781 44.0625 47.5781C44.7096 47.5781 45.2344 47.0534 45.2344 46.4062V41.7188C45.2344 41.0716 44.7096 40.5469 44.0625 40.5469Z" fill="url(#paint5_radial_29_2124)" fill-opacity="0.5"/>
<path d="M49.9219 40.5469C47.9834 40.5469 46.4062 42.124 46.4062 44.0625C46.4062 46.001 47.9834 47.5781 49.9219 47.5781C51.8604 47.5781 53.4375 46.001 53.4375 44.0625C53.4375 42.124 51.8604 40.5469 49.9219 40.5469ZM49.9219 45.2344C49.2757 45.2344 48.75 44.7087 48.75 44.0625C48.75 43.4163 49.2757 42.8906 49.9219 42.8906C50.568 42.8906 51.0938 43.4163 51.0938 44.0625C51.0938 44.7087 50.568 45.2344 49.9219 45.2344Z" fill="#E600AD"/>
<path d="M49.9219 40.5469C47.9834 40.5469 46.4062 42.124 46.4062 44.0625C46.4062 46.001 47.9834 47.5781 49.9219 47.5781C51.8604 47.5781 53.4375 46.001 53.4375 44.0625C53.4375 42.124 51.8604 40.5469 49.9219 40.5469ZM49.9219 45.2344C49.2757 45.2344 48.75 44.7087 48.75 44.0625C48.75 43.4163 49.2757 42.8906 49.9219 42.8906C50.568 42.8906 51.0938 43.4163 51.0938 44.0625C51.0938 44.7087 50.568 45.2344 49.9219 45.2344Z" fill="url(#paint6_radial_29_2124)" fill-opacity="0.5"/>
<path d="M52.2656 19.4531C51.6185 19.4531 51.0938 19.9778 51.0938 20.625V25.3125C51.0938 25.9597 51.6185 26.4844 52.2656 26.4844C52.9127 26.4844 53.4375 25.9597 53.4375 25.3125V20.625C53.4375 19.9778 52.9127 19.4531 52.2656 19.4531Z" fill="#E600AD"/>
<path d="M52.2656 19.4531C51.6185 19.4531 51.0938 19.9778 51.0938 20.625V25.3125C51.0938 25.9597 51.6185 26.4844 52.2656 26.4844C52.9127 26.4844 53.4375 25.9597 53.4375 25.3125V20.625C53.4375 19.9778 52.9127 19.4531 52.2656 19.4531Z" fill="url(#paint7_radial_29_2124)" fill-opacity="0.5"/>
<path d="M46.4062 26.4844C48.3448 26.4844 49.9219 24.9073 49.9219 22.9688C49.9219 21.0302 48.3448 19.4531 46.4062 19.4531C44.4677 19.4531 42.8906 21.0302 42.8906 22.9688C42.8906 24.9073 44.4677 26.4844 46.4062 26.4844ZM46.4062 21.7969C47.0524 21.7969 47.5781 22.3226 47.5781 22.9688C47.5781 23.6149 47.0524 24.1406 46.4062 24.1406C45.7601 24.1406 45.2344 23.6149 45.2344 22.9688C45.2344 22.3226 45.7601 21.7969 46.4062 21.7969Z" fill="#E600AD"/>
<path d="M46.4062 26.4844C48.3448 26.4844 49.9219 24.9073 49.9219 22.9688C49.9219 21.0302 48.3448 19.4531 46.4062 19.4531C44.4677 19.4531 42.8906 21.0302 42.8906 22.9688C42.8906 24.9073 44.4677 26.4844 46.4062 26.4844ZM46.4062 21.7969C47.0524 21.7969 47.5781 22.3226 47.5781 22.9688C47.5781 23.6149 47.0524 24.1406 46.4062 24.1406C45.7601 24.1406 45.2344 23.6149 45.2344 22.9688C45.2344 22.3226 45.7601 21.7969 46.4062 21.7969Z" fill="url(#paint8_radial_29_2124)" fill-opacity="0.5"/>
<path d="M15.9375 40.5469C15.2903 40.5469 14.7656 41.0716 14.7656 41.7188V46.4062C14.7656 47.0534 15.2903 47.5781 15.9375 47.5781C16.5847 47.5781 17.1094 47.0534 17.1094 46.4062V41.7188C17.1094 41.0716 16.5847 40.5469 15.9375 40.5469Z" fill="#E600AD"/>
<path d="M15.9375 40.5469C15.2903 40.5469 14.7656 41.0716 14.7656 41.7188V46.4062C14.7656 47.0534 15.2903 47.5781 15.9375 47.5781C16.5847 47.5781 17.1094 47.0534 17.1094 46.4062V41.7188C17.1094 41.0716 16.5847 40.5469 15.9375 40.5469Z" fill="url(#paint9_radial_29_2124)" fill-opacity="0.5"/>
<path d="M10.0781 40.5469C8.13961 40.5469 6.5625 42.124 6.5625 44.0625C6.5625 46.001 8.13961 47.5781 10.0781 47.5781C12.0166 47.5781 13.5938 46.001 13.5938 44.0625C13.5938 42.124 12.0166 40.5469 10.0781 40.5469ZM10.0781 45.2344C9.43195 45.2344 8.90625 44.7087 8.90625 44.0625C8.90625 43.4163 9.43195 42.8906 10.0781 42.8906C10.7243 42.8906 11.25 43.4163 11.25 44.0625C11.25 44.7087 10.7243 45.2344 10.0781 45.2344Z" fill="#E600AD"/>
<path d="M10.0781 40.5469C8.13961 40.5469 6.5625 42.124 6.5625 44.0625C6.5625 46.001 8.13961 47.5781 10.0781 47.5781C12.0166 47.5781 13.5938 46.001 13.5938 44.0625C13.5938 42.124 12.0166 40.5469 10.0781 40.5469ZM10.0781 45.2344C9.43195 45.2344 8.90625 44.7087 8.90625 44.0625C8.90625 43.4163 9.43195 42.8906 10.0781 42.8906C10.7243 42.8906 11.25 43.4163 11.25 44.0625C11.25 44.7087 10.7243 45.2344 10.0781 45.2344Z" fill="url(#paint10_radial_29_2124)" fill-opacity="0.5"/>
<defs>
<radialGradient id="paint0_radial_29_2124" cx="0" cy="0" r="1" gradientUnits="userSpaceOnUse" gradientTransform="translate(27.5342 58.125) scale(38.1807)">
<stop stop-color="white"/>
<stop offset="1" stop-color="white" stop-opacity="0"/>
</radialGradient>
<radialGradient id="paint1_radial_29_2124" cx="0" cy="0" r="1" gradientUnits="userSpaceOnUse" gradientTransform="translate(28.7671 47.5781) scale(19.0903)">
<stop stop-color="white"/>
<stop offset="1" stop-color="white" stop-opacity="0"/>
</radialGradient>
<radialGradient id="paint2_radial_29_2124" cx="0" cy="0" r="1" gradientUnits="userSpaceOnUse" gradientTransform="translate(29.4863 39.375) scale(7.9543)">
<stop stop-color="white"/>
<stop offset="1" stop-color="white" stop-opacity="0"/>
</radialGradient>
<radialGradient id="paint3_radial_29_2124" cx="0" cy="0" r="1" gradientUnits="userSpaceOnUse" gradientTransform="translate(7.63164 26.4844) scale(1.59086 4.77258)">
<stop stop-color="white"/>
<stop offset="1" stop-color="white" stop-opacity="0"/>
</radialGradient>
<radialGradient id="paint4_radial_29_2124" cx="0" cy="0" r="1" gradientUnits="userSpaceOnUse" gradientTransform="translate(13.2855 26.4844) scale(4.77258)">
<stop stop-color="white"/>
<stop offset="1" stop-color="white" stop-opacity="0"/>
</radialGradient>
<radialGradient id="paint5_radial_29_2124" cx="0" cy="0" r="1" gradientUnits="userSpaceOnUse" gradientTransform="translate(43.9598 47.5781) scale(1.59086 4.77258)">
<stop stop-color="white"/>
<stop offset="1" stop-color="white" stop-opacity="0"/>
</radialGradient>
<radialGradient id="paint6_radial_29_2124" cx="0" cy="0" r="1" gradientUnits="userSpaceOnUse" gradientTransform="translate(49.6137 47.5781) scale(4.77258)">
<stop stop-color="white"/>
<stop offset="1" stop-color="white" stop-opacity="0"/>
</radialGradient>
<radialGradient id="paint7_radial_29_2124" cx="0" cy="0" r="1" gradientUnits="userSpaceOnUse" gradientTransform="translate(52.1629 26.4844) scale(1.59086 4.77258)">
<stop stop-color="white"/>
<stop offset="1" stop-color="white" stop-opacity="0"/>
</radialGradient>
<radialGradient id="paint8_radial_29_2124" cx="0" cy="0" r="1" gradientUnits="userSpaceOnUse" gradientTransform="translate(46.098 26.4844) scale(4.77258)">
<stop stop-color="white"/>
<stop offset="1" stop-color="white" stop-opacity="0"/>
</radialGradient>
<radialGradient id="paint9_radial_29_2124" cx="0" cy="0" r="1" gradientUnits="userSpaceOnUse" gradientTransform="translate(15.8348 47.5781) scale(1.59086 4.77258)">
<stop stop-color="white"/>
<stop offset="1" stop-color="white" stop-opacity="0"/>
</radialGradient>
<radialGradient id="paint10_radial_29_2124" cx="0" cy="0" r="1" gradientUnits="userSpaceOnUse" gradientTransform="translate(9.76991 47.5781) scale(4.77258)">
<stop stop-color="white"/>
<stop offset="1" stop-color="white" stop-opacity="0"/>
</radialGradient>
</defs>
</svg>
