<svg width="34" height="34" viewBox="0 0 34 34" fill="none" xmlns="http://www.w3.org/2000/svg">
<rect width="34" height="34" rx="17" fill="#E600AD"/>
<rect width="34" height="34" rx="17" fill="url(#paint0_radial_41_4279)" fill-opacity="0.5"/>
<path d="M10.064 16.4649C10.0976 16.448 10.1312 16.4321 10.164 16.4169C10.7339 16.1529 11.3114 15.9057 11.8881 15.6585C11.9192 15.6585 11.9713 15.6223 12.0007 15.6106C12.0453 15.5912 12.0898 15.5727 12.1344 15.5534C12.2201 15.5164 12.3058 15.4802 12.3907 15.4432C12.5622 15.3701 12.7329 15.2969 12.9043 15.2238L13.9307 14.784C14.6149 14.4914 15.3 14.198 15.9843 13.9054C16.6685 13.6127 17.3536 13.3193 18.0378 13.0267C18.7221 12.7341 19.4071 12.4406 20.0914 12.148C20.7756 11.8554 21.4607 11.5619 22.1449 11.2693C22.2971 11.2037 22.4618 11.1062 22.6249 11.0776C22.7619 11.0532 22.8956 11.0062 23.0334 10.9801C23.2949 10.9305 23.5832 10.9103 23.8337 11.0188C23.9203 11.0566 24.0001 11.1096 24.0665 11.176C24.3843 11.4905 24.3397 12.0067 24.2725 12.449C23.8042 15.5315 23.336 18.6149 22.867 21.6974C22.8031 22.1203 22.7157 22.5845 22.382 22.8519C22.0995 23.078 21.6977 23.1033 21.3489 23.0074C21 22.9107 20.6924 22.7081 20.3906 22.5088C19.139 21.6797 17.8865 20.8507 16.6349 20.0216C16.3373 19.8248 16.0061 19.5675 16.0095 19.2102C16.0112 18.9949 16.1398 18.8032 16.2709 18.6325C17.3586 17.2132 18.928 16.2378 20.0956 14.8841C20.2603 14.6932 20.3898 14.3485 20.1637 14.2383C20.0292 14.1727 19.8745 14.2619 19.7518 14.3468C18.2084 15.4189 16.666 16.4918 15.1227 17.5638C14.6191 17.9136 14.0913 18.2735 13.4844 18.3593C12.9413 18.4366 12.395 18.2853 11.8696 18.1306C11.4291 18.0011 10.9895 17.8682 10.5515 17.7312C10.3187 17.6588 10.0783 17.5807 9.89839 17.4167C9.7185 17.2527 9.61512 16.9769 9.72356 16.7583C9.79165 16.6213 9.92362 16.5346 10.0623 16.464L10.064 16.4649Z" fill="#FEFFFC"/>
<defs>
<radialGradient id="paint0_radial_41_4279" cx="0" cy="0" r="1" gradientUnits="userSpaceOnUse" gradientTransform="translate(15.5096 34) scale(23.0781)">
<stop stop-color="white"/>
<stop offset="1" stop-color="white" stop-opacity="0"/>
</radialGradient>
</defs>
</svg>
