<svg width="32" height="32" viewBox="0 0 32 32" fill="none" xmlns="http://www.w3.org/2000/svg">
<path d="M11.4055 9.49986C11.4751 9.49981 11.5439 9.48525 11.6075 9.4571C11.6712 9.42894 11.7282 9.38782 11.775 9.33636L12.4555 8.59036V16.0244C12.4555 16.157 12.5082 16.2841 12.602 16.3779C12.6958 16.4717 12.8229 16.5244 12.9555 16.5244C13.0881 16.5244 13.2153 16.4717 13.3091 16.3779C13.4029 16.2841 13.4555 16.157 13.4555 16.0244V8.58836L14.1355 9.33436C14.1798 9.38292 14.2331 9.42228 14.2926 9.45022C14.352 9.47816 14.4163 9.49412 14.482 9.49718C14.5476 9.50024 14.6131 9.49036 14.6749 9.46808C14.7367 9.44581 14.7935 9.41158 14.842 9.36736C14.8906 9.32314 14.93 9.26978 14.9579 9.21034C14.9858 9.15091 15.0018 9.08655 15.0049 9.02094C15.0079 8.95534 14.998 8.88977 14.9758 8.82799C14.9535 8.76621 14.9193 8.70941 14.875 8.66086L13.325 6.96086C13.325 6.95836 13.3185 6.95736 13.316 6.95436C13.2799 6.919 13.2386 6.88933 13.1935 6.86636C13.1795 6.85886 13.1685 6.84636 13.154 6.83986C13.0915 6.81216 13.0239 6.79785 12.9555 6.79785C12.8872 6.79785 12.8195 6.81216 12.757 6.83986C12.7428 6.84839 12.7291 6.85774 12.716 6.86786C12.6716 6.8905 12.6308 6.91965 12.595 6.95436C12.5925 6.95736 12.5885 6.95836 12.586 6.96086L11.036 8.66086C10.97 8.73241 10.9264 8.82167 10.9104 8.91769C10.8944 9.0137 10.9067 9.1123 10.946 9.20139C10.9852 9.29047 11.0496 9.36617 11.1312 9.41919C11.2129 9.47221 11.3082 9.50024 11.4055 9.49986Z" fill="white"/>
<path d="M5.57155 13.5589L6.25005 12.8124V20.2499C6.25005 20.3825 6.30273 20.5097 6.3965 20.6035C6.49026 20.6972 6.61744 20.7499 6.75005 20.7499C6.88266 20.7499 7.00984 20.6972 7.1036 20.6035C7.19737 20.5097 7.25005 20.3825 7.25005 20.2499V12.8124L7.93055 13.5589C8.01986 13.657 8.14447 13.7155 8.27697 13.7217C8.40946 13.7279 8.53899 13.6812 8.63705 13.5919C8.73511 13.5026 8.79368 13.378 8.79987 13.2455C8.80606 13.113 8.75936 12.9835 8.67005 12.8854L7.12005 11.1854C7.11755 11.1854 7.11355 11.1819 7.11105 11.1794C7.06496 11.1299 7.00916 11.0904 6.94714 11.0634C6.88512 11.0364 6.8182 11.0225 6.75055 11.0225C6.6829 11.0225 6.61598 11.0364 6.55396 11.0634C6.49194 11.0904 6.43614 11.1299 6.39005 11.1794C6.38705 11.1794 6.38355 11.1829 6.38105 11.1854L4.83105 12.8854C4.74174 12.9835 4.69504 13.113 4.70123 13.2455C4.70742 13.378 4.76599 13.5026 4.86405 13.5919C4.96211 13.6812 5.09164 13.7279 5.22413 13.7217C5.35663 13.7155 5.48124 13.657 5.57055 13.5589H5.57155Z" fill="white"/>
<path d="M30.5 28.8581H27.5745V11.6616C27.5745 11.529 27.5218 11.4018 27.4281 11.308C27.3343 11.2143 27.2071 11.1616 27.0745 11.1616H23.65C23.5174 11.1616 23.3902 11.2143 23.2964 11.308C23.2027 11.4018 23.15 11.529 23.15 11.6616V28.8581H21.3715V15.8856C21.3715 15.753 21.3188 15.6258 21.2251 15.532C21.1313 15.4383 21.0041 15.3856 20.8715 15.3856H19.543C19.1693 13.384 19.1784 11.3297 19.57 9.33159C23.57 8.81809 24.356 4.62559 24.364 4.58159C24.3762 4.51153 24.3732 4.43967 24.3554 4.37083C24.3376 4.30199 24.3053 4.23774 24.2607 4.18238C24.216 4.12701 24.1601 4.0818 24.0966 4.04976C24.0331 4.01772 23.9635 3.9996 23.8925 3.99659C22.0895 3.91859 20.708 4.37709 19.797 5.35709C19.5444 5.63073 19.3321 5.939 19.1665 6.27259C19.0011 5.93917 18.789 5.63106 18.5365 5.35759C17.6255 4.37709 16.245 3.91709 14.4405 3.99659C14.3695 3.9996 14.2999 4.01772 14.2364 4.04976C14.1729 4.0818 14.117 4.12701 14.0723 4.18238C14.0277 4.23774 13.9954 4.30199 13.9776 4.37083C13.9598 4.43967 13.9568 4.51153 13.969 4.58159C13.9765 4.62459 14.735 8.67409 18.5535 9.30309C18.1754 11.3119 18.1649 13.3726 18.5225 15.3851H17.4465C17.3139 15.3851 17.1867 15.4378 17.0929 15.5315C16.9992 15.6253 16.9465 15.7525 16.9465 15.8851V28.8581H15.168V19.2731C15.168 19.1405 15.1153 19.0133 15.0216 18.9195C14.9278 18.8258 14.8006 18.7731 14.668 18.7731H11.2425C11.1099 18.7731 10.9827 18.8258 10.8889 18.9195C10.7952 19.0133 10.7425 19.1405 10.7425 19.2731V28.8581H8.9645V23.1166C8.9645 22.984 8.91182 22.8568 8.81805 22.763C8.72429 22.6693 8.59711 22.6166 8.4645 22.6166H5.0395C4.90689 22.6166 4.77971 22.6693 4.68595 22.763C4.59218 22.8568 4.5395 22.984 4.5395 23.1166V28.8581H2V2.64209C2 2.50948 1.94732 2.3823 1.85355 2.28854C1.75979 2.19477 1.63261 2.14209 1.5 2.14209C1.36739 2.14209 1.24021 2.19477 1.14645 2.28854C1.05268 2.3823 1 2.50948 1 2.64209V29.3581C1 29.4907 1.05268 29.6179 1.14645 29.7116C1.24021 29.8054 1.36739 29.8581 1.5 29.8581H30.5C30.6326 29.8581 30.7598 29.8054 30.8536 29.7116C30.9473 29.6179 31 29.4907 31 29.3581C31 29.2255 30.9473 29.0983 30.8536 29.0045C30.7598 28.9108 30.6326 28.8581 30.5 28.8581ZM23.224 4.99409C23.017 5.71552 22.6431 6.37809 22.1325 6.9282C21.6219 7.4783 20.989 7.90048 20.285 8.16059C20.6714 7.6691 21.1614 7.26878 21.72 6.98809C21.841 6.93372 21.9355 6.83351 21.9826 6.7095C22.0297 6.58549 22.0256 6.44784 21.9713 6.32684C21.9169 6.20583 21.8167 6.11138 21.6927 6.06427C21.5687 6.01715 21.431 6.02122 21.31 6.07559C20.7836 6.32635 20.3075 6.67118 19.905 7.09309C20.0404 6.70028 20.2548 6.33936 20.535 6.03259C20.8921 5.68996 21.3136 5.42172 21.7753 5.24344C22.2369 5.06516 22.7293 4.9804 23.224 4.99409ZM15.109 4.99409C15.604 4.98019 16.0968 5.06484 16.5588 5.24313C17.0208 5.42141 17.4427 5.68977 17.8 6.03259C18.0792 6.33849 18.2931 6.69816 18.4285 7.08959C18.027 6.66961 17.5526 6.32588 17.0285 6.07509C16.9077 6.02039 16.7701 6.01592 16.646 6.06266C16.5219 6.10941 16.4215 6.20353 16.3668 6.32434C16.312 6.44515 16.3076 6.58273 16.3543 6.70684C16.4011 6.83094 16.4952 6.93139 16.616 6.98609C17.1742 7.26784 17.6638 7.66879 18.05 8.16059C17.3456 7.90071 16.7123 7.47863 16.2014 6.92852C15.6905 6.3784 15.3162 5.71571 15.109 4.99409ZM5.5395 28.8581V23.6166H7.9645V28.8581H5.5395ZM11.7425 28.8581V19.7731H14.168V28.8581H11.7425ZM17.9465 28.8581V16.3856H20.3715V28.8581H17.9465ZM24.1495 28.8581V12.1616H26.5745V28.8581H24.1495Z" fill="white"/>
</svg>
