<svg width="80" height="80" viewBox="0 0 80 80" fill="none" xmlns="http://www.w3.org/2000/svg">
<path d="M62.5 56.25C63.8787 56.25 65 57.3713 65 58.75H67.5C67.5 56.4262 65.9012 54.4862 63.75 53.9275V51.25H61.25V53.75H57.5V58.75C57.5 61.5075 59.7425 63.75 62.5 63.75C63.8787 63.75 65 64.8713 65 66.25V68.75H62.5C61.1212 68.75 60 67.6287 60 66.25H57.5C57.5 68.5737 59.0988 70.5138 61.25 71.0725V73.75H63.75V71.25H67.5V66.25C67.5 63.4925 65.2575 61.25 62.5 61.25C61.1212 61.25 60 60.1287 60 58.75V56.25H62.5Z" fill="#E600AD"/>
<path d="M62.5 56.25C63.8787 56.25 65 57.3713 65 58.75H67.5C67.5 56.4262 65.9012 54.4862 63.75 53.9275V51.25H61.25V53.75H57.5V58.75C57.5 61.5075 59.7425 63.75 62.5 63.75C63.8787 63.75 65 64.8713 65 66.25V68.75H62.5C61.1212 68.75 60 67.6287 60 66.25H57.5C57.5 68.5737 59.0988 70.5138 61.25 71.0725V73.75H63.75V71.25H67.5V66.25C67.5 63.4925 65.2575 61.25 62.5 61.25C61.1212 61.25 60 60.1287 60 58.75V56.25H62.5Z" fill="url(#paint0_radial_10_489)" fill-opacity="0.5"/>
<path d="M76.25 53.88V23.75V22.5V17.5H71.25V7.5H68.75V17.5H63.75V10H61.25V17.5H58.75V7.5V6.25V1.25H39.2275L36.7275 6.25H31.25V21.34C30.71 21.2825 30.1625 21.25 29.6087 21.25C25.4963 21.25 21.6313 22.8513 18.725 25.7575L18.1 26.3825C14.785 27.3725 12.5 30.4162 12.5 33.9037V46.25C12.5 49.0075 14.7425 51.25 17.5 51.25H19.6737C20.715 53.0887 22.095 54.725 23.75 56.0588V57.435C23.75 58.4725 23.1238 59.3875 22.1562 59.765L10.2038 64.4137C4.765 66.5287 1.25 71.665 1.25 77.5V78.75H56.25V77.5C58.22 78.32 60.345 78.75 62.5 78.75C71.46 78.75 78.75 71.46 78.75 62.5C78.75 59.3312 77.825 56.3825 76.25 53.88ZM46.3413 64.0425L41.25 62.0625V51.0725C43.4012 50.5138 45 48.5737 45 46.25V40H63.75V46.3137C63.3363 46.2812 62.9225 46.25 62.5 46.25C53.54 46.25 46.25 53.54 46.25 62.5C46.25 63.0163 46.2938 63.53 46.3413 64.0425ZM33.75 57.435V56.0588C35.405 54.725 36.7863 53.0875 37.8262 51.25H38.75V61.09L35.345 59.7663C34.3762 59.3887 33.75 58.4725 33.75 57.435ZM39.9738 43.75H40C41.3787 43.75 42.5 44.8713 42.5 46.25C42.5 47.6287 41.3787 48.75 40 48.75H38.9788C39.5588 47.165 39.9012 45.4825 39.9738 43.75ZM63.75 35V37.5H45V36.6413C45 36.0863 44.9675 35.5387 44.91 35H63.75ZM51.25 32.5V25H73.75V50.8012C71.6925 48.8225 69.1175 47.385 66.25 46.7038V32.5H51.25ZM73.75 22.5H53.75V20H73.75V22.5ZM40.7725 3.75H56.25V6.25H39.5225L40.7725 3.75ZM33.75 8.75H56.25V17.5H51.25V22.5H48.75V32.5H44.4175C42.9725 27.3412 38.9087 23.2775 33.75 21.8325V8.75ZM19.0525 28.7125L19.39 28.6287L20.4925 27.5262C22.9262 25.0912 26.1637 23.75 29.6087 23.75C36.7163 23.75 42.5 29.5325 42.5 36.6413V41.945C41.7612 41.515 40.915 41.25 40 41.25V37.5H37.8025C34.7163 37.5 31.8163 36.2987 29.6338 34.1162L28.75 33.2325L27.8662 34.1162C25.6837 36.2987 22.7838 37.5 19.6975 37.5H17.5V41.25C16.585 41.25 15.7388 41.515 15 41.945V33.9037C15 31.4437 16.6662 29.31 19.0525 28.7125ZM17.5 48.75C16.1213 48.75 15 47.6287 15 46.25C15 44.8713 16.1213 43.75 17.5 43.75H17.5262C17.5975 45.4825 17.94 47.165 18.5212 48.75H17.5ZM20 43.07V39.9975C23.2388 39.9287 26.2962 38.7713 28.75 36.6975C31.2038 38.7713 34.2612 39.9287 37.5 39.9975V43.07C37.5 48.7812 34.0025 53.9813 28.75 56.1562C23.4975 53.9825 20 48.7812 20 43.07ZM28.31 58.6712L28.75 58.835L29.19 58.67C29.9125 58.3988 30.605 58.0725 31.2712 57.71C31.33 58.8 31.7325 59.805 32.3988 60.61L32.2787 61.0525C31.8463 62.6413 30.395 63.75 28.75 63.75C27.105 63.75 25.6537 62.6412 25.2225 61.0537L25.1025 60.6112C25.7688 59.8062 26.1712 58.8013 26.23 57.71C26.8962 58.0737 27.5875 58.4 28.31 58.6712ZM46.25 76.25V71.25H43.75V76.25H13.75V71.25H11.25V76.25H3.81625C4.27 71.9812 7.03125 68.3288 11.1088 66.7438L22.9638 62.1338C23.8263 64.5725 26.1325 66.25 28.75 66.25C31.3675 66.25 33.675 64.5725 34.5363 62.1325L46.3913 66.7425C50.4688 68.3288 53.23 71.98 53.6837 76.2487L46.25 76.25ZM62.5 76.25C60.1963 76.25 57.9463 75.6513 55.9375 74.5575C55.1037 70.6038 52.6138 67.2163 49.045 65.24C48.8625 64.34 48.75 63.4238 48.75 62.5C48.75 54.9188 54.9188 48.75 62.5 48.75C70.0813 48.75 76.25 54.9188 76.25 62.5C76.25 70.0813 70.0813 76.25 62.5 76.25Z" fill="#E600AD"/>
<path d="M76.25 53.88V23.75V22.5V17.5H71.25V7.5H68.75V17.5H63.75V10H61.25V17.5H58.75V7.5V6.25V1.25H39.2275L36.7275 6.25H31.25V21.34C30.71 21.2825 30.1625 21.25 29.6087 21.25C25.4963 21.25 21.6313 22.8513 18.725 25.7575L18.1 26.3825C14.785 27.3725 12.5 30.4162 12.5 33.9037V46.25C12.5 49.0075 14.7425 51.25 17.5 51.25H19.6737C20.715 53.0887 22.095 54.725 23.75 56.0588V57.435C23.75 58.4725 23.1238 59.3875 22.1562 59.765L10.2038 64.4137C4.765 66.5287 1.25 71.665 1.25 77.5V78.75H56.25V77.5C58.22 78.32 60.345 78.75 62.5 78.75C71.46 78.75 78.75 71.46 78.75 62.5C78.75 59.3312 77.825 56.3825 76.25 53.88ZM46.3413 64.0425L41.25 62.0625V51.0725C43.4012 50.5138 45 48.5737 45 46.25V40H63.75V46.3137C63.3363 46.2812 62.9225 46.25 62.5 46.25C53.54 46.25 46.25 53.54 46.25 62.5C46.25 63.0163 46.2938 63.53 46.3413 64.0425ZM33.75 57.435V56.0588C35.405 54.725 36.7863 53.0875 37.8262 51.25H38.75V61.09L35.345 59.7663C34.3762 59.3887 33.75 58.4725 33.75 57.435ZM39.9738 43.75H40C41.3787 43.75 42.5 44.8713 42.5 46.25C42.5 47.6287 41.3787 48.75 40 48.75H38.9788C39.5588 47.165 39.9012 45.4825 39.9738 43.75ZM63.75 35V37.5H45V36.6413C45 36.0863 44.9675 35.5387 44.91 35H63.75ZM51.25 32.5V25H73.75V50.8012C71.6925 48.8225 69.1175 47.385 66.25 46.7038V32.5H51.25ZM73.75 22.5H53.75V20H73.75V22.5ZM40.7725 3.75H56.25V6.25H39.5225L40.7725 3.75ZM33.75 8.75H56.25V17.5H51.25V22.5H48.75V32.5H44.4175C42.9725 27.3412 38.9087 23.2775 33.75 21.8325V8.75ZM19.0525 28.7125L19.39 28.6287L20.4925 27.5262C22.9262 25.0912 26.1637 23.75 29.6087 23.75C36.7163 23.75 42.5 29.5325 42.5 36.6413V41.945C41.7612 41.515 40.915 41.25 40 41.25V37.5H37.8025C34.7163 37.5 31.8163 36.2987 29.6338 34.1162L28.75 33.2325L27.8662 34.1162C25.6837 36.2987 22.7838 37.5 19.6975 37.5H17.5V41.25C16.585 41.25 15.7388 41.515 15 41.945V33.9037C15 31.4437 16.6662 29.31 19.0525 28.7125ZM17.5 48.75C16.1213 48.75 15 47.6287 15 46.25C15 44.8713 16.1213 43.75 17.5 43.75H17.5262C17.5975 45.4825 17.94 47.165 18.5212 48.75H17.5ZM20 43.07V39.9975C23.2388 39.9287 26.2962 38.7713 28.75 36.6975C31.2038 38.7713 34.2612 39.9287 37.5 39.9975V43.07C37.5 48.7812 34.0025 53.9813 28.75 56.1562C23.4975 53.9825 20 48.7812 20 43.07ZM28.31 58.6712L28.75 58.835L29.19 58.67C29.9125 58.3988 30.605 58.0725 31.2712 57.71C31.33 58.8 31.7325 59.805 32.3988 60.61L32.2787 61.0525C31.8463 62.6413 30.395 63.75 28.75 63.75C27.105 63.75 25.6537 62.6412 25.2225 61.0537L25.1025 60.6112C25.7688 59.8062 26.1712 58.8013 26.23 57.71C26.8962 58.0737 27.5875 58.4 28.31 58.6712ZM46.25 76.25V71.25H43.75V76.25H13.75V71.25H11.25V76.25H3.81625C4.27 71.9812 7.03125 68.3288 11.1088 66.7438L22.9638 62.1338C23.8263 64.5725 26.1325 66.25 28.75 66.25C31.3675 66.25 33.675 64.5725 34.5363 62.1325L46.3913 66.7425C50.4688 68.3288 53.23 71.98 53.6837 76.2487L46.25 76.25ZM62.5 76.25C60.1963 76.25 57.9463 75.6513 55.9375 74.5575C55.1037 70.6038 52.6138 67.2163 49.045 65.24C48.8625 64.34 48.75 63.4238 48.75 62.5C48.75 54.9188 54.9188 48.75 62.5 48.75C70.0813 48.75 76.25 54.9188 76.25 62.5C76.25 70.0813 70.0813 76.25 62.5 76.25Z" fill="url(#paint1_radial_10_489)" fill-opacity="0.5"/>
<path d="M53.75 27.5H71.25V30H53.75V27.5Z" fill="#E600AD"/>
<path d="M53.75 27.5H71.25V30H53.75V27.5Z" fill="url(#paint2_radial_10_489)" fill-opacity="0.5"/>
<path d="M47.5 42.5H61.25V45H47.5V42.5Z" fill="#E600AD"/>
<path d="M47.5 42.5H61.25V45H47.5V42.5Z" fill="url(#paint3_radial_10_489)" fill-opacity="0.5"/>
<path d="M36.25 11.25H38.75V13.75H36.25V11.25Z" fill="#E600AD"/>
<path d="M36.25 11.25H38.75V13.75H36.25V11.25Z" fill="url(#paint4_radial_10_489)" fill-opacity="0.5"/>
<path d="M51.25 11.25H53.75V13.75H51.25V11.25Z" fill="#E600AD"/>
<path d="M51.25 11.25H53.75V13.75H51.25V11.25Z" fill="url(#paint5_radial_10_489)" fill-opacity="0.5"/>
<path d="M41.25 11.25H43.75V13.75H41.25V11.25Z" fill="#E600AD"/>
<path d="M41.25 11.25H43.75V13.75H41.25V11.25Z" fill="url(#paint6_radial_10_489)" fill-opacity="0.5"/>
<path d="M46.25 11.25H48.75V13.75H46.25V11.25Z" fill="#E600AD"/>
<path d="M46.25 11.25H48.75V13.75H46.25V11.25Z" fill="url(#paint7_radial_10_489)" fill-opacity="0.5"/>
<path d="M41.25 16.25H43.75V18.75H41.25V16.25Z" fill="#E600AD"/>
<path d="M41.25 16.25H43.75V18.75H41.25V16.25Z" fill="url(#paint8_radial_10_489)" fill-opacity="0.5"/>
<path d="M46.25 16.25H48.75V18.75H46.25V16.25Z" fill="#E600AD"/>
<path d="M46.25 16.25H48.75V18.75H46.25V16.25Z" fill="url(#paint9_radial_10_489)" fill-opacity="0.5"/>
<path d="M36.25 16.25H38.75V18.75H36.25V16.25Z" fill="#E600AD"/>
<path d="M36.25 16.25H38.75V18.75H36.25V16.25Z" fill="url(#paint10_radial_10_489)" fill-opacity="0.5"/>
<defs>
<radialGradient id="paint0_radial_10_489" cx="0" cy="0" r="1" gradientUnits="userSpaceOnUse" gradientTransform="translate(62.0616 73.75) scale(6.78767 15.2723)">
<stop stop-color="white"/>
<stop offset="1" stop-color="white" stop-opacity="0"/>
</radialGradient>
<radialGradient id="paint1_radial_10_489" cx="0" cy="0" r="1" gradientUnits="userSpaceOnUse" gradientTransform="translate(36.6027 78.75) scale(52.6045)">
<stop stop-color="white"/>
<stop offset="1" stop-color="white" stop-opacity="0"/>
</radialGradient>
<radialGradient id="paint2_radial_10_489" cx="0" cy="0" r="1" gradientUnits="userSpaceOnUse" gradientTransform="translate(61.7329 30) scale(11.8784 1.69692)">
<stop stop-color="white"/>
<stop offset="1" stop-color="white" stop-opacity="0"/>
</radialGradient>
<radialGradient id="paint3_radial_10_489" cx="0" cy="0" r="1" gradientUnits="userSpaceOnUse" gradientTransform="translate(53.7723 45) scale(9.33305 1.69692)">
<stop stop-color="white"/>
<stop offset="1" stop-color="white" stop-opacity="0"/>
</radialGradient>
<radialGradient id="paint4_radial_10_489" cx="0" cy="0" r="1" gradientUnits="userSpaceOnUse" gradientTransform="translate(37.3904 13.75) scale(1.69692)">
<stop stop-color="white"/>
<stop offset="1" stop-color="white" stop-opacity="0"/>
</radialGradient>
<radialGradient id="paint5_radial_10_489" cx="0" cy="0" r="1" gradientUnits="userSpaceOnUse" gradientTransform="translate(52.3904 13.75) scale(1.69692)">
<stop stop-color="white"/>
<stop offset="1" stop-color="white" stop-opacity="0"/>
</radialGradient>
<radialGradient id="paint6_radial_10_489" cx="0" cy="0" r="1" gradientUnits="userSpaceOnUse" gradientTransform="translate(42.3904 13.75) scale(1.69692)">
<stop stop-color="white"/>
<stop offset="1" stop-color="white" stop-opacity="0"/>
</radialGradient>
<radialGradient id="paint7_radial_10_489" cx="0" cy="0" r="1" gradientUnits="userSpaceOnUse" gradientTransform="translate(47.3904 13.75) scale(1.69692)">
<stop stop-color="white"/>
<stop offset="1" stop-color="white" stop-opacity="0"/>
</radialGradient>
<radialGradient id="paint8_radial_10_489" cx="0" cy="0" r="1" gradientUnits="userSpaceOnUse" gradientTransform="translate(42.3904 18.75) scale(1.69692)">
<stop stop-color="white"/>
<stop offset="1" stop-color="white" stop-opacity="0"/>
</radialGradient>
<radialGradient id="paint9_radial_10_489" cx="0" cy="0" r="1" gradientUnits="userSpaceOnUse" gradientTransform="translate(47.3904 18.75) scale(1.69692)">
<stop stop-color="white"/>
<stop offset="1" stop-color="white" stop-opacity="0"/>
</radialGradient>
<radialGradient id="paint10_radial_10_489" cx="0" cy="0" r="1" gradientUnits="userSpaceOnUse" gradientTransform="translate(37.3904 18.75) scale(1.69692)">
<stop stop-color="white"/>
<stop offset="1" stop-color="white" stop-opacity="0"/>
</radialGradient>
</defs>
</svg>
