<svg width="32" height="32" viewBox="0 0 32 32" fill="none" xmlns="http://www.w3.org/2000/svg">
<g clip-path="url(#clip0_6_419)">
<path d="M16.3422 14.8789H0.9375C0.41975 14.8789 0 15.2987 0 15.8164V27.3613C0 27.879 0.41975 28.2988 0.9375 28.2988H5.79769V30.1164H5.7525C5.23475 30.1164 4.815 30.5362 4.815 31.0539C4.815 31.5717 5.23475 31.9914 5.7525 31.9914H11.7394C12.2572 31.9914 12.6769 31.5717 12.6769 31.0539C12.6769 30.5362 12.2572 30.1164 11.7394 30.1164H11.7019V28.2988H16.3422C16.8599 28.2988 17.2797 27.879 17.2797 27.3613V15.8164C17.2797 15.2986 16.8599 14.8789 16.3422 14.8789ZM7.67269 30.1163V28.2987H9.82694V30.1163H7.67269ZM15.4047 26.4237H1.875V24.4481H15.4047V26.4237ZM15.4047 22.5731H1.875V16.7539H15.4047V22.5731Z" fill="white"/>
<path d="M30.5053 7.93579C31.1538 7.1031 31.5415 6.05816 31.5415 4.92385C31.5415 2.21373 29.3345 0.00878906 26.6217 0.00878906C23.909 0.00878906 21.702 2.21366 21.702 4.92385C21.702 6.05841 22.0898 7.10354 22.7386 7.93629C21.8135 8.90198 21.2435 10.2102 21.2435 11.65V18.5811C21.2435 19.0989 21.6633 19.5186 22.181 19.5186H31.0625C31.5802 19.5186 32 19.0989 32 18.5811V11.6499C32 10.2102 31.4303 8.9016 30.5053 7.93579ZM26.6217 1.88379C28.3006 1.88379 29.6665 3.24754 29.6665 4.92385C29.6665 6.60016 28.3006 7.96385 26.6217 7.96385C24.9429 7.96385 23.577 6.60016 23.577 4.92385C23.577 3.24754 24.9429 1.88379 26.6217 1.88379ZM30.125 17.6436H23.1185V11.65C23.1185 10.6821 23.5137 9.80523 24.1508 9.17123C24.8775 9.59485 25.7214 9.83885 26.6217 9.83885C27.522 9.83885 28.3659 9.59485 29.0927 9.17129C29.7297 9.80535 30.125 10.6821 30.125 11.6499V17.6436Z" fill="white"/>
<path d="M16.8201 1.86095C16.4438 1.50527 15.8505 1.52195 15.4948 1.89827C15.1392 2.27452 15.1558 2.86789 15.5321 3.22352L16.3391 3.98633H8.63978C8.12203 3.98633 7.70228 4.40608 7.70228 4.92383V9.78502L6.93596 8.9762C6.57978 8.60039 5.98653 8.58439 5.61059 8.94052C5.23471 9.29664 5.21871 9.89002 5.57484 10.2659L7.97934 12.8036C8.1564 12.9904 8.40246 13.0963 8.6599 13.0963C8.91728 13.0963 9.1634 12.9905 9.3404 12.8036L11.7047 10.3084C12.0608 9.93252 12.0448 9.33914 11.669 8.98302C11.2932 8.62695 10.6997 8.64302 10.3437 9.0187L9.57728 9.82752V5.86133H16.2965L15.4896 6.62408C15.1133 6.9797 15.0967 7.57314 15.4523 7.94939C15.6367 8.14445 15.885 8.24283 16.1338 8.24283C16.3648 8.24283 16.5964 8.15789 16.7777 7.98658L19.3183 5.58489C19.5056 5.40783 19.6117 5.16139 19.6117 4.90364C19.6117 4.64583 19.5056 4.39945 19.3182 4.22239L16.8201 1.86095Z" fill="white"/>
</g>
<defs>
<clipPath id="clip0_6_419">
<rect width="32" height="32" fill="white"/>
</clipPath>
</defs>
</svg>
