<svg width="32" height="32" viewBox="0 0 32 32" fill="none" xmlns="http://www.w3.org/2000/svg">
<g clip-path="url(#clip0_6_391)">
<path d="M17.3333 0.666748C1.99996 0.666748 4.28463 12.0001 4.28463 12.0001L0.933293 16.9447C0.760374 17.1978 0.667469 17.4969 0.666626 17.8034C0.666538 18.0046 0.706163 18.2039 0.783229 18.3898C0.860296 18.5757 0.97329 18.7445 1.11573 18.8867C1.25818 19.0288 1.42727 19.1414 1.61333 19.2181C1.79938 19.2947 1.99873 19.3339 2.19996 19.3334H4.61796C4.61796 19.3334 3.71929 24.5734 5.99996 25.3334C7.99996 26.0001 10.6666 25.3334 10.6666 25.3334L8.66663 31.3334H23.3333L23.302 31.1674C23.0231 29.6845 22.9402 28.1713 23.0553 26.6667" stroke="white" stroke-width="1.33333" stroke-linejoin="round"/>
<path d="M31.3333 8.33331C31.3337 7.03019 31.0018 5.74849 30.3691 4.60926C29.7365 3.47003 28.8238 2.51086 27.7175 1.82234C26.6111 1.13381 25.3475 0.738656 24.046 0.674185C22.7444 0.609714 21.448 0.878056 20.279 1.45387C19.11 2.02968 18.107 2.89397 17.3649 3.9651C16.6227 5.03623 16.1658 6.27885 16.0374 7.57562C15.9089 8.87239 16.1131 10.1805 16.6306 11.3764C17.1482 12.5724 17.962 13.6166 18.9953 14.4106C19.735 14.9982 20.3304 15.7473 20.7356 16.6006C21.1409 17.4539 21.3454 18.3887 21.3333 19.3333V22H26.6667V18.7706C26.6699 17.8746 26.8615 16.9893 27.229 16.1722C27.5966 15.355 28.1318 14.6242 28.8 14.0273C29.5984 13.3093 30.2366 12.4312 30.6731 11.4501C31.1096 10.4691 31.3345 9.40708 31.3333 8.33331Z" stroke="white" stroke-width="1.33333" stroke-linejoin="round"/>
<path d="M26.6667 22C26.6667 22.7072 26.3857 23.3855 25.8856 23.8856C25.3855 24.3857 24.7072 24.6667 24 24.6667H16" stroke="white" stroke-width="1.33333" stroke-linejoin="round"/>
<path d="M19.3334 19.3333H28.6667" stroke="white" stroke-width="1.33333" stroke-linejoin="round"/>
<path d="M15.3333 25.9999C16.0697 25.9999 16.6667 25.403 16.6667 24.6666C16.6667 23.9302 16.0697 23.3333 15.3333 23.3333C14.597 23.3333 14 23.9302 14 24.6666C14 25.403 14.597 25.9999 15.3333 25.9999Z" stroke="white" stroke-width="1.33333" stroke-linejoin="round"/>
<path d="M9.99996 21.3334C10.7363 21.3334 11.3333 20.7365 11.3333 20.0001C11.3333 19.2637 10.7363 18.6667 9.99996 18.6667C9.26358 18.6667 8.66663 19.2637 8.66663 20.0001C8.66663 20.7365 9.26358 21.3334 9.99996 21.3334Z" stroke="white" stroke-width="1.33333" stroke-linejoin="round"/>
<path d="M11.3334 20H16C16.8841 20 17.7319 20.3512 18.3571 20.9763C18.9822 21.6014 19.3334 22.4493 19.3334 23.3333" stroke="white" stroke-width="1.33333" stroke-linejoin="round"/>
<path d="M7.33333 16.6667C8.06971 16.6667 8.66667 16.0697 8.66667 15.3333C8.66667 14.597 8.06971 14 7.33333 14C6.59695 14 6 14.597 6 15.3333C6 16.0697 6.59695 16.6667 7.33333 16.6667Z" stroke="white" stroke-width="1.33333" stroke-linejoin="round"/>
<path d="M12.6667 5.99992C13.4031 5.99992 14 5.40297 14 4.66659C14 3.93021 13.4031 3.33325 12.6667 3.33325C11.9303 3.33325 11.3334 3.93021 11.3334 4.66659C11.3334 5.40297 11.9303 5.99992 12.6667 5.99992Z" stroke="white" stroke-width="1.33333" stroke-linejoin="round"/>
<path d="M8.66671 10.6667C9.40309 10.6667 10 10.0697 10 9.33333C10 8.59695 9.40309 8 8.66671 8C7.93033 8 7.33337 8.59695 7.33337 9.33333C7.33337 10.0697 7.93033 10.6667 8.66671 10.6667Z" stroke="white" stroke-width="1.33333" stroke-linejoin="round"/>
<path d="M8.66663 15.3333H12.6666C13.1044 15.3333 13.5378 15.4195 13.9422 15.587C14.3467 15.7545 14.7141 16 15.0236 16.3096C15.3332 16.6191 15.5787 16.9866 15.7462 17.391C15.9137 17.7954 16 18.2288 16 18.6666" stroke="white" stroke-width="1.33333" stroke-linejoin="round"/>
<path d="M10 9.33325C10.7072 9.33325 11.3855 9.6142 11.8856 10.1143C12.3857 10.6144 12.6667 11.2927 12.6667 11.9999V13.9999" stroke="white" stroke-width="1.33333" stroke-linejoin="round"/>
<path d="M12.6666 8.66667V6" stroke="white" stroke-width="1.33333" stroke-linejoin="round"/>
<path d="M19.3334 7.33325L22 9.99992L24 8.66659L26 9.99992L28.6667 7.33325" stroke="white" stroke-width="1.33333" stroke-linejoin="round"/>
<path d="M24 10.6667V18.6667" stroke="white" stroke-width="1.33333" stroke-linejoin="round"/>
</g>
<defs>
<clipPath id="clip0_6_391">
<rect width="32" height="32" fill="white"/>
</clipPath>
</defs>
</svg>
