<svg width="32" height="32" viewBox="0 0 32 32" fill="none" xmlns="http://www.w3.org/2000/svg">
<g clip-path="url(#clip0_0_30)">
<path d="M31.1774 0.822422C30.0808 -0.274141 28.2963 -0.274141 27.1996 0.822422L24.942 3.08011C21.7421 1.54748 17.8862 2.18036 15.337 4.72948L12.6851 7.38136C11.7634 8.30305 11.0684 9.42492 10.655 10.6507C9.43527 11.06 8.31764 11.7488 7.38133 12.6851L4.72945 15.337C2.18033 17.8862 1.54752 21.7422 3.08014 24.942L0.822516 27.1997C-0.274172 28.2963 -0.274172 30.0808 0.822516 31.1775C1.91914 32.2741 3.70358 32.2741 4.80027 31.1775L7.0587 28.919C10.2791 30.4613 14.1281 29.8053 16.663 27.2704L19.3148 24.6186C20.2365 23.6969 20.9315 22.575 21.3449 21.3492C22.5646 20.9399 23.6823 20.2512 24.6186 19.3149L27.2705 16.663C29.8196 14.1139 30.4524 10.2579 28.9198 7.05805L31.1774 4.80036C32.2741 3.70361 32.2741 1.91911 31.1774 0.822422ZM14.011 8.7073L16.6629 6.05542C18.4827 4.23573 21.158 3.67255 23.5091 4.51305L21.9649 6.05717C20.5165 5.85317 19.0338 6.33636 17.9889 7.38142C15.0795 10.2908 15.2244 10.1347 15.024 10.3792C14.3401 10.2422 13.6231 10.1862 12.8779 10.2269C13.1788 9.67148 13.5598 9.15861 14.011 8.7073ZM20.6408 11.3592C21.4976 12.2161 22.7842 12.4104 23.8388 11.9096C23.7035 12.1938 23.5208 12.4572 23.2926 12.6852L20.9626 15.0151C20.551 14.155 19.9941 13.3644 19.3148 12.6852C18.6266 11.997 17.8403 11.4426 16.9877 11.0344L19.3148 8.70736C19.5423 8.47992 19.8048 8.29742 20.088 8.16236C19.5995 9.18842 19.762 10.4805 20.6408 11.3592ZM6.05539 16.6629L8.70727 14.0111C11.2718 11.4465 15.4231 11.4454 17.9888 14.0111C18.5804 14.6027 19.0531 15.302 19.3807 16.0641C18.432 16.3161 17.3945 16.0687 16.6628 15.337C14.8327 13.5069 11.8634 13.5069 10.0332 15.337L7.38133 17.9889C6.33633 19.0339 5.85314 20.5167 6.05714 21.965L4.51295 23.5092C3.67245 21.158 4.2357 18.4827 6.05539 16.6629ZM11.3592 20.6407C10.4958 19.7773 9.20602 19.5941 8.16127 20.0904C8.29652 19.8062 8.4792 19.5428 8.70739 19.3147L11.0374 16.9848C11.449 17.8449 12.0059 18.6355 12.6852 19.3147C13.3734 20.0029 14.1597 20.5573 15.0123 20.9655L12.6852 23.2925C12.4578 23.52 12.1953 23.7024 11.912 23.8375C12.4013 22.8099 12.2366 21.5182 11.3592 20.6407ZM3.47433 29.8515C3.10883 30.217 2.51395 30.217 2.14839 29.8515C1.78283 29.4859 1.78283 28.8911 2.14839 28.5255L8.70733 21.9665C9.07302 21.601 9.6677 21.6011 10.0333 21.9665C10.3998 22.333 10.3998 22.9259 10.0333 23.2925L3.47433 29.8515ZM17.9889 23.2925L15.337 25.9444C13.5172 27.7642 10.842 28.3274 8.49083 27.4868L10.035 25.9427C11.5063 26.1499 12.9811 25.6484 14.011 24.6184L16.663 21.9665C16.7731 21.8563 16.8774 21.7407 16.9758 21.6206C17.6598 21.7577 18.3767 21.8136 19.122 21.773C18.8211 22.3285 18.4401 22.8414 17.9889 23.2925ZM25.9445 15.337L23.2926 17.9888C20.7321 20.5494 16.5806 20.5584 14.0111 17.9888C13.4195 17.3972 12.9468 16.6979 12.6192 15.9358C13.5679 15.6838 14.6055 15.9312 15.3371 16.6629C17.1672 18.493 20.1365 18.493 21.9667 16.6629L24.6186 14.011C25.6636 12.966 26.1468 11.4832 25.9428 10.0349L27.487 8.49073C28.3275 10.842 27.7643 13.5172 25.9445 15.337ZM29.8515 3.47436L23.2926 10.0332C22.9271 10.3988 22.3324 10.3989 21.9666 10.0332C21.6001 9.6668 21.6001 9.07386 21.9666 8.7073L28.5256 2.14842C28.8913 1.7828 29.486 1.78305 29.8515 2.14842C30.2171 2.51392 30.2171 3.1088 29.8515 3.47436Z" fill="white"/>
</g>
<defs>
<clipPath id="clip0_0_30">
<rect width="32" height="32" fill="white"/>
</clipPath>
</defs>
</svg>
