<svg width="60" height="60" viewBox="0 0 60 60" fill="none" xmlns="http://www.w3.org/2000/svg">
<g clip-path="url(#clip0_29_1796)">
<path d="M57 27C55.698 27 54.598 27.839 54.184 29H48V25H54C54.553 25 55 24.553 55 24C55 23.447 54.553 23 54 23H48V19H55C56.103 19 57 18.103 57 17V14.816C58.161 14.402 59 13.302 59 12C59 10.346 57.654 9 56 9C54.346 9 53 10.346 53 12C53 13.302 53.839 14.402 55 14.816V17H48V16C48 13.794 46.206 12 44 12H43V5H45.184C45.598 6.161 46.698 7 48 7C49.654 7 51 5.654 51 4C51 2.346 49.654 1 48 1C46.698 1 45.598 1.839 45.184 3H43C41.897 3 41 3.897 41 5V12H37V6C37 5.447 36.553 5 36 5C35.447 5 35 5.447 35 6V12H31V5.816C32.161 5.402 33 4.302 33 3C33 1.346 31.654 0 30 0C28.346 0 27 1.346 27 3C27 4.302 27.839 5.402 29 5.816V12H25V6C25 5.447 24.553 5 24 5C23.447 5 23 5.447 23 6V12H19V5C19 3.897 18.103 3 17 3H14.816C14.402 1.839 13.302 1 12 1C10.346 1 9 2.346 9 4C9 5.654 10.346 7 12 7C13.302 7 14.402 6.161 14.816 5H17V12H16C13.794 12 12 13.794 12 16V17H5V14.816C6.161 14.402 7 13.302 7 12C7 10.346 5.654 9 4 9C2.346 9 1 10.346 1 12C1 13.302 1.839 14.402 3 14.816V17C3 18.103 3.897 19 5 19H12V23H6C5.447 23 5 23.447 5 24C5 24.553 5.447 25 6 25H12V29H5.816C5.402 27.839 4.302 27 3 27C1.346 27 0 28.346 0 30C0 31.654 1.346 33 3 33C4.302 33 5.402 32.161 5.816 31H12V35H6C5.447 35 5 35.447 5 36C5 36.553 5.447 37 6 37H12V41H5C3.897 41 3 41.897 3 43V45.184C1.839 45.598 1 46.698 1 48C1 49.654 2.346 51 4 51C5.654 51 7 49.654 7 48C7 46.698 6.161 45.598 5 45.184V43H12V44C12 46.206 13.794 48 16 48H17V55H14.816C14.402 53.839 13.302 53 12 53C10.346 53 9 54.346 9 56C9 57.654 10.346 59 12 59C13.302 59 14.402 58.161 14.816 57H17C18.103 57 19 56.103 19 55V48H23V54C23 54.553 23.447 55 24 55C24.553 55 25 54.553 25 54V48H29V54.184C27.839 54.598 27 55.698 27 57C27 58.654 28.346 60 30 60C31.654 60 33 58.654 33 57C33 55.698 32.161 54.598 31 54.184V48H35V54C35 54.553 35.447 55 36 55C36.553 55 37 54.553 37 54V48H41V55C41 56.103 41.897 57 43 57H45.184C45.598 58.161 46.698 59 48 59C49.654 59 51 57.654 51 56C51 54.346 49.654 53 48 53C46.698 53 45.598 53.839 45.184 55H43V48H44C46.206 48 48 46.206 48 44V43H55V45.184C53.839 45.598 53 46.698 53 48C53 49.654 54.346 51 56 51C57.654 51 59 49.654 59 48C59 46.698 58.161 45.598 57 45.184V43C57 41.897 56.103 41 55 41H48V37H54C54.553 37 55 36.553 55 36C55 35.447 54.553 35 54 35H48V31H54.184C54.598 32.161 55.698 33 57 33C58.654 33 60 31.654 60 30C60 28.346 58.654 27 57 27ZM56 11C56.552 11 57 11.448 57 12C57 12.552 56.552 13 56 13C55.448 13 55 12.552 55 12C55 11.448 55.448 11 56 11ZM48 3C48.552 3 49 3.448 49 4C49 4.552 48.552 5 48 5C47.448 5 47 4.552 47 4C47 3.448 47.448 3 48 3ZM30 2C30.552 2 31 2.448 31 3C31 3.552 30.552 4 30 4C29.448 4 29 3.552 29 3C29 2.448 29.448 2 30 2ZM12 5C11.448 5 11 4.552 11 4C11 3.448 11.448 3 12 3C12.552 3 13 3.448 13 4C13 4.552 12.552 5 12 5ZM4 11C4.552 11 5 11.448 5 12C5 12.552 4.552 13 4 13C3.448 13 3 12.552 3 12C3 11.448 3.448 11 4 11ZM3 31C2.448 31 2 30.552 2 30C2 29.448 2.448 29 3 29C3.552 29 4 29.448 4 30C4 30.552 3.552 31 3 31ZM4 49C3.448 49 3 48.552 3 48C3 47.448 3.448 47 4 47C4.552 47 5 47.448 5 48C5 48.552 4.552 49 4 49ZM12 57C11.448 57 11 56.552 11 56C11 55.448 11.448 55 12 55C12.552 55 13 55.448 13 56C13 56.552 12.552 57 12 57ZM30 58C29.448 58 29 57.552 29 57C29 56.448 29.448 56 30 56C30.552 56 31 56.448 31 57C31 57.552 30.552 58 30 58ZM48 55C48.552 55 49 55.448 49 56C49 56.552 48.552 57 48 57C47.448 57 47 56.552 47 56C47 55.448 47.448 55 48 55ZM56 49C55.448 49 55 48.552 55 48C55 47.448 55.448 47 56 47C56.552 47 57 47.448 57 48C57 48.552 56.552 49 56 49ZM46 44C46 45.103 45.103 46 44 46H16C14.897 46 14 45.103 14 44V16C14 14.897 14.897 14 16 14H44C45.103 14 46 14.897 46 16V44ZM57 31C56.448 31 56 30.552 56 30C56 29.448 56.448 29 57 29C57.552 29 58 29.448 58 30C58 30.552 57.552 31 57 31Z" fill="#E600AD"/>
<path d="M57 27C55.698 27 54.598 27.839 54.184 29H48V25H54C54.553 25 55 24.553 55 24C55 23.447 54.553 23 54 23H48V19H55C56.103 19 57 18.103 57 17V14.816C58.161 14.402 59 13.302 59 12C59 10.346 57.654 9 56 9C54.346 9 53 10.346 53 12C53 13.302 53.839 14.402 55 14.816V17H48V16C48 13.794 46.206 12 44 12H43V5H45.184C45.598 6.161 46.698 7 48 7C49.654 7 51 5.654 51 4C51 2.346 49.654 1 48 1C46.698 1 45.598 1.839 45.184 3H43C41.897 3 41 3.897 41 5V12H37V6C37 5.447 36.553 5 36 5C35.447 5 35 5.447 35 6V12H31V5.816C32.161 5.402 33 4.302 33 3C33 1.346 31.654 0 30 0C28.346 0 27 1.346 27 3C27 4.302 27.839 5.402 29 5.816V12H25V6C25 5.447 24.553 5 24 5C23.447 5 23 5.447 23 6V12H19V5C19 3.897 18.103 3 17 3H14.816C14.402 1.839 13.302 1 12 1C10.346 1 9 2.346 9 4C9 5.654 10.346 7 12 7C13.302 7 14.402 6.161 14.816 5H17V12H16C13.794 12 12 13.794 12 16V17H5V14.816C6.161 14.402 7 13.302 7 12C7 10.346 5.654 9 4 9C2.346 9 1 10.346 1 12C1 13.302 1.839 14.402 3 14.816V17C3 18.103 3.897 19 5 19H12V23H6C5.447 23 5 23.447 5 24C5 24.553 5.447 25 6 25H12V29H5.816C5.402 27.839 4.302 27 3 27C1.346 27 0 28.346 0 30C0 31.654 1.346 33 3 33C4.302 33 5.402 32.161 5.816 31H12V35H6C5.447 35 5 35.447 5 36C5 36.553 5.447 37 6 37H12V41H5C3.897 41 3 41.897 3 43V45.184C1.839 45.598 1 46.698 1 48C1 49.654 2.346 51 4 51C5.654 51 7 49.654 7 48C7 46.698 6.161 45.598 5 45.184V43H12V44C12 46.206 13.794 48 16 48H17V55H14.816C14.402 53.839 13.302 53 12 53C10.346 53 9 54.346 9 56C9 57.654 10.346 59 12 59C13.302 59 14.402 58.161 14.816 57H17C18.103 57 19 56.103 19 55V48H23V54C23 54.553 23.447 55 24 55C24.553 55 25 54.553 25 54V48H29V54.184C27.839 54.598 27 55.698 27 57C27 58.654 28.346 60 30 60C31.654 60 33 58.654 33 57C33 55.698 32.161 54.598 31 54.184V48H35V54C35 54.553 35.447 55 36 55C36.553 55 37 54.553 37 54V48H41V55C41 56.103 41.897 57 43 57H45.184C45.598 58.161 46.698 59 48 59C49.654 59 51 57.654 51 56C51 54.346 49.654 53 48 53C46.698 53 45.598 53.839 45.184 55H43V48H44C46.206 48 48 46.206 48 44V43H55V45.184C53.839 45.598 53 46.698 53 48C53 49.654 54.346 51 56 51C57.654 51 59 49.654 59 48C59 46.698 58.161 45.598 57 45.184V43C57 41.897 56.103 41 55 41H48V37H54C54.553 37 55 36.553 55 36C55 35.447 54.553 35 54 35H48V31H54.184C54.598 32.161 55.698 33 57 33C58.654 33 60 31.654 60 30C60 28.346 58.654 27 57 27ZM56 11C56.552 11 57 11.448 57 12C57 12.552 56.552 13 56 13C55.448 13 55 12.552 55 12C55 11.448 55.448 11 56 11ZM48 3C48.552 3 49 3.448 49 4C49 4.552 48.552 5 48 5C47.448 5 47 4.552 47 4C47 3.448 47.448 3 48 3ZM30 2C30.552 2 31 2.448 31 3C31 3.552 30.552 4 30 4C29.448 4 29 3.552 29 3C29 2.448 29.448 2 30 2ZM12 5C11.448 5 11 4.552 11 4C11 3.448 11.448 3 12 3C12.552 3 13 3.448 13 4C13 4.552 12.552 5 12 5ZM4 11C4.552 11 5 11.448 5 12C5 12.552 4.552 13 4 13C3.448 13 3 12.552 3 12C3 11.448 3.448 11 4 11ZM3 31C2.448 31 2 30.552 2 30C2 29.448 2.448 29 3 29C3.552 29 4 29.448 4 30C4 30.552 3.552 31 3 31ZM4 49C3.448 49 3 48.552 3 48C3 47.448 3.448 47 4 47C4.552 47 5 47.448 5 48C5 48.552 4.552 49 4 49ZM12 57C11.448 57 11 56.552 11 56C11 55.448 11.448 55 12 55C12.552 55 13 55.448 13 56C13 56.552 12.552 57 12 57ZM30 58C29.448 58 29 57.552 29 57C29 56.448 29.448 56 30 56C30.552 56 31 56.448 31 57C31 57.552 30.552 58 30 58ZM48 55C48.552 55 49 55.448 49 56C49 56.552 48.552 57 48 57C47.448 57 47 56.552 47 56C47 55.448 47.448 55 48 55ZM56 49C55.448 49 55 48.552 55 48C55 47.448 55.448 47 56 47C56.552 47 57 47.448 57 48C57 48.552 56.552 49 56 49ZM46 44C46 45.103 45.103 46 44 46H16C14.897 46 14 45.103 14 44V16C14 14.897 14.897 14 16 14H44C45.103 14 46 14.897 46 16V44ZM57 31C56.448 31 56 30.552 56 30C56 29.448 56.448 29 57 29C57.552 29 58 29.448 58 30C58 30.552 57.552 31 57 31Z" fill="url(#paint0_radial_29_1796)" fill-opacity="0.5"/>
<path d="M25.511 22.21C25.352 21.498 24.731 21 24 21C23.269 21 22.648 21.498 22.488 22.212L19.023 37.783C18.904 38.322 19.244 38.856 19.783 38.976C20.314 39.094 20.855 38.757 20.976 38.216L22.137 32.999H25.862L27.023 38.216C27.127 38.683 27.541 38.999 27.999 38.999C28.071 38.999 28.145 38.991 28.217 38.976C28.756 38.856 29.096 38.322 28.977 37.783L25.511 22.21ZM22.583 31L24.001 24.628L25.419 31H22.583Z" fill="#E600AD"/>
<path d="M25.511 22.21C25.352 21.498 24.731 21 24 21C23.269 21 22.648 21.498 22.488 22.212L19.023 37.783C18.904 38.322 19.244 38.856 19.783 38.976C20.314 39.094 20.855 38.757 20.976 38.216L22.137 32.999H25.862L27.023 38.216C27.127 38.683 27.541 38.999 27.999 38.999C28.071 38.999 28.145 38.991 28.217 38.976C28.756 38.856 29.096 38.322 28.977 37.783L25.511 22.21ZM22.583 31L24.001 24.628L25.419 31H22.583Z" fill="url(#paint1_radial_29_1796)" fill-opacity="0.5"/>
<path d="M38 23C38.553 23 39 22.553 39 22C39 21.447 38.553 21 38 21H32C31.447 21 31 21.447 31 22C31 22.553 31.447 23 32 23H34V37H32C31.447 37 31 37.447 31 38C31 38.553 31.447 39 32 39H38C38.553 39 39 38.553 39 38C39 37.447 38.553 37 38 37H36V23H38Z" fill="#E600AD"/>
<path d="M38 23C38.553 23 39 22.553 39 22C39 21.447 38.553 21 38 21H32C31.447 21 31 21.447 31 22C31 22.553 31.447 23 32 23H34V37H32C31.447 37 31 37.447 31 38C31 38.553 31.447 39 32 39H38C38.553 39 39 38.553 39 38C39 37.447 38.553 37 38 37H36V23H38Z" fill="url(#paint2_radial_29_1796)" fill-opacity="0.5"/>
</g>
<defs>
<radialGradient id="paint0_radial_29_1796" cx="0" cy="0" r="1" gradientUnits="userSpaceOnUse" gradientTransform="translate(27.3699 60) scale(40.726)">
<stop stop-color="white"/>
<stop offset="1" stop-color="white" stop-opacity="0"/>
</radialGradient>
<radialGradient id="paint1_radial_29_1796" cx="0" cy="0" r="1" gradientUnits="userSpaceOnUse" gradientTransform="translate(23.5616 38.9995) scale(6.78867 12.2175)">
<stop stop-color="white"/>
<stop offset="1" stop-color="white" stop-opacity="0"/>
</radialGradient>
<radialGradient id="paint2_radial_29_1796" cx="0" cy="0" r="1" gradientUnits="userSpaceOnUse" gradientTransform="translate(34.6493 39) scale(5.43014 12.2178)">
<stop stop-color="white"/>
<stop offset="1" stop-color="white" stop-opacity="0"/>
</radialGradient>
<clipPath id="clip0_29_1796">
<rect width="60" height="60" fill="white"/>
</clipPath>
</defs>
</svg>
