<svg width="34" height="27" viewBox="0 0 34 27" fill="none" xmlns="http://www.w3.org/2000/svg">
<path fill-rule="evenodd" clip-rule="evenodd" d="M9.01005 3.06C9.01005 1.36999 10.38 0 12.07 0H14.28C15.97 0 17.34 1.36999 17.34 3.06V5.43999H18.53V3.06C18.53 1.36999 19.9 0 21.59 0H23.8C25.49 0 26.86 1.36999 26.86 3.06V5.43999H32.3C33.2388 5.43999 34 6.20112 34 7.13999V16.8231V16.8629V25.16V25.1673V25.1789V26.18C34 26.5555 33.6954 26.86 33.32 26.86H32.3061H32.3H1.70005H1.69404H0.680158C0.304594 26.86 0.000158238 26.5555 0.000158238 26.18V25.1791C9.02384e-05 25.1728 5.60999e-05 25.1664 5.60999e-05 25.16V16.8628C-1.87e-05 16.8495 -1.87e-05 16.8364 5.60999e-05 16.8232V7.13999C5.60999e-05 6.20112 0.761179 5.43999 1.70005 5.43999H9.01005V3.06ZM31.28 8.15999V13.652C30.3035 13.4779 29.1751 13.7661 28.3803 14.512C27.9222 14.109 27.3879 13.8672 26.86 13.7535V8.15999H31.28ZM24.14 12.58V14.3078C24.0505 14.3712 23.963 14.4399 23.8783 14.5139C23.2591 13.9257 22.4136 13.6038 21.5612 13.6038C20.7088 13.6038 19.8633 13.9257 19.2441 14.5139C18.6714 14.0136 17.9744 13.7588 17.34 13.6926V12.58H24.14ZM14.62 8.15999H2.72005V13.652C3.6965 13.4779 4.82499 13.7661 5.61981 14.512C6.34642 13.8728 7.26486 13.6389 8.04523 13.6792C8.72333 13.7142 9.49648 13.9677 10.1215 14.5137C10.7509 13.9158 11.6137 13.5938 12.4799 13.6042C13.2574 13.6134 14.0263 13.8899 14.62 14.3914V8.15999ZM24.14 8.15999V9.85999H17.34V8.15999H24.14ZM31.28 16.8472V16.8494V16.8583V24.14H2.72015V16.8583C2.72002 16.8516 2.72002 16.845 2.72015 16.8384C2.72532 16.5925 2.92222 16.3754 3.20227 16.3289C3.52238 16.2757 3.82991 16.4654 3.88918 16.7526C4.02681 17.4196 4.85681 17.6363 5.44015 17.6422C6.1363 17.6493 6.86744 17.3642 7.30485 16.6862C7.57433 16.2685 8.24926 16.3117 8.4651 16.7377C8.80326 17.4052 9.56003 17.6698 10.3673 17.5954C10.8668 17.5493 11.6302 17.3509 11.843 16.824C11.8778 16.1484 13.0225 16.161 13.0353 16.8395C13.1727 17.2389 13.6809 17.5855 14.4161 17.6364C15.1543 17.6875 15.9589 17.4119 16.4271 16.6862C16.6966 16.2685 17.3716 16.3117 17.5874 16.7377C18.1022 17.7538 19.6383 17.8162 20.5349 17.2713C20.7693 17.1289 20.9057 16.9716 20.9653 16.824C20.9998 16.157 22.1226 16.157 22.1571 16.824C22.2167 16.9716 22.3531 17.1289 22.5874 17.2713C23.484 17.8162 25.0202 17.7538 25.535 16.7377C25.7508 16.3117 26.4257 16.2685 26.6952 16.6862C27.1326 17.3642 27.8638 17.6493 28.5599 17.6422C29.1433 17.6363 29.9733 17.4196 30.1109 16.7526C30.1702 16.4654 30.4777 16.2757 30.7979 16.3289C31.0777 16.3754 31.2746 16.5925 31.28 16.8384V16.8472ZM24.14 5.43999V3.06C24.14 2.87221 23.9878 2.72 23.8 2.72H21.59C21.4023 2.72 21.25 2.87221 21.25 3.06V5.43999H24.14ZM14.62 3.06V5.43999H11.73V3.06C11.73 2.87221 11.8823 2.72 12.07 2.72H14.28C14.4678 2.72 14.62 2.87221 14.62 3.06Z" fill="white"/>
</svg>
