<svg width="80" height="80" viewBox="0 0 80 80" fill="none" xmlns="http://www.w3.org/2000/svg">
<path d="M3.75 64.8962V77.5H6.25V64.8962C6.25 62.6162 10.415 62.5 11.25 62.5H24.125C24.4091 62.5002 24.6847 62.5972 24.9062 62.775L30.4713 67.2262C30.6012 67.329 30.7498 67.4058 30.9087 67.4525L38.75 69.6925V71.1037L29.25 70.0475L23.2838 65.2737C23.0999 65.1258 22.878 65.0329 22.6435 65.0058C22.4091 64.9787 22.1718 65.0185 21.9591 65.1206C21.7463 65.2227 21.5668 65.383 21.4414 65.5828C21.3159 65.7827 21.2495 66.014 21.25 66.25V77.5H23.75V68.8512L27.9688 72.2262C28.154 72.3738 28.3771 72.4661 28.6125 72.4925L39.8625 73.7425C39.9532 73.7241 40.0468 73.7241 40.1375 73.7425L51.3875 72.4925C51.6229 72.4661 51.846 72.3738 52.0312 72.2262L56.25 68.8512V77.5H58.75V66.25C58.7501 66.0144 58.6836 65.7837 58.5583 65.5843C58.4329 65.3848 58.2538 65.2249 58.0415 65.1229C57.8292 65.0208 57.5924 64.9809 57.3584 65.0076C57.1243 65.0342 56.9026 65.1265 56.7188 65.2737L50.75 70.0475L41.25 71.1037V69.6925L49.0938 67.4525C49.2527 67.4058 49.4013 67.329 49.5312 67.2262L55.0975 62.7737C55.3183 62.5972 55.5923 62.5007 55.875 62.5H68.75C69.585 62.5 73.75 62.6162 73.75 64.8962V77.5H76.25V64.8962C76.25 61.83 73.4463 60 68.75 60H67.5225C68.6545 59.432 69.5617 58.4987 70.0973 57.351C70.6329 56.2034 70.7655 54.9086 70.4736 53.6762C70.1818 52.4438 69.4826 51.3459 68.4893 50.5603C67.4959 49.7747 66.2665 49.3473 65 49.3473C63.7335 49.3473 62.5041 49.7747 61.5107 50.5603C60.5174 51.3459 59.8182 52.4438 59.5264 53.6762C59.2345 54.9086 59.3671 56.2034 59.9027 57.351C60.4383 58.4987 61.3455 59.432 62.4775 60H55.875C55.0236 59.9999 54.1975 60.2895 53.5325 60.8212L48.1575 65.1175L40 67.45L31.835 65.1175L26.46 60.8225C25.7972 60.2919 24.974 60.0019 24.125 60H17.525C18.657 59.432 19.5642 58.4987 20.0998 57.351C20.6354 56.2034 20.768 54.9086 20.4761 53.6762C20.1843 52.4438 19.4851 51.3459 18.4918 50.5603C17.4984 49.7747 16.269 49.3473 15.0025 49.3473C13.736 49.3473 12.5066 49.7747 11.5132 50.5603C10.5199 51.3459 9.82069 52.4438 9.52887 53.6762C9.23704 54.9086 9.36965 56.2034 9.90523 57.351C10.4408 58.4987 11.348 59.432 12.48 60H11.25C6.55375 60 3.75 61.83 3.75 64.8962ZM65 51.875C65.6181 51.875 66.2223 52.0583 66.7362 52.4016C67.2501 52.745 67.6506 53.2331 67.8871 53.8041C68.1236 54.3751 68.1855 55.0034 68.0649 55.6096C67.9444 56.2158 67.6468 56.7726 67.2097 57.2097C66.7727 57.6467 66.2158 57.9443 65.6097 58.0649C65.0035 58.1855 64.3751 58.1236 63.8041 57.8871C63.2331 57.6506 62.745 57.25 62.4017 56.7361C62.0583 56.2222 61.875 55.618 61.875 55C61.875 54.1712 62.2042 53.3763 62.7903 52.7903C63.3763 52.2042 64.1712 51.875 65 51.875ZM15 51.875C15.6181 51.875 16.2223 52.0583 16.7362 52.4016C17.2501 52.745 17.6506 53.2331 17.8871 53.8041C18.1236 54.3751 18.1855 55.0034 18.065 55.6096C17.9444 56.2158 17.6467 56.7726 17.2097 57.2097C16.7727 57.6467 16.2158 57.9443 15.6097 58.0649C15.0035 58.1855 14.3751 58.1236 13.8041 57.8871C13.2331 57.6506 12.745 57.25 12.4017 56.7361C12.0583 56.2222 11.875 55.618 11.875 55C11.875 54.1712 12.2042 53.3763 12.7903 52.7903C13.3763 52.2042 14.1712 51.875 15 51.875Z" fill="#E600AD"/>
<path d="M3.75 64.8962V77.5H6.25V64.8962C6.25 62.6162 10.415 62.5 11.25 62.5H24.125C24.4091 62.5002 24.6847 62.5972 24.9062 62.775L30.4713 67.2262C30.6012 67.329 30.7498 67.4058 30.9087 67.4525L38.75 69.6925V71.1037L29.25 70.0475L23.2838 65.2737C23.0999 65.1258 22.878 65.0329 22.6435 65.0058C22.4091 64.9787 22.1718 65.0185 21.9591 65.1206C21.7463 65.2227 21.5668 65.383 21.4414 65.5828C21.3159 65.7827 21.2495 66.014 21.25 66.25V77.5H23.75V68.8512L27.9688 72.2262C28.154 72.3738 28.3771 72.4661 28.6125 72.4925L39.8625 73.7425C39.9532 73.7241 40.0468 73.7241 40.1375 73.7425L51.3875 72.4925C51.6229 72.4661 51.846 72.3738 52.0312 72.2262L56.25 68.8512V77.5H58.75V66.25C58.7501 66.0144 58.6836 65.7837 58.5583 65.5843C58.4329 65.3848 58.2538 65.2249 58.0415 65.1229C57.8292 65.0208 57.5924 64.9809 57.3584 65.0076C57.1243 65.0342 56.9026 65.1265 56.7188 65.2737L50.75 70.0475L41.25 71.1037V69.6925L49.0938 67.4525C49.2527 67.4058 49.4013 67.329 49.5312 67.2262L55.0975 62.7737C55.3183 62.5972 55.5923 62.5007 55.875 62.5H68.75C69.585 62.5 73.75 62.6162 73.75 64.8962V77.5H76.25V64.8962C76.25 61.83 73.4463 60 68.75 60H67.5225C68.6545 59.432 69.5617 58.4987 70.0973 57.351C70.6329 56.2034 70.7655 54.9086 70.4736 53.6762C70.1818 52.4438 69.4826 51.3459 68.4893 50.5603C67.4959 49.7747 66.2665 49.3473 65 49.3473C63.7335 49.3473 62.5041 49.7747 61.5107 50.5603C60.5174 51.3459 59.8182 52.4438 59.5264 53.6762C59.2345 54.9086 59.3671 56.2034 59.9027 57.351C60.4383 58.4987 61.3455 59.432 62.4775 60H55.875C55.0236 59.9999 54.1975 60.2895 53.5325 60.8212L48.1575 65.1175L40 67.45L31.835 65.1175L26.46 60.8225C25.7972 60.2919 24.974 60.0019 24.125 60H17.525C18.657 59.432 19.5642 58.4987 20.0998 57.351C20.6354 56.2034 20.768 54.9086 20.4761 53.6762C20.1843 52.4438 19.4851 51.3459 18.4918 50.5603C17.4984 49.7747 16.269 49.3473 15.0025 49.3473C13.736 49.3473 12.5066 49.7747 11.5132 50.5603C10.5199 51.3459 9.82069 52.4438 9.52887 53.6762C9.23704 54.9086 9.36965 56.2034 9.90523 57.351C10.4408 58.4987 11.348 59.432 12.48 60H11.25C6.55375 60 3.75 61.83 3.75 64.8962ZM65 51.875C65.6181 51.875 66.2223 52.0583 66.7362 52.4016C67.2501 52.745 67.6506 53.2331 67.8871 53.8041C68.1236 54.3751 68.1855 55.0034 68.0649 55.6096C67.9444 56.2158 67.6468 56.7726 67.2097 57.2097C66.7727 57.6467 66.2158 57.9443 65.6097 58.0649C65.0035 58.1855 64.3751 58.1236 63.8041 57.8871C63.2331 57.6506 62.745 57.25 62.4017 56.7361C62.0583 56.2222 61.875 55.618 61.875 55C61.875 54.1712 62.2042 53.3763 62.7903 52.7903C63.3763 52.2042 64.1712 51.875 65 51.875ZM15 51.875C15.6181 51.875 16.2223 52.0583 16.7362 52.4016C17.2501 52.745 17.6506 53.2331 17.8871 53.8041C18.1236 54.3751 18.1855 55.0034 18.065 55.6096C17.9444 56.2158 17.6467 56.7726 17.2097 57.2097C16.7727 57.6467 16.2158 57.9443 15.6097 58.0649C15.0035 58.1855 14.3751 58.1236 13.8041 57.8871C13.2331 57.6506 12.745 57.25 12.4017 56.7361C12.0583 56.2222 11.875 55.618 11.875 55C11.875 54.1712 12.2042 53.3763 12.7903 52.7903C13.3763 52.2042 14.1712 51.875 15 51.875Z" fill="url(#paint0_radial_10_607)" fill-opacity="0.5"/>
<path d="M72.5 3.75C72.5 3.41848 72.3683 3.10054 72.1339 2.86612C71.8995 2.6317 71.5815 2.5 71.25 2.5H50C49.6685 2.5 49.3505 2.6317 49.1161 2.86612C48.8817 3.10054 48.75 3.41848 48.75 3.75V17.5H46.25V13.75C46.25 13.4185 46.1183 13.1005 45.8839 12.8661C45.6495 12.6317 45.3315 12.5 45 12.5H44.5225L41.125 5.69125C41.0095 5.49753 40.8457 5.33712 40.6496 5.22572C40.4535 5.11433 40.2318 5.05576 40.0063 5.05576C39.7807 5.05576 39.559 5.11433 39.3629 5.22572C39.1668 5.33712 39.003 5.49753 38.8875 5.69125L35.4775 12.5H35C34.6685 12.5 34.3505 12.6317 34.1161 12.8661C33.8817 13.1005 33.75 13.4185 33.75 13.75V17.5H31.25V10C31.25 9.66848 31.1183 9.35054 30.8839 9.11612C30.6495 8.8817 30.3315 8.75 30 8.75H26.25V5C26.2498 4.73776 26.1671 4.48222 26.0137 4.26955C25.8602 4.05689 25.6438 3.89787 25.395 3.815L21.645 2.565C21.5177 2.52225 21.3843 2.50031 21.25 2.5H16.25C16.1157 2.50031 15.9823 2.52225 15.855 2.565L12.105 3.815C11.8562 3.89787 11.6398 4.05689 11.4863 4.26955C11.3329 4.48222 11.2502 4.73776 11.25 5V8.75H8.75C8.41848 8.75 8.10054 8.8817 7.86612 9.11612C7.6317 9.35054 7.5 9.66848 7.5 10V41.25H2.5V43.75H77.5V41.25H72.5V3.75ZM40 9.045L41.7275 12.5H38.2725L40 9.045ZM36.25 15H43.75V17.5H36.25V15ZM13.75 5.90125L16.4525 5H21.0475L23.75 5.90125V8.75H13.75V5.90125ZM10 11.25H28.75V17.5C28.4185 17.5 28.1005 17.6317 27.8661 17.8661C27.6317 18.1005 27.5 18.4185 27.5 18.75V41.25H25V37.5C25 35.8424 24.3415 34.2527 23.1694 33.0806C21.9973 31.9085 20.4076 31.25 18.75 31.25C17.0924 31.25 15.5027 31.9085 14.3306 33.0806C13.1585 34.2527 12.5 35.8424 12.5 37.5V41.25H10V11.25ZM22.5 41.25H15V37.5C15 36.5054 15.3951 35.5516 16.0983 34.8484C16.8016 34.1451 17.7554 33.75 18.75 33.75C19.7446 33.75 20.6984 34.1451 21.4017 34.8484C22.1049 35.5516 22.5 36.5054 22.5 37.5V41.25ZM43.75 41.25H36.25V33.75H43.75V41.25ZM46.25 41.25V32.5C46.25 32.1685 46.1183 31.8505 45.8839 31.6161C45.6495 31.3817 45.3315 31.25 45 31.25H35C34.6685 31.25 34.3505 31.3817 34.1161 31.6161C33.8817 31.8505 33.75 32.1685 33.75 32.5V41.25H30V20H50V41.25H46.25ZM65 41.25H57.5V35C57.5 34.6685 57.6317 34.3505 57.8661 34.1161C58.1005 33.8817 58.4185 33.75 58.75 33.75H63.75C64.0815 33.75 64.3995 33.8817 64.6339 34.1161C64.8683 34.3505 65 34.6685 65 35V41.25ZM67.5 41.25V35C67.5 34.0054 67.1049 33.0516 66.4016 32.3483C65.6984 31.6451 64.7446 31.25 63.75 31.25H58.75C57.7554 31.25 56.8016 31.6451 56.0984 32.3483C55.3951 33.0516 55 34.0054 55 35V41.25H52.5V18.75C52.5 18.4185 52.3683 18.1005 52.1339 17.8661C51.8995 17.6317 51.5815 17.5 51.25 17.5V5H70V41.25H67.5Z" fill="#E600AD"/>
<path d="M72.5 3.75C72.5 3.41848 72.3683 3.10054 72.1339 2.86612C71.8995 2.6317 71.5815 2.5 71.25 2.5H50C49.6685 2.5 49.3505 2.6317 49.1161 2.86612C48.8817 3.10054 48.75 3.41848 48.75 3.75V17.5H46.25V13.75C46.25 13.4185 46.1183 13.1005 45.8839 12.8661C45.6495 12.6317 45.3315 12.5 45 12.5H44.5225L41.125 5.69125C41.0095 5.49753 40.8457 5.33712 40.6496 5.22572C40.4535 5.11433 40.2318 5.05576 40.0063 5.05576C39.7807 5.05576 39.559 5.11433 39.3629 5.22572C39.1668 5.33712 39.003 5.49753 38.8875 5.69125L35.4775 12.5H35C34.6685 12.5 34.3505 12.6317 34.1161 12.8661C33.8817 13.1005 33.75 13.4185 33.75 13.75V17.5H31.25V10C31.25 9.66848 31.1183 9.35054 30.8839 9.11612C30.6495 8.8817 30.3315 8.75 30 8.75H26.25V5C26.2498 4.73776 26.1671 4.48222 26.0137 4.26955C25.8602 4.05689 25.6438 3.89787 25.395 3.815L21.645 2.565C21.5177 2.52225 21.3843 2.50031 21.25 2.5H16.25C16.1157 2.50031 15.9823 2.52225 15.855 2.565L12.105 3.815C11.8562 3.89787 11.6398 4.05689 11.4863 4.26955C11.3329 4.48222 11.2502 4.73776 11.25 5V8.75H8.75C8.41848 8.75 8.10054 8.8817 7.86612 9.11612C7.6317 9.35054 7.5 9.66848 7.5 10V41.25H2.5V43.75H77.5V41.25H72.5V3.75ZM40 9.045L41.7275 12.5H38.2725L40 9.045ZM36.25 15H43.75V17.5H36.25V15ZM13.75 5.90125L16.4525 5H21.0475L23.75 5.90125V8.75H13.75V5.90125ZM10 11.25H28.75V17.5C28.4185 17.5 28.1005 17.6317 27.8661 17.8661C27.6317 18.1005 27.5 18.4185 27.5 18.75V41.25H25V37.5C25 35.8424 24.3415 34.2527 23.1694 33.0806C21.9973 31.9085 20.4076 31.25 18.75 31.25C17.0924 31.25 15.5027 31.9085 14.3306 33.0806C13.1585 34.2527 12.5 35.8424 12.5 37.5V41.25H10V11.25ZM22.5 41.25H15V37.5C15 36.5054 15.3951 35.5516 16.0983 34.8484C16.8016 34.1451 17.7554 33.75 18.75 33.75C19.7446 33.75 20.6984 34.1451 21.4017 34.8484C22.1049 35.5516 22.5 36.5054 22.5 37.5V41.25ZM43.75 41.25H36.25V33.75H43.75V41.25ZM46.25 41.25V32.5C46.25 32.1685 46.1183 31.8505 45.8839 31.6161C45.6495 31.3817 45.3315 31.25 45 31.25H35C34.6685 31.25 34.3505 31.3817 34.1161 31.6161C33.8817 31.8505 33.75 32.1685 33.75 32.5V41.25H30V20H50V41.25H46.25ZM65 41.25H57.5V35C57.5 34.6685 57.6317 34.3505 57.8661 34.1161C58.1005 33.8817 58.4185 33.75 58.75 33.75H63.75C64.0815 33.75 64.3995 33.8817 64.6339 34.1161C64.8683 34.3505 65 34.6685 65 35V41.25ZM67.5 41.25V35C67.5 34.0054 67.1049 33.0516 66.4016 32.3483C65.6984 31.6451 64.7446 31.25 63.75 31.25H58.75C57.7554 31.25 56.8016 31.6451 56.0984 32.3483C55.3951 33.0516 55 34.0054 55 35V41.25H52.5V18.75C52.5 18.4185 52.3683 18.1005 52.1339 17.8661C51.8995 17.6317 51.5815 17.5 51.25 17.5V5H70V41.25H67.5Z" fill="url(#paint1_radial_10_607)" fill-opacity="0.5"/>
<path d="M33.75 23.75H37.5V26.25H33.75V23.75Z" fill="#E600AD"/>
<path d="M33.75 23.75H37.5V26.25H33.75V23.75Z" fill="url(#paint2_radial_10_607)" fill-opacity="0.5"/>
<path d="M42.5 23.75H46.25V26.25H42.5V23.75Z" fill="#E600AD"/>
<path d="M42.5 23.75H46.25V26.25H42.5V23.75Z" fill="url(#paint3_radial_10_607)" fill-opacity="0.5"/>
<path d="M13.75 17.5H23.75V20H13.75V17.5Z" fill="#E600AD"/>
<path d="M13.75 17.5H23.75V20H13.75V17.5Z" fill="url(#paint4_radial_10_607)" fill-opacity="0.5"/>
<path d="M13.75 23.75H23.75V26.25H13.75V23.75Z" fill="#E600AD"/>
<path d="M13.75 23.75H23.75V26.25H13.75V23.75Z" fill="url(#paint5_radial_10_607)" fill-opacity="0.5"/>
<path d="M66.25 8.75H56.25C55.9185 8.75 55.6005 8.8817 55.3661 9.11612C55.1317 9.35054 55 9.66848 55 10V15C55 15.3315 55.1317 15.6495 55.3661 15.8839C55.6005 16.1183 55.9185 16.25 56.25 16.25H66.25C66.5815 16.25 66.8995 16.1183 67.1339 15.8839C67.3683 15.6495 67.5 15.3315 67.5 15V10C67.5 9.66848 67.3683 9.35054 67.1339 9.11612C66.8995 8.8817 66.5815 8.75 66.25 8.75ZM65 13.75H57.5V11.25H65V13.75Z" fill="#E600AD"/>
<path d="M66.25 8.75H56.25C55.9185 8.75 55.6005 8.8817 55.3661 9.11612C55.1317 9.35054 55 9.66848 55 10V15C55 15.3315 55.1317 15.6495 55.3661 15.8839C55.6005 16.1183 55.9185 16.25 56.25 16.25H66.25C66.5815 16.25 66.8995 16.1183 67.1339 15.8839C67.3683 15.6495 67.5 15.3315 67.5 15V10C67.5 9.66848 67.3683 9.35054 67.1339 9.11612C66.8995 8.8817 66.5815 8.75 66.25 8.75ZM65 13.75H57.5V11.25H65V13.75Z" fill="url(#paint6_radial_10_607)" fill-opacity="0.5"/>
<path d="M66.25 20H56.25C55.9185 20 55.6005 20.1317 55.3661 20.3661C55.1317 20.6005 55 20.9185 55 21.25V26.25C55 26.5815 55.1317 26.8995 55.3661 27.1339C55.6005 27.3683 55.9185 27.5 56.25 27.5H66.25C66.5815 27.5 66.8995 27.3683 67.1339 27.1339C67.3683 26.8995 67.5 26.5815 67.5 26.25V21.25C67.5 20.9185 67.3683 20.6005 67.1339 20.3661C66.8995 20.1317 66.5815 20 66.25 20ZM65 25H57.5V22.5H65V25Z" fill="#E600AD"/>
<path d="M66.25 20H56.25C55.9185 20 55.6005 20.1317 55.3661 20.3661C55.1317 20.6005 55 20.9185 55 21.25V26.25C55 26.5815 55.1317 26.8995 55.3661 27.1339C55.6005 27.3683 55.9185 27.5 56.25 27.5H66.25C66.5815 27.5 66.8995 27.3683 67.1339 27.1339C67.3683 26.8995 67.5 26.5815 67.5 26.25V21.25C67.5 20.9185 67.3683 20.6005 67.1339 20.3661C66.8995 20.1317 66.5815 20 66.25 20ZM65 25H57.5V22.5H65V25Z" fill="url(#paint7_radial_10_607)" fill-opacity="0.5"/>
<path d="M36.25 58.125H33.75C33.8395 59.3657 34.4148 60.5209 35.3509 61.34C36.287 62.1592 37.5084 62.576 38.75 62.5V65H41.25V62.5C42.4916 62.576 43.713 62.1592 44.6491 61.34C45.5852 60.5209 46.1605 59.3657 46.25 58.125C46.1605 56.8843 45.5852 55.7291 44.6491 54.9099C43.713 54.0908 42.4916 53.674 41.25 53.75V50C42.605 50 43.75 50.8587 43.75 51.875H46.25C46.1605 50.6343 45.5852 49.4791 44.6491 48.6599C43.713 47.8408 42.4916 47.424 41.25 47.5V45H38.75V47.5C37.5084 47.424 36.287 47.8408 35.3509 48.6599C34.4148 49.4791 33.8395 50.6343 33.75 51.875C33.8395 53.1157 34.4148 54.2709 35.3509 55.0901C36.287 55.9092 37.5084 56.326 38.75 56.25V60C37.395 60 36.25 59.1412 36.25 58.125ZM36.25 51.875C36.25 50.8587 37.395 50 38.75 50V53.75C37.395 53.75 36.25 52.8913 36.25 51.875ZM41.25 56.25C42.605 56.25 43.75 57.1088 43.75 58.125C43.75 59.1412 42.605 60 41.25 60V56.25Z" fill="#E600AD"/>
<path d="M36.25 58.125H33.75C33.8395 59.3657 34.4148 60.5209 35.3509 61.34C36.287 62.1592 37.5084 62.576 38.75 62.5V65H41.25V62.5C42.4916 62.576 43.713 62.1592 44.6491 61.34C45.5852 60.5209 46.1605 59.3657 46.25 58.125C46.1605 56.8843 45.5852 55.7291 44.6491 54.9099C43.713 54.0908 42.4916 53.674 41.25 53.75V50C42.605 50 43.75 50.8587 43.75 51.875H46.25C46.1605 50.6343 45.5852 49.4791 44.6491 48.6599C43.713 47.8408 42.4916 47.424 41.25 47.5V45H38.75V47.5C37.5084 47.424 36.287 47.8408 35.3509 48.6599C34.4148 49.4791 33.8395 50.6343 33.75 51.875C33.8395 53.1157 34.4148 54.2709 35.3509 55.0901C36.287 55.9092 37.5084 56.326 38.75 56.25V60C37.395 60 36.25 59.1412 36.25 58.125ZM36.25 51.875C36.25 50.8587 37.395 50 38.75 50V53.75C37.395 53.75 36.25 52.8913 36.25 51.875ZM41.25 56.25C42.605 56.25 43.75 57.1088 43.75 58.125C43.75 59.1412 42.605 60 41.25 60V56.25Z" fill="url(#paint8_radial_10_607)" fill-opacity="0.5"/>
<path d="M8.75 68.75H11.25V77.5H8.75V68.75Z" fill="#E600AD"/>
<path d="M8.75 68.75H11.25V77.5H8.75V68.75Z" fill="url(#paint9_radial_10_607)" fill-opacity="0.5"/>
<path d="M68.75 68.75H71.25V77.5H68.75V68.75Z" fill="#E600AD"/>
<path d="M68.75 68.75H71.25V77.5H68.75V68.75Z" fill="url(#paint10_radial_10_607)" fill-opacity="0.5"/>
<defs>
<radialGradient id="paint0_radial_10_607" cx="0" cy="0" r="1" gradientUnits="userSpaceOnUse" gradientTransform="translate(36.8219 77.5) scale(49.2106 19.1091)">
<stop stop-color="white"/>
<stop offset="1" stop-color="white" stop-opacity="0"/>
</radialGradient>
<radialGradient id="paint1_radial_10_607" cx="0" cy="0" r="1" gradientUnits="userSpaceOnUse" gradientTransform="translate(36.7123 43.75) scale(50.9075 27.9991)">
<stop stop-color="white"/>
<stop offset="1" stop-color="white" stop-opacity="0"/>
</radialGradient>
<radialGradient id="paint2_radial_10_607" cx="0" cy="0" r="1" gradientUnits="userSpaceOnUse" gradientTransform="translate(35.4606 26.25) scale(2.54538 1.69692)">
<stop stop-color="white"/>
<stop offset="1" stop-color="white" stop-opacity="0"/>
</radialGradient>
<radialGradient id="paint3_radial_10_607" cx="0" cy="0" r="1" gradientUnits="userSpaceOnUse" gradientTransform="translate(44.2106 26.25) scale(2.54538 1.69692)">
<stop stop-color="white"/>
<stop offset="1" stop-color="white" stop-opacity="0"/>
</radialGradient>
<radialGradient id="paint4_radial_10_607" cx="0" cy="0" r="1" gradientUnits="userSpaceOnUse" gradientTransform="translate(18.3116 20) scale(6.78767 1.69692)">
<stop stop-color="white"/>
<stop offset="1" stop-color="white" stop-opacity="0"/>
</radialGradient>
<radialGradient id="paint5_radial_10_607" cx="0" cy="0" r="1" gradientUnits="userSpaceOnUse" gradientTransform="translate(18.3116 26.25) scale(6.78767 1.69692)">
<stop stop-color="white"/>
<stop offset="1" stop-color="white" stop-opacity="0"/>
</radialGradient>
<radialGradient id="paint6_radial_10_607" cx="0" cy="0" r="1" gradientUnits="userSpaceOnUse" gradientTransform="translate(60.7021 16.25) scale(8.48459 5.09075)">
<stop stop-color="white"/>
<stop offset="1" stop-color="white" stop-opacity="0"/>
</radialGradient>
<radialGradient id="paint7_radial_10_607" cx="0" cy="0" r="1" gradientUnits="userSpaceOnUse" gradientTransform="translate(60.7021 27.5) scale(8.48459 5.09075)">
<stop stop-color="white"/>
<stop offset="1" stop-color="white" stop-opacity="0"/>
</radialGradient>
<radialGradient id="paint8_radial_10_607" cx="0" cy="0" r="1" gradientUnits="userSpaceOnUse" gradientTransform="translate(39.4521 65) scale(8.48459 13.5753)">
<stop stop-color="white"/>
<stop offset="1" stop-color="white" stop-opacity="0"/>
</radialGradient>
<radialGradient id="paint9_radial_10_607" cx="0" cy="0" r="1" gradientUnits="userSpaceOnUse" gradientTransform="translate(9.89041 77.5) scale(1.69692 5.93921)">
<stop stop-color="white"/>
<stop offset="1" stop-color="white" stop-opacity="0"/>
</radialGradient>
<radialGradient id="paint10_radial_10_607" cx="0" cy="0" r="1" gradientUnits="userSpaceOnUse" gradientTransform="translate(69.8904 77.5) scale(1.69692 5.93921)">
<stop stop-color="white"/>
<stop offset="1" stop-color="white" stop-opacity="0"/>
</radialGradient>
</defs>
</svg>
