<svg width="80" height="80" viewBox="0 0 80 80" fill="none" xmlns="http://www.w3.org/2000/svg">
<path d="M20 50V78.3333H59.9999V50" stroke="#E600AD" stroke-width="3.33333" stroke-linejoin="round"/>
<path d="M20 50V78.3333H59.9999V50" stroke="url(#paint0_radial_10_643)" stroke-opacity="0.5" stroke-width="3.33333" stroke-linejoin="round"/>
<path d="M15 55L39.9999 31.6667L64.9999 55" stroke="#E600AD" stroke-width="3.33333" stroke-linejoin="round"/>
<path d="M15 55L39.9999 31.6667L64.9999 55" stroke="url(#paint1_radial_10_643)" stroke-opacity="0.5" stroke-width="3.33333" stroke-linejoin="round"/>
<path d="M20 50H48.3333" stroke="#E600AD" stroke-width="3.33333" stroke-linejoin="round"/>
<path d="M20 50H48.3333" stroke="url(#paint2_radial_10_643)" stroke-opacity="0.5" stroke-width="3.33333" stroke-linejoin="round"/>
<path d="M60 50H51.6667" stroke="#E600AD" stroke-width="3.33333" stroke-linejoin="round"/>
<path d="M60 50H51.6667" stroke="url(#paint3_radial_10_643)" stroke-opacity="0.5" stroke-width="3.33333" stroke-linejoin="round"/>
<path d="M33.3332 78.3333V63.3334C33.3332 62.4493 33.6844 61.6015 34.3095 60.9763C34.9346 60.3512 35.7825 60 36.6665 60H43.3332C44.2172 60 45.0651 60.3512 45.6902 60.9763C46.3153 61.6015 46.6665 62.4493 46.6665 63.3334V78.3333" stroke="#E600AD" stroke-width="3.33333" stroke-linejoin="round"/>
<path d="M33.3332 78.3333V63.3334C33.3332 62.4493 33.6844 61.6015 34.3095 60.9763C34.9346 60.3512 35.7825 60 36.6665 60H43.3332C44.2172 60 45.0651 60.3512 45.6902 60.9763C46.3153 61.6015 46.6665 62.4493 46.6665 63.3334V78.3333" stroke="url(#paint4_radial_10_643)" stroke-opacity="0.5" stroke-width="3.33333" stroke-linejoin="round"/>
<path d="M28.3334 1.66662H5.00007C4.11602 1.66662 3.26818 2.01781 2.64305 2.64293C2.01793 3.26805 1.66675 4.1159 1.66675 4.99995V28.3332C1.66675 29.2173 2.01793 30.0651 2.64305 30.6903C3.26818 31.3154 4.11602 31.6666 5.00007 31.6666H13.3334L21.6667 39.9999V31.6666H28.3334C29.2174 31.6666 30.0653 31.3154 30.6904 30.6903C31.3155 30.0651 31.6667 29.2173 31.6667 28.3332V4.99995C31.6667 4.1159 31.3155 3.26805 30.6904 2.64293C30.0653 2.01781 29.2174 1.66662 28.3334 1.66662Z" stroke="#E600AD" stroke-width="3.33333" stroke-linejoin="round"/>
<path d="M28.3334 1.66662H5.00007C4.11602 1.66662 3.26818 2.01781 2.64305 2.64293C2.01793 3.26805 1.66675 4.1159 1.66675 4.99995V28.3332C1.66675 29.2173 2.01793 30.0651 2.64305 30.6903C3.26818 31.3154 4.11602 31.6666 5.00007 31.6666H13.3334L21.6667 39.9999V31.6666H28.3334C29.2174 31.6666 30.0653 31.3154 30.6904 30.6903C31.3155 30.0651 31.6667 29.2173 31.6667 28.3332V4.99995C31.6667 4.1159 31.3155 3.26805 30.6904 2.64293C30.0653 2.01781 29.2174 1.66662 28.3334 1.66662Z" stroke="url(#paint5_radial_10_643)" stroke-opacity="0.5" stroke-width="3.33333" stroke-linejoin="round"/>
<path d="M18.3334 16.6668H15.0001C14.116 16.6668 13.2682 16.3156 12.643 15.6905C12.0179 15.0653 11.6667 14.2175 11.6667 13.3334C11.6667 12.4494 12.0179 11.6015 12.643 10.9764C13.2682 10.3513 14.116 10.0001 15.0001 10.0001H18.3334C19.2174 10.0001 20.0653 10.3513 20.6904 10.9764C21.3155 11.6015 21.6667 12.4494 21.6667 13.3334" stroke="#E600AD" stroke-width="3.33333" stroke-linejoin="round"/>
<path d="M18.3334 16.6668H15.0001C14.116 16.6668 13.2682 16.3156 12.643 15.6905C12.0179 15.0653 11.6667 14.2175 11.6667 13.3334C11.6667 12.4494 12.0179 11.6015 12.643 10.9764C13.2682 10.3513 14.116 10.0001 15.0001 10.0001H18.3334C19.2174 10.0001 20.0653 10.3513 20.6904 10.9764C21.3155 11.6015 21.6667 12.4494 21.6667 13.3334" stroke="url(#paint6_radial_10_643)" stroke-opacity="0.5" stroke-width="3.33333" stroke-linejoin="round"/>
<path d="M15.0001 16.6667H18.3334C19.2174 16.6667 20.0653 17.0179 20.6904 17.643C21.3155 18.2682 21.6667 19.116 21.6667 20.0001C21.6667 20.8841 21.3155 21.7319 20.6904 22.3571C20.0653 22.9822 19.2174 23.3334 18.3334 23.3334H15.0001C14.116 23.3334 13.2682 22.9822 12.643 22.3571C12.0179 21.7319 11.6667 20.8841 11.6667 20.0001" stroke="#E600AD" stroke-width="3.33333" stroke-linejoin="round"/>
<path d="M15.0001 16.6667H18.3334C19.2174 16.6667 20.0653 17.0179 20.6904 17.643C21.3155 18.2682 21.6667 19.116 21.6667 20.0001C21.6667 20.8841 21.3155 21.7319 20.6904 22.3571C20.0653 22.9822 19.2174 23.3334 18.3334 23.3334H15.0001C14.116 23.3334 13.2682 22.9822 12.643 22.3571C12.0179 21.7319 11.6667 20.8841 11.6667 20.0001" stroke="url(#paint7_radial_10_643)" stroke-opacity="0.5" stroke-width="3.33333" stroke-linejoin="round"/>
<path d="M16.6667 10.0001V6.66674" stroke="#E600AD" stroke-width="3.33333" stroke-linejoin="round"/>
<path d="M16.6667 10.0001V6.66674" stroke="url(#paint8_radial_10_643)" stroke-opacity="0.5" stroke-width="3.33333" stroke-linejoin="round"/>
<path d="M16.6667 26.6668V23.3335" stroke="#E600AD" stroke-width="3.33333" stroke-linejoin="round"/>
<path d="M16.6667 26.6668V23.3335" stroke="url(#paint9_radial_10_643)" stroke-opacity="0.5" stroke-width="3.33333" stroke-linejoin="round"/>
<path d="M63.3333 1.66675C60.3666 1.66672 57.4664 2.54644 54.9997 4.19466C52.5329 5.84287 50.6103 8.18556 49.475 10.9265C48.3397 13.6674 48.0426 16.6834 48.6214 19.5931C49.2002 22.5028 50.6288 25.1756 52.7266 27.2734L48.3333 31.6667H63.3333C67.3115 31.6667 71.1268 30.0863 73.9399 27.2733C76.7529 24.4603 78.3333 20.645 78.3333 16.6667C78.3333 12.6885 76.7529 8.87318 73.9399 6.06014C71.1268 3.2471 67.3115 1.66675 63.3333 1.66675Z" stroke="#E600AD" stroke-width="3.33333" stroke-linejoin="round"/>
<path d="M63.3333 1.66675C60.3666 1.66672 57.4664 2.54644 54.9997 4.19466C52.5329 5.84287 50.6103 8.18556 49.475 10.9265C48.3397 13.6674 48.0426 16.6834 48.6214 19.5931C49.2002 22.5028 50.6288 25.1756 52.7266 27.2734L48.3333 31.6667H63.3333C67.3115 31.6667 71.1268 30.0863 73.9399 27.2733C76.7529 24.4603 78.3333 20.645 78.3333 16.6667C78.3333 12.6885 76.7529 8.87318 73.9399 6.06014C71.1268 3.2471 67.3115 1.66675 63.3333 1.66675Z" stroke="url(#paint10_radial_10_643)" stroke-opacity="0.5" stroke-width="3.33333" stroke-linejoin="round"/>
<path d="M63.3332 6.66674V16.6667H73.3331" stroke="#E600AD" stroke-width="3.33333" stroke-linejoin="round"/>
<path d="M63.3332 6.66674V16.6667H73.3331" stroke="url(#paint11_radial_10_643)" stroke-opacity="0.5" stroke-width="3.33333" stroke-linejoin="round"/>
<path d="M63.3332 8.33348C61.1231 8.33348 59.0035 9.21146 57.4407 10.7743C55.8779 12.3371 54.9999 14.4567 54.9999 16.6668C54.9999 18.8769 55.8779 20.9966 57.4407 22.5594C59.0035 24.1222 61.1231 25.0001 63.3332 25.0001" stroke="#E600AD" stroke-width="3.33333" stroke-linejoin="round"/>
<path d="M63.3332 8.33348C61.1231 8.33348 59.0035 9.21146 57.4407 10.7743C55.8779 12.3371 54.9999 14.4567 54.9999 16.6668C54.9999 18.8769 55.8779 20.9966 57.4407 22.5594C59.0035 24.1222 61.1231 25.0001 63.3332 25.0001" stroke="url(#paint12_radial_10_643)" stroke-opacity="0.5" stroke-width="3.33333" stroke-linejoin="round"/>
<defs>
<radialGradient id="paint0_radial_10_643" cx="0" cy="0" r="1" gradientUnits="userSpaceOnUse" gradientTransform="translate(38.2465 78.3333) scale(27.1506 19.2317)">
<stop stop-color="white"/>
<stop offset="1" stop-color="white" stop-opacity="0"/>
</radialGradient>
<radialGradient id="paint1_radial_10_643" cx="0" cy="0" r="1" gradientUnits="userSpaceOnUse" gradientTransform="translate(37.8082 55) scale(33.9383 15.8379)">
<stop stop-color="white"/>
<stop offset="1" stop-color="white" stop-opacity="0"/>
</radialGradient>
<radialGradient id="paint2_radial_10_643" cx="0" cy="0" r="1" gradientUnits="userSpaceOnUse" gradientTransform="translate(32.9246 51) scale(19.2317 0.678766)">
<stop stop-color="white"/>
<stop offset="1" stop-color="white" stop-opacity="0"/>
</radialGradient>
<radialGradient id="paint3_radial_10_643" cx="0" cy="0" r="1" gradientUnits="userSpaceOnUse" gradientTransform="translate(55.468 51) scale(5.65638 0.678766)">
<stop stop-color="white"/>
<stop offset="1" stop-color="white" stop-opacity="0"/>
</radialGradient>
<radialGradient id="paint4_radial_10_643" cx="0" cy="0" r="1" gradientUnits="userSpaceOnUse" gradientTransform="translate(39.4154 78.3333) scale(9.05021 12.444)">
<stop stop-color="white"/>
<stop offset="1" stop-color="white" stop-opacity="0"/>
</radialGradient>
<radialGradient id="paint5_radial_10_643" cx="0" cy="0" r="1" gradientUnits="userSpaceOnUse" gradientTransform="translate(15.3517 39.9999) scale(20.363 26.0194)">
<stop stop-color="white"/>
<stop offset="1" stop-color="white" stop-opacity="0"/>
</radialGradient>
<radialGradient id="paint6_radial_10_643" cx="0" cy="0" r="1" gradientUnits="userSpaceOnUse" gradientTransform="translate(16.2284 16.6668) scale(6.78766 4.52511)">
<stop stop-color="white"/>
<stop offset="1" stop-color="white" stop-opacity="0"/>
</radialGradient>
<radialGradient id="paint7_radial_10_643" cx="0" cy="0" r="1" gradientUnits="userSpaceOnUse" gradientTransform="translate(16.2284 23.3334) scale(6.78766 4.52511)">
<stop stop-color="white"/>
<stop offset="1" stop-color="white" stop-opacity="0"/>
</radialGradient>
<radialGradient id="paint8_radial_10_643" cx="0" cy="0" r="1" gradientUnits="userSpaceOnUse" gradientTransform="translate(17.1229 10.0001) scale(0.678766 2.26255)">
<stop stop-color="white"/>
<stop offset="1" stop-color="white" stop-opacity="0"/>
</radialGradient>
<radialGradient id="paint9_radial_10_643" cx="0" cy="0" r="1" gradientUnits="userSpaceOnUse" gradientTransform="translate(17.1229 26.6668) scale(0.678766 2.26255)">
<stop stop-color="white"/>
<stop offset="1" stop-color="white" stop-opacity="0"/>
</radialGradient>
<radialGradient id="paint10_radial_10_643" cx="0" cy="0" r="1" gradientUnits="userSpaceOnUse" gradientTransform="translate(62.0182 31.6667) scale(20.3631 20.363)">
<stop stop-color="white"/>
<stop offset="1" stop-color="white" stop-opacity="0"/>
</radialGradient>
<radialGradient id="paint11_radial_10_643" cx="0" cy="0" r="1" gradientUnits="userSpaceOnUse" gradientTransform="translate(67.8948 16.6667) scale(6.78766)">
<stop stop-color="white"/>
<stop offset="1" stop-color="white" stop-opacity="0"/>
</radialGradient>
<radialGradient id="paint12_radial_10_643" cx="0" cy="0" r="1" gradientUnits="userSpaceOnUse" gradientTransform="translate(58.8013 25.0001) scale(5.65638 11.3128)">
<stop stop-color="white"/>
<stop offset="1" stop-color="white" stop-opacity="0"/>
</radialGradient>
</defs>
</svg>
