<svg width="60" height="60" viewBox="0 0 60 60" fill="none" xmlns="http://www.w3.org/2000/svg">
<path d="M21.1454 9.97977C22.6747 10.9501 25.2669 12.0891 29.1212 12.2181V15.2673C23.2302 15.7173 18.5743 20.6556 18.5743 26.6591C18.5743 32.9591 23.7001 38.0848 30.0001 38.0848C36.3001 38.0848 41.4259 32.9591 41.4259 26.6591C41.4259 20.3591 36.77 15.7173 30.879 15.2673V12.2181C34.7333 12.0891 37.3255 10.9501 38.8548 9.97977C40.9841 8.62743 42.3353 6.79227 42.5638 4.94305C42.8462 2.65438 41.3708 0.82977 38.7118 0.181723C37.0724 -0.217886 35.5548 0.0422703 34.2013 0.955161C32.0509 2.40477 30.7466 5.26883 30.0001 7.60555C29.2536 5.26766 27.9493 2.40477 25.7989 0.955161C24.4454 0.0422703 22.9267 -0.217886 21.2884 0.181723C18.6294 0.82977 17.154 2.65438 17.4364 4.94305C17.665 6.79227 19.0173 8.62743 21.1454 9.97977ZM35.1857 2.4118C35.8337 1.97586 36.5181 1.75907 37.2599 1.75907C37.5927 1.75907 37.9384 1.80243 38.2958 1.89032C40.0946 2.3286 40.9911 3.33641 40.8189 4.7286C40.6571 6.03524 39.5708 7.44383 37.9114 8.49735C36.6025 9.32938 34.3876 10.3009 31.0642 10.4544C31.4942 8.45633 32.6884 4.09461 35.1857 2.41297V2.4118ZM39.6681 26.6602C39.6681 31.9911 35.331 36.3282 30.0001 36.3282C24.6692 36.3282 20.3321 31.9911 20.3321 26.6602C20.3321 21.3294 24.6692 16.9923 30.0001 16.9923C35.331 16.9923 39.6681 21.3294 39.6681 26.6602ZM21.7044 1.88915C22.0618 1.80243 22.4064 1.7579 22.7403 1.7579C23.4821 1.7579 24.1665 1.97469 24.8146 2.41063C27.3118 4.09227 28.506 8.45282 28.936 10.452C25.6126 10.2985 23.3978 9.32704 22.0888 8.495C20.4294 7.44149 19.3431 6.0329 19.1814 4.72625C19.0091 3.33524 19.9056 2.32743 21.7044 1.88797V1.88915Z" fill="#E600AD"/>
<path d="M21.1454 9.97977C22.6747 10.9501 25.2669 12.0891 29.1212 12.2181V15.2673C23.2302 15.7173 18.5743 20.6556 18.5743 26.6591C18.5743 32.9591 23.7001 38.0848 30.0001 38.0848C36.3001 38.0848 41.4259 32.9591 41.4259 26.6591C41.4259 20.3591 36.77 15.7173 30.879 15.2673V12.2181C34.7333 12.0891 37.3255 10.9501 38.8548 9.97977C40.9841 8.62743 42.3353 6.79227 42.5638 4.94305C42.8462 2.65438 41.3708 0.82977 38.7118 0.181723C37.0724 -0.217886 35.5548 0.0422703 34.2013 0.955161C32.0509 2.40477 30.7466 5.26883 30.0001 7.60555C29.2536 5.26766 27.9493 2.40477 25.7989 0.955161C24.4454 0.0422703 22.9267 -0.217886 21.2884 0.181723C18.6294 0.82977 17.154 2.65438 17.4364 4.94305C17.665 6.79227 19.0173 8.62743 21.1454 9.97977ZM35.1857 2.4118C35.8337 1.97586 36.5181 1.75907 37.2599 1.75907C37.5927 1.75907 37.9384 1.80243 38.2958 1.89032C40.0946 2.3286 40.9911 3.33641 40.8189 4.7286C40.6571 6.03524 39.5708 7.44383 37.9114 8.49735C36.6025 9.32938 34.3876 10.3009 31.0642 10.4544C31.4942 8.45633 32.6884 4.09461 35.1857 2.41297V2.4118ZM39.6681 26.6602C39.6681 31.9911 35.331 36.3282 30.0001 36.3282C24.6692 36.3282 20.3321 31.9911 20.3321 26.6602C20.3321 21.3294 24.6692 16.9923 30.0001 16.9923C35.331 16.9923 39.6681 21.3294 39.6681 26.6602ZM21.7044 1.88915C22.0618 1.80243 22.4064 1.7579 22.7403 1.7579C23.4821 1.7579 24.1665 1.97469 24.8146 2.41063C27.3118 4.09227 28.506 8.45282 28.936 10.452C25.6126 10.2985 23.3978 9.32704 22.0888 8.495C20.4294 7.44149 19.3431 6.0329 19.1814 4.72625C19.0091 3.33524 19.9056 2.32743 21.7044 1.88797V1.88915Z" fill="url(#paint0_radial_29_2138)" fill-opacity="0.5"/>
<path d="M29.4141 21.0938V19.6289C29.4141 19.1438 29.0203 18.75 28.5352 18.75C28.05 18.75 27.6562 19.1438 27.6562 19.6289V21.2965C26.4598 21.7535 25.6055 22.9348 25.6055 24.3164C25.6055 26.093 27.0188 27.5391 28.7555 27.5391H31.2434C32.0109 27.5391 32.6355 28.1965 32.6355 29.0039C32.6355 29.8113 32.0109 30.4688 31.2434 30.4688H27.1863C26.7012 30.4688 26.3074 30.8625 26.3074 31.3477C26.3074 31.8328 26.7012 32.2266 27.1863 32.2266H27.6551V33.6914C27.6551 34.1766 28.0488 34.5703 28.534 34.5703C29.0191 34.5703 29.4129 34.1766 29.4129 33.6914V32.2266H30.5848V33.6914C30.5848 34.1766 30.9785 34.5703 31.4637 34.5703C31.9488 34.5703 32.3426 34.1766 32.3426 33.6914V32.0238C33.5391 31.5668 34.3934 30.3855 34.3934 29.0039C34.3934 27.2273 32.9801 25.7812 31.2434 25.7812H28.7555C27.9879 25.7812 27.3633 25.1238 27.3633 24.3164C27.3633 23.509 27.9879 22.8516 28.7555 22.8516H32.8125C33.2977 22.8516 33.6914 22.4578 33.6914 21.9727C33.6914 21.4875 33.2977 21.0938 32.8125 21.0938H32.3438V19.6289C32.3438 19.1438 31.95 18.75 31.4648 18.75C30.9797 18.75 30.5859 19.1438 30.5859 19.6289V21.0938H29.4141Z" fill="#E600AD"/>
<path d="M29.4141 21.0938V19.6289C29.4141 19.1438 29.0203 18.75 28.5352 18.75C28.05 18.75 27.6562 19.1438 27.6562 19.6289V21.2965C26.4598 21.7535 25.6055 22.9348 25.6055 24.3164C25.6055 26.093 27.0188 27.5391 28.7555 27.5391H31.2434C32.0109 27.5391 32.6355 28.1965 32.6355 29.0039C32.6355 29.8113 32.0109 30.4688 31.2434 30.4688H27.1863C26.7012 30.4688 26.3074 30.8625 26.3074 31.3477C26.3074 31.8328 26.7012 32.2266 27.1863 32.2266H27.6551V33.6914C27.6551 34.1766 28.0488 34.5703 28.534 34.5703C29.0191 34.5703 29.4129 34.1766 29.4129 33.6914V32.2266H30.5848V33.6914C30.5848 34.1766 30.9785 34.5703 31.4637 34.5703C31.9488 34.5703 32.3426 34.1766 32.3426 33.6914V32.0238C33.5391 31.5668 34.3934 30.3855 34.3934 29.0039C34.3934 27.2273 32.9801 25.7812 31.2434 25.7812H28.7555C27.9879 25.7812 27.3633 25.1238 27.3633 24.3164C27.3633 23.509 27.9879 22.8516 28.7555 22.8516H32.8125C33.2977 22.8516 33.6914 22.4578 33.6914 21.9727C33.6914 21.4875 33.2977 21.0938 32.8125 21.0938H32.3438V19.6289C32.3438 19.1438 31.95 18.75 31.4648 18.75C30.9797 18.75 30.5859 19.1438 30.5859 19.6289V21.0938H29.4141Z" fill="url(#paint1_radial_29_2138)" fill-opacity="0.5"/>
<path d="M48.75 48.8672H46.6992V46.582C46.6992 44.8055 45.2531 43.3594 43.4766 43.3594H30.8789V40.7227C30.8789 40.2375 30.4852 39.8438 30 39.8438C29.5148 39.8438 29.1211 40.2375 29.1211 40.7227V43.3594H16.5234C14.7469 43.3594 13.3008 44.8055 13.3008 46.582V48.8672H11.25C9.7957 48.8672 8.61328 50.0496 8.61328 51.5039V57.3633C8.61328 58.8176 9.7957 60 11.25 60H17.1094C18.5637 60 19.7461 58.8176 19.7461 57.3633V51.5039C19.7461 50.0496 18.5637 48.8672 17.1094 48.8672H15.0586V46.582C15.0586 45.7746 15.716 45.1172 16.5234 45.1172H29.1211V48.8672H27.0703C25.616 48.8672 24.4336 50.0496 24.4336 51.5039V57.3633C24.4336 58.8176 25.616 60 27.0703 60H32.9297C34.384 60 35.5664 58.8176 35.5664 57.3633V51.5039C35.5664 50.0496 34.384 48.8672 32.9297 48.8672H30.8789V45.1172H43.4766C44.284 45.1172 44.9414 45.7746 44.9414 46.582V48.8672H42.8906C41.4363 48.8672 40.2539 50.0496 40.2539 51.5039V57.3633C40.2539 58.8176 41.4363 60 42.8906 60H48.75C50.2043 60 51.3867 58.8176 51.3867 57.3633V51.5039C51.3867 50.0496 50.2043 48.8672 48.75 48.8672ZM17.9883 51.5039V57.3633C17.9883 57.8484 17.5945 58.2422 17.1094 58.2422H11.25C10.7648 58.2422 10.3711 57.8484 10.3711 57.3633V51.5039C10.3711 51.0188 10.7648 50.625 11.25 50.625H17.1094C17.5945 50.625 17.9883 51.0188 17.9883 51.5039ZM33.8086 51.5039V57.3633C33.8086 57.8484 33.4148 58.2422 32.9297 58.2422H27.0703C26.5852 58.2422 26.1914 57.8484 26.1914 57.3633V51.5039C26.1914 51.0188 26.5852 50.625 27.0703 50.625H32.9297C33.4148 50.625 33.8086 51.0188 33.8086 51.5039ZM49.6289 57.3633C49.6289 57.8484 49.2352 58.2422 48.75 58.2422H42.8906C42.4055 58.2422 42.0117 57.8484 42.0117 57.3633V51.5039C42.0117 51.0188 42.4055 50.625 42.8906 50.625H48.75C49.2352 50.625 49.6289 51.0188 49.6289 51.5039V57.3633Z" fill="#E600AD"/>
<path d="M48.75 48.8672H46.6992V46.582C46.6992 44.8055 45.2531 43.3594 43.4766 43.3594H30.8789V40.7227C30.8789 40.2375 30.4852 39.8438 30 39.8438C29.5148 39.8438 29.1211 40.2375 29.1211 40.7227V43.3594H16.5234C14.7469 43.3594 13.3008 44.8055 13.3008 46.582V48.8672H11.25C9.7957 48.8672 8.61328 50.0496 8.61328 51.5039V57.3633C8.61328 58.8176 9.7957 60 11.25 60H17.1094C18.5637 60 19.7461 58.8176 19.7461 57.3633V51.5039C19.7461 50.0496 18.5637 48.8672 17.1094 48.8672H15.0586V46.582C15.0586 45.7746 15.716 45.1172 16.5234 45.1172H29.1211V48.8672H27.0703C25.616 48.8672 24.4336 50.0496 24.4336 51.5039V57.3633C24.4336 58.8176 25.616 60 27.0703 60H32.9297C34.384 60 35.5664 58.8176 35.5664 57.3633V51.5039C35.5664 50.0496 34.384 48.8672 32.9297 48.8672H30.8789V45.1172H43.4766C44.284 45.1172 44.9414 45.7746 44.9414 46.582V48.8672H42.8906C41.4363 48.8672 40.2539 50.0496 40.2539 51.5039V57.3633C40.2539 58.8176 41.4363 60 42.8906 60H48.75C50.2043 60 51.3867 58.8176 51.3867 57.3633V51.5039C51.3867 50.0496 50.2043 48.8672 48.75 48.8672ZM17.9883 51.5039V57.3633C17.9883 57.8484 17.5945 58.2422 17.1094 58.2422H11.25C10.7648 58.2422 10.3711 57.8484 10.3711 57.3633V51.5039C10.3711 51.0188 10.7648 50.625 11.25 50.625H17.1094C17.5945 50.625 17.9883 51.0188 17.9883 51.5039ZM33.8086 51.5039V57.3633C33.8086 57.8484 33.4148 58.2422 32.9297 58.2422H27.0703C26.5852 58.2422 26.1914 57.8484 26.1914 57.3633V51.5039C26.1914 51.0188 26.5852 50.625 27.0703 50.625H32.9297C33.4148 50.625 33.8086 51.0188 33.8086 51.5039ZM49.6289 57.3633C49.6289 57.8484 49.2352 58.2422 48.75 58.2422H42.8906C42.4055 58.2422 42.0117 57.8484 42.0117 57.3633V51.5039C42.0117 51.0188 42.4055 50.625 42.8906 50.625H48.75C49.2352 50.625 49.6289 51.0188 49.6289 51.5039V57.3633Z" fill="url(#paint2_radial_29_2138)" fill-opacity="0.5"/>
<path d="M12.4219 54.4336C12.4219 54.9187 12.8156 55.3125 13.3008 55.3125H15.0586C15.5438 55.3125 15.9375 54.9187 15.9375 54.4336C15.9375 53.9484 15.5438 53.5547 15.0586 53.5547H13.3008C12.8156 53.5547 12.4219 53.9484 12.4219 54.4336Z" fill="#E600AD"/>
<path d="M12.4219 54.4336C12.4219 54.9187 12.8156 55.3125 13.3008 55.3125H15.0586C15.5438 55.3125 15.9375 54.9187 15.9375 54.4336C15.9375 53.9484 15.5438 53.5547 15.0586 53.5547H13.3008C12.8156 53.5547 12.4219 53.9484 12.4219 54.4336Z" fill="url(#paint3_radial_29_2138)" fill-opacity="0.5"/>
<path d="M28.2422 54.4336C28.2422 54.9187 28.6359 55.3125 29.1211 55.3125H30.8789C31.3641 55.3125 31.7578 54.9187 31.7578 54.4336C31.7578 53.9484 31.3641 53.5547 30.8789 53.5547H29.1211C28.6359 53.5547 28.2422 53.9484 28.2422 54.4336Z" fill="#E600AD"/>
<path d="M28.2422 54.4336C28.2422 54.9187 28.6359 55.3125 29.1211 55.3125H30.8789C31.3641 55.3125 31.7578 54.9187 31.7578 54.4336C31.7578 53.9484 31.3641 53.5547 30.8789 53.5547H29.1211C28.6359 53.5547 28.2422 53.9484 28.2422 54.4336Z" fill="url(#paint4_radial_29_2138)" fill-opacity="0.5"/>
<path d="M46.6992 53.5547H44.9414C44.4563 53.5547 44.0625 53.9484 44.0625 54.4336C44.0625 54.9187 44.4563 55.3125 44.9414 55.3125H46.6992C47.1844 55.3125 47.5781 54.9187 47.5781 54.4336C47.5781 53.9484 47.1844 53.5547 46.6992 53.5547Z" fill="#E600AD"/>
<path d="M46.6992 53.5547H44.9414C44.4563 53.5547 44.0625 53.9484 44.0625 54.4336C44.0625 54.9187 44.4563 55.3125 44.9414 55.3125H46.6992C47.1844 55.3125 47.5781 54.9187 47.5781 54.4336C47.5781 53.9484 47.1844 53.5547 46.6992 53.5547Z" fill="url(#paint5_radial_29_2138)" fill-opacity="0.5"/>
<defs>
<radialGradient id="paint0_radial_29_2138" cx="0" cy="0" r="1" gradientUnits="userSpaceOnUse" gradientTransform="translate(28.8956 38.0848) scale(17.1022 25.8507)">
<stop stop-color="white"/>
<stop offset="1" stop-color="white" stop-opacity="0"/>
</radialGradient>
<radialGradient id="paint1_radial_29_2138" cx="0" cy="0" r="1" gradientUnits="userSpaceOnUse" gradientTransform="translate(29.6142 34.5703) scale(5.96493 10.7383)">
<stop stop-color="white"/>
<stop offset="1" stop-color="white" stop-opacity="0"/>
</radialGradient>
<radialGradient id="paint2_radial_29_2138" cx="0" cy="0" r="1" gradientUnits="userSpaceOnUse" gradientTransform="translate(28.125 60) scale(29.0332 13.6814)">
<stop stop-color="white"/>
<stop offset="1" stop-color="white" stop-opacity="0"/>
</radialGradient>
<radialGradient id="paint3_radial_29_2138" cx="0" cy="0" r="1" gradientUnits="userSpaceOnUse" gradientTransform="translate(14.0256 55.3125) scale(2.38629 1.19315)">
<stop stop-color="white"/>
<stop offset="1" stop-color="white" stop-opacity="0"/>
</radialGradient>
<radialGradient id="paint4_radial_29_2138" cx="0" cy="0" r="1" gradientUnits="userSpaceOnUse" gradientTransform="translate(29.8459 55.3125) scale(2.38629 1.19315)">
<stop stop-color="white"/>
<stop offset="1" stop-color="white" stop-opacity="0"/>
</radialGradient>
<radialGradient id="paint5_radial_29_2138" cx="0" cy="0" r="1" gradientUnits="userSpaceOnUse" gradientTransform="translate(45.6662 55.3125) scale(2.38629 1.19315)">
<stop stop-color="white"/>
<stop offset="1" stop-color="white" stop-opacity="0"/>
</radialGradient>
</defs>
</svg>
