<svg width="30" height="30" viewBox="0 0 30 30" fill="none" xmlns="http://www.w3.org/2000/svg">
<g clip-path="url(#clip0_308_261)">
<path d="M15 30C23.2843 30 30 23.2843 30 15C30 6.71573 23.2843 0 15 0C6.71573 0 0 6.71573 0 15C0 23.2843 6.71573 30 15 30Z" fill="#59AF99"/>
<path d="M16.5571 13.1535V11.382H20.5876V8.58749H9.4021V11.382H13.4431V13.1535C10.0576 13.317 7.5166 13.9965 7.5166 14.8035C7.5166 15.6105 10.0546 16.293 13.4431 16.4535V22.3035H16.5571V16.4535C19.9426 16.2915 22.4836 15.612 22.4836 14.8035C22.4836 13.995 19.9501 13.317 16.5571 13.1535ZM15.0001 15.9375C11.3341 15.9375 8.3626 15.3705 8.3626 14.688C8.3626 14.1015 10.5271 13.608 13.4401 13.476V15.477C13.9411 15.4995 14.4616 15.513 14.9971 15.513C15.5326 15.513 16.0561 15.4995 16.5541 15.477V13.476C19.4671 13.608 21.6316 14.1015 21.6316 14.688C21.6376 15.378 18.6661 15.9375 15.0001 15.9375Z" fill="white"/>
</g>
<defs>
<clipPath id="clip0_308_261">
<rect width="30" height="30" fill="white"/>
</clipPath>
</defs>
</svg>
